<?xml version="1.0" encoding="UTF-8" standalone="no"?>
<svg
   viewBox="0 0 1488.75 1052.5"
   height="1052.5"
   width="1488.75"
   xml:space="preserve"
   version="1.1"
   id="svg18220"
   sodipodi:docname="Z113_Base.svg"
   inkscape:version="1.1.2 (0a00cf5339, 2022-02-04)"
   xmlns:inkscape="http://www.inkscape.org/namespaces/inkscape"
   xmlns:sodipodi="http://sodipodi.sourceforge.net/DTD/sodipodi-0.dtd"
   xmlns="http://www.w3.org/2000/svg"
   xmlns:svg="http://www.w3.org/2000/svg"
   xmlns:rdf="http://www.w3.org/1999/02/22-rdf-syntax-ns#"
   xmlns:cc="http://creativecommons.org/ns#"
   xmlns:dc="http://purl.org/dc/elements/1.1/"><sodipodi:namedview
     id="namedview4077"
     pagecolor="#ffffff"
     bordercolor="#666666"
     borderopacity="1.0"
     inkscape:pageshadow="2"
     inkscape:pageopacity="0.0"
     inkscape:pagecheckerboard="0"
     showgrid="false"
     inkscape:zoom="7.7287947"
     inkscape:cx="430.92101"
     inkscape:cy="790.87364"
     inkscape:window-width="2100"
     inkscape:window-height="1376"
     inkscape:window-x="0"
     inkscape:window-y="0"
     inkscape:window-maximized="1"
     inkscape:current-layer="g18228" /><metadata
     id="metadata18226"><rdf:RDF><cc:Work
         rdf:about=""><dc:format>image/svg+xml</dc:format><dc:type
           rdf:resource="http://purl.org/dc/dcmitype/StillImage" /></cc:Work></rdf:RDF></metadata><defs
     id="defs18224"><clipPath
       id="clipPath18234"
       clipPathUnits="userSpaceOnUse"><path
         id="path18236"
         d="m 35923,131654 80639,0 0,50968 -80639,0 0,-50968" /></clipPath><clipPath
       id="clipPath18356"
       clipPathUnits="userSpaceOnUse"><path
         id="path18358"
         d="m 35923,92169 80087,0 0,9700 -80087,0 0,-9700" /></clipPath><clipPath
       id="clipPath18482"
       clipPathUnits="userSpaceOnUse"><path
         id="path18484"
         d="m 35923,26436 80639,0 0,50969 -80639,0 0,-50969" /></clipPath><clipPath
       id="clipPath18580"
       clipPathUnits="userSpaceOnUse"><path
         id="path18582"
         d="m 0,0 151253,0 0,214230 L 0,214230 0,0" /></clipPath><clipPath
       id="clipPath32764"
       clipPathUnits="userSpaceOnUse"><path
         id="path32766"
         d="m 0,0 151253,0 0,214230 L 0,214230 0,0" /></clipPath><clipPath
       id="clipPath32776"
       clipPathUnits="userSpaceOnUse"><path
         id="path32778"
         d="m 0,0 151253,0 0,214230 L 0,214230 0,0" /></clipPath></defs><g
     transform="matrix(0,-0.006925,-0.006925,0,1486.25,1050)"
     id="g18228"><path
   id="path18238"
   style="fill:none;stroke:#000000;stroke-width:218.716;stroke-linecap:round;stroke-linejoin:round;stroke-miterlimit:10;stroke-dasharray:none;stroke-opacity:1"
   d="m 110927.71,131099.94 -1732.07,-90.73 -1730.98,-86.44 -1732.04,-81.11 -1733.13,-77.9 -1732.06,-72.59 -1733.11,-69.38 -1732.05,-64.04 -1733.117,-60.82 -1733.118,-55.51 -1733.119,-52.3 -1733.118,-46.95 -1734.184,-42.69 -1733.118,-39.5 -1734.184,-34.15 -1733.118,-29.88 -1734.185,-25.6 -1733.118,-22.42 -1734.185,-17.1 -1734.185,-12.79 -1734.183,-8.54 -1734.185,-4.26 h -1733.118 l -1734.186,4.26 -1734.183,8.54 -1734.185,12.79 -1734.186,17.1 -1733.116,22.42 -1734.185,25.6 -1733.118,29.88 -1734.184,34.15 -1733.118,39.5 -1734.185,42.69 -1733.117,46.95 -1733.119,52.3 -1733.118,55.51 -1733.118,60.82 -1732.051,64.04 -1733.118,69.38 -1732.051,72.59 -1733.119,77.9 -1732.051,81.11 -1730.985,86.44 -1732.051,90.73 -73.591,4.27 -72.526,6.41 -73.59,8.54 -72.524,9.6 -72.524,10.68 -72.525,12.82 -71.457,14.92 -71.458,16.01 -71.459,17.07 -70.39,19.22 -70.392,21.34 -69.325,22.43 -69.323,23.47 -68.259,25.6 -68.259,27.75 -68.257,28.84 -67.193,29.87 -66.125,32.04 -65.058,33.07 -65.058,34.15 -63.994,36.29 -62.923,37.35 -62.927,38.42 -60.792,40.57 -60.792,41.62 -58.659,42.68 -58.66,43.78 -57.593,45.9 -56.526,46.94 -55.461,48.04 -54.392,49.09 -52.261,51.22 -52.26,51.24 -51.193,53.37 -50.128,53.35 -47.993,55.51 -47.994,56.56 -45.861,57.64 -44.796,57.64 -42.66,59.77 -42.661,59.77 -40.528,60.82 -38.396,61.9 -38.396,62.98 -36.262,64.03 -35.195,65.12 -33.063,65.09 -31.995,66.17 -30.931,66.17 -28.796,68.31 -27.729,68.31 -26.664,68.3 -24.531,69.38 -22.396,69.37 -21.332,70.43 -20.264,70.46 -18.13,71.52 -15.997,71.5 -14.933,71.5 -13.865,72.58 -11.731,72.57 -9.6,72.57 -8.532,73.66 -7.465,72.56 -83.191,1043.81 -79.989,1042.75 -74.657,1043.8 -71.459,1043.82 -67.191,1044.88 -62.925,1044.87 -58.66,1044.88 -54.393,1044.87 -50.127,1044.89 -45.861,1045.94 -41.595,1044.87 -38.395,1045.96 -33.063,1045.93 -28.795,1045.95 -25.598,1047.01 -21.331,1045.95 -15.998,1045.94 -12.798,1047 -8.532,1045.96 -4.266,1047 v 1045.95 l 4.266,1047.03 8.532,1045.93 12.798,1047.01 15.998,1045.94 21.331,1045.94 25.598,1047.02 28.795,1045.93 33.063,1045.96 38.395,1045.95 41.595,1044.86 45.861,1045.96 50.127,1044.87 54.393,1044.89 58.66,1044.87 62.925,1044.88 67.191,1044.87 71.459,1043.82 74.657,1043.8 79.989,1042.74 83.191,1043.8 7.465,72.6 8.532,73.62 9.6,72.59 11.731,72.57 13.865,72.58 14.933,71.51 15.997,71.5 18.13,70.44 20.264,70.45 21.332,70.44 22.396,69.38 24.531,69.36 25.596,68.31 27.73,68.31 28.798,67.24 30.929,67.23 31.995,66.18 34.13,65.1 34.129,65.12 37.328,64.02 37.329,62.98 39.463,61.9 40.528,60.85 41.593,59.76 43.728,59.77 43.729,57.63 45.861,57.63 46.927,55.5 49.062,55.51 49.059,54.42 51.194,52.29 52.261,52.3 53.326,50.17 54.393,49.1 55.461,49.1 56.525,46.94 57.594,45.91 58.659,43.76 58.659,42.69 60.793,41.63 61.858,40.54 61.859,38.42 62.926,38.42 63.992,35.23 65.06,35.2 65.056,33.11 66.127,30.94 67.189,30.95 67.193,28.81 68.259,26.7 69.323,25.61 69.325,24.56 70.392,22.41 70.392,20.26 70.39,19.22 71.459,18.13 71.458,16.02 71.457,14.94 72.525,12.82 72.524,10.65 72.524,9.62 73.59,8.54 72.526,6.4 73.591,4.27" /><path
   id="path18240"
   style="fill:none;stroke:#000000;stroke-width:218.716;stroke-linecap:round;stroke-linejoin:round;stroke-miterlimit:10;stroke-dasharray:none;stroke-opacity:1"
   d="m 36819.572,178241.09 1712.853,88.58 1711.787,84.32 1712.854,81.13 1712.856,75.75 1712.852,71.52 1713.92,67.24 1712.855,62.96 1713.92,59.77 1712.854,54.44 1713.92,51.23 1713.921,45.89 1713.92,42.68 1713.919,37.36 1714.988,34.16 1713.921,28.83 1713.921,25.6 1714.986,21.36 1713.919,17.07 1714.988,12.79 1713.921,8.55 1714.988,3.2 h 1713.919 l 1714.986,-3.2 1713.922,-8.55 1714.986,-12.79 1713.92,-17.07 1714.987,-21.36 1713.921,-25.6 1713.921,-28.83 1714.986,-34.16 1713.92,-37.36 1713.92,-42.68 1713.922,-45.89 1713.92,-51.23 1712.854,-54.44 1713.919,-59.77 1712.852,-62.96 1713.91,-67.24 1712.88,-71.52 1712.83,-75.75 1712.86,-81.13 1711.79,-84.32 1712.84,-88.58 85.34,-6.4 85.32,-9.6 84.27,-13.89 84.24,-18.14 82.12,-21.34 82.13,-25.63 81.05,-28.8 78.93,-33.09 77.86,-36.3 76.78,-39.47 73.6,-42.7 72.52,-45.91 69.33,-50.16 68.25,-52.29 65.06,-55.49 62.93,-58.71 60.79,-60.83 56.52,-64.04 54.4,-66.17 51.2,-68.32 48,-71.5 44.79,-72.58 41.59,-74.71 38.39,-76.85 35.2,-78.97 30.94,-80.05 27.72,-81.1 23.47,-82.19 20.25,-83.26 16.01,-83.24 12.8,-85.39 9.59,-85.37" /><path
   id="path18242"
   style="fill:none;stroke:#000000;stroke-width:218.716;stroke-linecap:round;stroke-linejoin:round;stroke-miterlimit:10;stroke-dasharray:none;stroke-opacity:1"
   d="m 35018.195,134569.7 -82.123,1045.95 -77.857,1045.94 -74.657,1047.02 -69.325,1045.94 -66.124,1047.02 -61.859,1048.06 -56.527,1047.02 -53.327,1048.08 -49.061,1048.08 -43.728,1048.08 -40.528,1048.08 -36.262,1049.15 -31.997,1048.08 -26.662,1049.14 -23.464,1048.07 -19.198,1049.15 -14.931,1049.16 -10.666,1049.14 -6.399,1049.15 -2.134,1049.13 2.134,1049.16 6.399,1049.14 10.666,1049.14 14.931,1049.16 19.198,1049.13 23.464,1048.09 26.662,1049.15 31.997,1048.07 36.262,1049.15 40.528,1048.08 43.728,1048.07 49.061,1048.09 53.327,1048.08 56.527,1047 61.859,1048.1 66.124,1047 69.325,1045.94 74.657,1047.03 77.857,1045.94 82.123,1045.94 9.598,85.37 12.801,85.39 15.998,84.33 20.264,83.23 23.464,82.18 27.729,81.13 30.928,80.03 35.197,77.91 38.394,76.85 41.595,75.79 44.795,72.57 47.994,70.43 51.195,69.4 55.458,66.15 56.527,64.04 60.793,60.83 62.924,58.7 65.06,55.52 67.191,52.28 70.391,49.09 71.458,45.91 74.658,42.7 75.723,40.54 77.858,35.23 79.991,33.09 79.989,28.8 82.122,25.63 83.192,21.34 83.189,18.14 84.255,13.89 85.323,9.6 85.323,6.4" /><path
   id="path18244"
   style="fill:none;stroke:#000000;stroke-width:218.716;stroke-linecap:round;stroke-linejoin:round;stroke-miterlimit:10;stroke-dasharray:none;stroke-opacity:1"
   d="m 112310.99,176488.6 82.11,-1045.94 77.87,-1045.94 74.65,-1047.03 69.33,-1045.94 66.13,-1047 61.87,-1048.1 56.51,-1047 53.34,-1048.08 49.06,-1048.09 43.73,-1048.07 40.52,-1048.08 36.25,-1049.15 32.02,-1048.07 26.66,-1049.15 23.46,-1048.09 19.2,-1049.13 14.91,-1049.16 10.69,-1049.14 6.39,-1049.14 2.14,-1049.16 -2.14,-1049.13 -6.39,-1049.15 -10.69,-1049.14 -14.91,-1049.16 -19.2,-1049.15 -23.46,-1048.07 -26.66,-1049.14 -32.02,-1048.08 -36.25,-1049.15 -40.52,-1048.08 -43.73,-1048.08 -49.06,-1048.08 -53.34,-1048.08 -56.51,-1047.02 -61.87,-1048.06 -66.13,-1047.02 -69.33,-1045.94 -74.65,-1047.02 -77.87,-1045.94 -82.11,-1045.95 -9.59,-85.36 -12.8,-85.4 -16.01,-84.31 -20.25,-83.25 -23.47,-82.18 -27.72,-81.12 -30.94,-80.04 -35.2,-77.93 -38.39,-76.83 -41.59,-75.78 -44.79,-72.56 -48,-70.46 -51.2,-69.37 -55.46,-66.18 -56.52,-64.02 -60.79,-60.85 -62.94,-58.71 -65.06,-55.49 -67.18,-52.3 -70.4,-49.1 -71.45,-45.88 -74.66,-42.7 -75.72,-40.56 -77.86,-35.2 -79.99,-33.1 -79.99,-28.82 -82.13,-25.61 -83.19,-21.36 -83.17,-18.13 -84.27,-13.88 -85.32,-9.6 -85.34,-6.41 -1712.84,-88.6 -1711.79,-84.29 -1712.86,-81.12 -1712.83,-75.77 -1712.88,-71.51 -1713.91,-67.25 -1712.852,-62.98 -1713.919,-59.76 -1712.854,-54.43 -1713.92,-51.23 -1713.922,-45.9 -1713.92,-42.68 -1713.92,-37.36 -1714.986,-34.14 -1713.921,-28.83 -1713.921,-25.61 -1714.987,-21.35 -1713.92,-17.07 -1714.986,-12.8 -1713.922,-8.55 -1714.986,-3.21 h -1713.919 l -1714.988,3.21 -1713.921,8.55 -1714.988,12.8 -1713.919,17.07 -1714.986,21.35 -1713.921,25.61 -1713.921,28.83 -1714.988,34.14 -1713.919,37.36 -1713.92,42.68 -1713.921,45.9 -1713.92,51.23 -1712.854,54.43 -1713.92,59.76 -1712.855,62.98 -1713.92,67.25 -1712.852,71.51 -1712.856,75.77 -1712.854,81.12 -1711.787,84.29 -1712.853,88.6 -85.323,6.41 -85.323,9.6 -84.255,13.88 -84.258,18.13 -82.123,21.36 -82.122,25.61 -81.057,28.82 -78.923,33.1 -77.858,36.28 -76.789,39.48 -73.592,42.7 -72.525,45.88 -69.324,50.17 -68.258,52.3 -65.06,55.49 -62.925,58.7 -60.791,60.85 -56.527,64.04 -54.392,66.16 -51.195,68.31 -47.994,71.51 -44.795,72.57 -41.595,74.72 -38.394,76.83 -35.197,78.99 -30.928,80.05 -27.729,81.11 -23.464,82.19 -20.264,83.23 -15.998,83.26 -12.801,85.4 -9.598,85.36" /><path
   id="path18246"
   style="fill:none;stroke:#000000;stroke-width:218.716;stroke-linecap:round;stroke-linejoin:round;stroke-miterlimit:10;stroke-dasharray:none;stroke-opacity:1"
   d="m 110735.72,178473.76 -1722.44,89.66 -1723.53,85.37 -1722.45,81.11 -1723.52,76.85 -1723.52,72.58 -1723.52,68.31 -1724.587,64.05 -1723.52,59.75 -1724.585,55.51 -1723.518,51.22 -1724.587,46.95 -1724.587,42.7 -1724.584,38.42 -1724.586,34.15 -1725.653,29.89 -1724.585,25.62 -1724.586,21.35 -1725.652,17.08 -1724.586,12.79 -1724.587,8.55 -1725.65,4.27 h -1724.586 l -1725.653,-4.27 -1724.585,-8.55 -1724.585,-12.79 -1725.653,-17.08 -1724.586,-21.35 -1724.585,-25.62 -1725.653,-29.89 -1724.586,-34.15 -1724.585,-38.42 -1724.585,-42.7 -1724.587,-46.95 -1723.519,-51.22 -1724.586,-55.51 -1723.518,-59.75 -1724.587,-64.05 -1723.518,-68.31 -1723.52,-72.58 -1723.519,-76.85 -1722.453,-81.11 -1723.52,-85.37 -1722.452,-89.66 -85.323,-6.41 -85.323,-9.61 -84.255,-13.86 -84.257,-18.16 -83.188,-21.34 -81.058,-25.61 -81.057,-28.82 -78.923,-33.07 -77.857,-36.31 -76.791,-39.48 -73.59,-42.71 -72.524,-45.88 -69.326,-49.09 -68.257,-53.37 -65.059,-55.51 -62.926,-57.61 -59.726,-61.91 -57.592,-62.98 -54.393,-66.16 -51.194,-69.38 -47.994,-70.44 -44.795,-72.56 -41.594,-74.71 -38.396,-76.86 -34.129,-78.98 -31.996,-80.04 -26.662,-80.06 -24.532,-82.18 -20.264,-83.25 -15.999,-84.31 -12.797,-84.3 -9.599,-85.39" /><path
   id="path18248"
   style="fill:none;stroke:#000000;stroke-width:218.716;stroke-linecap:round;stroke-linejoin:round;stroke-miterlimit:10;stroke-dasharray:none;stroke-opacity:1"
   d="m 34792.09,176723.41 -84.257,-1057.7 -79.989,-1057.68 -75.724,-1058.76 -71.458,-1058.74 -66.125,-1058.76 -62.924,-1058.74 -58.662,-1058.75 -54.391,-1059.83 -49.063,-1059.82 -45.86,-1059.82 -41.595,-1059.81 -36.261,-1060.89 -33.063,-1059.83 -27.729,-1060.88 -23.464,-1059.81 -20.264,-1060.9 -14.933,-1060.88 -10.663,-1060.9 -6.402,-1060.88 -2.132,-1060.89 2.132,-1060.87 6.402,-1060.88 10.663,-1060.9 14.933,-1060.88 20.264,-1060.9 23.464,-1059.81 27.729,-1060.89 33.063,-1059.82 36.261,-1060.89 41.595,-1059.8 45.86,-1059.84 49.063,-1059.81 54.391,-1059.81 58.662,-1058.76 62.924,-1058.74 66.125,-1058.77 71.458,-1058.74 75.724,-1058.75 79.989,-1057.69 84.257,-1057.68 9.599,-85.4 12.797,-84.32 15.999,-84.29 20.264,-83.27 24.532,-82.17 27.729,-81.12 30.929,-80.06 35.197,-77.89 37.328,-76.85 41.594,-74.71 45.862,-73.66 47.994,-70.43 51.192,-68.3 54.395,-66.18 57.592,-64.03 59.726,-61.91 62.925,-57.62 65.059,-55.51 67.191,-52.3 70.392,-49.1 72.525,-45.87 73.591,-43.76 75.723,-39.51 77.857,-35.21 79.99,-33.09 79.99,-28.82 82.123,-25.61 82.123,-21.33 84.257,-18.16 84.255,-13.86 85.323,-9.61 85.323,-6.42" /><path
   id="path18250"
   style="fill:none;stroke:#000000;stroke-width:218.716;stroke-linecap:round;stroke-linejoin:round;stroke-miterlimit:10;stroke-dasharray:none;stroke-opacity:1"
   d="m 36593.466,132584.54 1722.452,-89.64 1723.52,-85.4 1722.453,-81.11 1723.519,-76.84 1723.52,-72.58 1723.518,-68.3 1724.587,-64.04 1723.518,-59.78 1724.586,-55.49 1723.519,-51.24 1724.587,-46.94 1724.585,-42.68 1724.585,-38.43 1724.586,-34.16 1725.653,-29.89 1724.585,-25.61 1724.586,-21.35 1725.653,-17.08 1724.585,-12.81 1724.585,-8.53 1725.653,-4.27 h 1724.586 l 1725.65,4.27 1724.587,8.53 1724.586,12.81 1725.652,17.08 1724.586,21.35 1724.585,25.61 1725.653,29.89 1724.586,34.16 1724.584,38.43 1724.587,42.68 1724.587,46.94 1723.518,51.24 1724.585,55.49 1723.52,59.78 1724.587,64.04 1723.52,68.3 1723.52,72.58 1723.52,76.84 1722.45,81.11 1723.53,85.4 1722.44,89.64 85.32,6.42 85.32,9.61 84.26,13.86 84.27,18.16 83.2,21.33 81.04,25.61 81.04,28.82 78.93,33.09 77.86,36.29 76.78,39.48 73.6,42.71 72.53,45.87 69.32,49.1 68.26,53.37 65.06,55.51 62.92,57.62 59.73,61.91 57.59,62.96 54.4,66.18 51.21,69.37 47.98,70.44 44.79,72.58 41.6,74.71 38.39,76.85 34.12,78.98 32,80.03 26.66,80.06 24.54,82.17 20.26,83.27 16,84.29 12.8,84.32 9.6,85.4" /><path
   id="path18252"
   style="fill:none;stroke:#000000;stroke-width:218.716;stroke-linecap:round;stroke-linejoin:round;stroke-miterlimit:10;stroke-dasharray:none;stroke-opacity:1"
   d="m 112537.1,134334.91 84.26,1057.68 79.98,1057.69 75.72,1058.75 71.47,1058.74 66.12,1058.77 62.91,1058.74 58.68,1058.76 54.38,1059.81 49.07,1059.81 45.86,1059.84 41.59,1059.8 36.27,1060.89 33.06,1059.82 27.73,1060.89 23.46,1059.81 20.27,1060.9 14.93,1060.88 10.66,1060.9 6.4,1060.88 2.14,1060.87 -2.14,1060.89 -6.4,1060.88 -10.66,1060.9 -14.93,1060.88 -20.27,1060.9 -23.46,1059.81 -27.73,1060.88 -33.06,1059.83 -36.27,1060.89 -41.59,1059.81 -45.86,1059.82 -49.07,1059.82 -54.38,1059.83 -58.68,1058.75 -62.91,1058.74 -66.12,1058.76 -71.47,1058.74 -75.72,1058.76 -79.98,1057.68 -84.26,1057.7 -9.6,85.39 -12.8,84.3 -16,84.31 -20.26,83.25 -24.54,82.18 -27.72,81.11 -30.94,80.05 -35.19,77.92 -37.32,76.86 -41.6,74.71 -45.85,73.62 -47.99,70.45 -51.21,68.31 -54.4,66.16 -57.58,64.04 -59.74,61.91 -62.92,57.63 -65.06,55.5 -67.19,52.3 -70.39,49.09 -72.52,45.88 -73.6,43.78 -75.72,39.47 -77.86,35.25 -79.98,33.07 -79.99,28.82 -82.11,25.61 -82.13,21.34 -84.27,18.16 -84.26,13.86 -85.32,9.61 -85.32,6.41" /><path
   id="path18254"
   style="fill:none;stroke:#000000;stroke-width:218.716;stroke-linecap:round;stroke-linejoin:round;stroke-miterlimit:10;stroke-dasharray:none;stroke-opacity:1"
   d="m 34125.506,176817.31 5.334,56.58 6.399,56.56 8.531,56.57 8.533,55.5 10.664,56.57 11.733,55.49 12.797,55.51 13.866,55.49 14.933,54.42 17.064,54.44 17.064,54.43 19.197,53.38 20.265,53.35 21.33,53.37 22.399,52.3 23.462,51.22 25.596,51.24 25.599,51.22 27.729,50.18 27.73,49.1 29.863,49.09 29.863,48.02 31.996,46.96 31.995,46.96 34.13,45.89 34.129,44.84 36.262,44.82 36.263,43.76 37.328,42.69 38.396,42.69 40.528,40.55 39.462,40.56 41.594,38.42 42.661,38.42 42.662,37.36 43.729,36.29 44.793,35.21 44.795,34.17 45.861,34.15 46.926,32.02 47.996,30.95 47.993,29.88 49.061,28.82 49.059,28.82 51.195,26.68 50.126,25.63 52.261,24.53 51.194,23.47 52.26,22.43 53.327,20.27 53.327,20.28 53.326,18.15 54.393,18.14 54.393,16.01 55.46,14.95 54.393,12.81 55.46,12.79 55.459,11.75 56.529,9.6 55.457,8.53 56.528,7.48 56.525,6.4 57.594,5.34 56.527,3.2 1725.652,89.66 1726.718,86.44 1726.72,81.13 1726.718,76.84 1726.719,72.57 1727.785,68.3 1726.719,65.12 1727.785,59.76 1727.786,55.5 1727.784,51.23 1727.787,46.97 1727.784,42.68 1728.852,38.42 1727.785,35.23 1727.787,29.89 1728.851,25.6 1727.785,21.34 1728.852,17.08 1728.852,12.82 1727.784,8.53 1728.853,4.27 h 1728.852 l 1728.85,-4.27 1727.787,-8.53 1728.852,-12.82 1728.851,-17.08 1727.787,-21.34 1728.85,-25.6 1727.786,-29.89 1727.784,-35.23 1728.854,-38.42 1727.784,-42.68 1727.786,-46.97 1727.784,-51.23 1727.788,-55.5 1727.784,-59.76 1726.723,-65.12 1727.78,-68.3 1726.72,-72.57 1726.72,-76.84 1726.71,-81.13 1726.73,-86.44 1725.66,-89.66 56.51,-3.2 57.61,-5.34 56.52,-6.4 56.51,-7.48 55.47,-8.53 56.53,-9.6 55.45,-11.75 55.47,-12.79 55.45,-12.81 54.4,-14.95 54.39,-17.07 54.4,-17.08 54.39,-18.15 53.33,-20.28 53.33,-21.35 52.25,-22.41 51.18,-23.47 52.27,-24.55 50.14,-25.62 50.12,-26.67 50.12,-27.76 49.07,-28.82 47.99,-30.94 46.93,-30.96 46.93,-32.02 46.93,-33.08 44.79,-34.17 44.79,-36.27 43.73,-36.29 43.73,-37.35 41.59,-38.43 41.61,-39.49 40.51,-39.5 39.47,-41.6 38.38,-41.64 37.34,-42.7 36.26,-43.75 36.28,-43.75 34.11,-45.91 33.07,-45.88 33.06,-45.9 30.93,-48.04 30.93,-48.03 28.8,-49.07 28.8,-49.1 26.67,-50.16 26.66,-51.24 24.52,-51.24 23.47,-51.22 22.4,-52.3 21.33,-53.36 20.25,-53.36 19.21,-53.37 17.06,-53.37 17.07,-54.44 14.92,-55.48 13.87,-54.43 12.8,-55.51 11.73,-55.49 10.68,-56.57 8.52,-55.5 8.52,-56.57 6.41,-56.56 5.34,-56.58 84.25,-1063.01 81.05,-1061.96 75.73,-1063.02 72.51,-1063.01 67.2,-1063.03 62.93,-1064.08 58.66,-1064.09 54.4,-1064.1 50.12,-1064.08 45.85,-1065.15 41.6,-1064.1 37.34,-1065.14 31.98,-1065.17 28.81,-1065.15 23.46,-1065.15 20.27,-1066.23 14.92,-1065.16 10.67,-1065.15 6.41,-1066.22 2.12,-1065.17 -2.12,-1065.14 -6.41,-1066.23 -10.67,-1065.16 -14.92,-1065.15 -20.27,-1066.23 -23.46,-1065.15 -28.81,-1065.16 -31.98,-1065.15 -37.34,-1065.15 -41.6,-1064.1 -45.85,-1065.15 -50.12,-1064.09 -54.4,-1064.08 -58.66,-1064.08 -62.93,-1064.1 -67.2,-1063.03 -72.51,-1063.01 -75.73,-1063.02 -81.05,-1061.97 -84.25,-1063.03" /><path
   id="path18256"
   style="fill:none;stroke:#000000;stroke-width:218.716;stroke-linecap:round;stroke-linejoin:round;stroke-miterlimit:10;stroke-dasharray:none;stroke-opacity:1"
   d="m 110224.85,133970.95 v 43116.4 H 37104.336 v -43116.4 h 73120.514" /><path
   id="path18258"
   style="fill:none;stroke:#000000;stroke-width:218.716;stroke-linecap:round;stroke-linejoin:round;stroke-miterlimit:10;stroke-dasharray:none;stroke-opacity:1"
   d="m 47206.547,148739.05 v 1.06" /><path
   id="path18260"
   style="fill:none;stroke:#000000;stroke-width:218.716;stroke-linecap:round;stroke-linejoin:round;stroke-miterlimit:10;stroke-dasharray:none;stroke-opacity:1"
   d="m 46360.786,149227.88 v -977.64 l 845.761,488.81 v 0" /><path
   id="path18262"
   style="fill:none;stroke:#000000;stroke-width:218.716;stroke-linecap:round;stroke-linejoin:round;stroke-miterlimit:10;stroke-dasharray:none;stroke-opacity:1"
   d="m 46360.786,148250.24 845.761,-488.84 846.829,488.84" /><path
   id="path18264"
   style="fill:none;stroke:#000000;stroke-width:218.716;stroke-linecap:round;stroke-linejoin:round;stroke-miterlimit:10;stroke-dasharray:none;stroke-opacity:1"
   d="m 47207.613,148739.05 h -1.066 v -977.65" /><path
   id="path18266"
   style="fill:none;stroke:#000000;stroke-width:218.716;stroke-linecap:round;stroke-linejoin:round;stroke-miterlimit:10;stroke-dasharray:none;stroke-opacity:1"
   d="m 48053.376,149227.88 -845.763,-487.77 v -1.06 l 845.763,-488.81 v 977.64 l -846.829,489.87" /><path
   id="path18268"
   style="fill:none;stroke:#000000;stroke-width:218.716;stroke-linecap:round;stroke-linejoin:round;stroke-miterlimit:10;stroke-dasharray:none;stroke-opacity:1"
   d="m 47206.547,148740.11 v 0 977.64 l -845.761,-489.87 845.761,-487.77 h 1.066" /><path
   id="path18270"
   style="fill:none;stroke:#000000;stroke-width:218.716;stroke-linecap:round;stroke-linejoin:round;stroke-miterlimit:10;stroke-dasharray:none;stroke-opacity:1"
   d="m 47206.547,162318.18 v 1.08" /><path
   id="path18272"
   style="fill:none;stroke:#000000;stroke-width:218.716;stroke-linecap:round;stroke-linejoin:round;stroke-miterlimit:10;stroke-dasharray:none;stroke-opacity:1"
   d="m 46360.786,162808.08 v -977.65 l 845.761,487.75 v 0" /><path
   id="path18274"
   style="fill:none;stroke:#000000;stroke-width:218.716;stroke-linecap:round;stroke-linejoin:round;stroke-miterlimit:10;stroke-dasharray:none;stroke-opacity:1"
   d="m 46360.786,161830.43 845.761,-489.88 846.829,489.88" /><path
   id="path18276"
   style="fill:none;stroke:#000000;stroke-width:218.716;stroke-linecap:round;stroke-linejoin:round;stroke-miterlimit:10;stroke-dasharray:none;stroke-opacity:1"
   d="m 47207.613,162318.18 h -1.066 v -977.63" /><path
   id="path18278"
   style="fill:none;stroke:#000000;stroke-width:218.716;stroke-linecap:round;stroke-linejoin:round;stroke-miterlimit:10;stroke-dasharray:none;stroke-opacity:1"
   d="m 48053.376,162808.08 -845.763,-488.82 v -1.08 l 845.763,-487.75 v 977.65 l -846.829,488.82" /><path
   id="path18280"
   style="fill:none;stroke:#000000;stroke-width:218.716;stroke-linecap:round;stroke-linejoin:round;stroke-miterlimit:10;stroke-dasharray:none;stroke-opacity:1"
   d="m 47206.547,162319.26 h 1.066" /><path
   id="path18282"
   style="fill:none;stroke:#000000;stroke-width:218.716;stroke-linecap:round;stroke-linejoin:round;stroke-miterlimit:10;stroke-dasharray:none;stroke-opacity:1"
   d="m 41077.709,136088.47 c 1055.836,0 1911.763,856.53 1911.763,1913.11 0,1056.59 -855.927,1913.12 -1911.763,1913.12 -1055.835,0 -1911.762,-856.53 -1911.762,-1913.12 0,-1056.58 855.927,-1913.11 1911.762,-1913.11" /><path
   id="path18284"
   style="fill:none;stroke:#000000;stroke-width:218.716;stroke-linecap:round;stroke-linejoin:round;stroke-miterlimit:10;stroke-dasharray:none;stroke-opacity:1"
   d="m 41077.709,171144.68 c 1055.836,0 1911.763,856.53 1911.763,1913.11 0,1056.58 -855.927,1913.11 -1911.763,1913.11 -1055.835,0 -1911.762,-856.53 -1911.762,-1913.11 0,-1056.58 855.927,-1913.11 1911.762,-1913.11" /><path
   id="path18286"
   style="fill:none;stroke:#000000;stroke-width:218.716;stroke-linecap:round;stroke-linejoin:round;stroke-miterlimit:10;stroke-dasharray:none;stroke-opacity:1"
   d="m 106252.55,171144.68 c 1055.84,0 1911.75,856.53 1911.75,1913.11 0,1056.58 -855.91,1913.11 -1911.75,1913.11 -1055.85,0 -1911.78,-856.53 -1911.78,-1913.11 0,-1056.58 855.93,-1913.11 1911.78,-1913.11" /><path
   id="path18288"
   style="fill:none;stroke:#000000;stroke-width:218.716;stroke-linecap:round;stroke-linejoin:round;stroke-miterlimit:10;stroke-dasharray:none;stroke-opacity:1"
   d="m 106252.55,136088.47 c 1055.84,0 1911.75,856.53 1911.75,1913.11 0,1056.59 -855.91,1913.12 -1911.75,1913.12 -1055.85,0 -1911.78,-856.53 -1911.78,-1913.12 0,-1056.58 855.93,-1913.11 1911.78,-1913.11" /><path
   id="path18290"
   style="fill:none;stroke:#000000;stroke-width:218.716;stroke-linecap:round;stroke-linejoin:round;stroke-miterlimit:10;stroke-dasharray:none;stroke-opacity:1"
   d="m 100286.36,136211.2 c 905.04,0 1638.72,734.21 1638.72,1639.89 0,905.68 -733.68,1639.89 -1638.72,1639.89 -905.057,0 -1638.737,-734.21 -1638.737,-1639.89 0,-905.68 733.68,-1639.89 1638.737,-1639.89" /><path
   d="m 100286.36,138506.93 c -361.968,0 -655.392,-293.62 -655.392,-655.84 0,-362.22 293.424,-655.85 655.392,-655.85 361.96,0 655.37,293.63 655.37,655.85 0,362.22 -293.41,655.84 -655.37,655.84"
   style="fill:none;stroke:#000000;stroke-width:218.716;stroke-linecap:round;stroke-linejoin:round;stroke-miterlimit:10;stroke-dasharray:none;stroke-opacity:1"
   id="path18294" /><path
   id="path18296"
   style="fill:none;stroke:#000000;stroke-width:218.716;stroke-linecap:round;stroke-linejoin:round;stroke-miterlimit:10;stroke-dasharray:none;stroke-opacity:1"
   d="m 47043.902,171568.39 c 905.044,0 1638.729,734.21 1638.729,1639.88 0,905.7 -733.685,1639.91 -1638.729,1639.91 -905.045,0 -1638.732,-734.21 -1638.732,-1639.91 0,-905.67 733.687,-1639.88 1638.732,-1639.88" /><path
   d="m 47043.902,173864.11 c -361.96,0 -655.387,-293.61 -655.387,-655.84 0,-362.2 293.427,-655.84 655.387,-655.84 361.959,0 655.385,293.64 655.385,655.84 0,362.23 -293.426,655.84 -655.385,655.84"
   style="fill:none;stroke:#000000;stroke-width:218.716;stroke-linecap:round;stroke-linejoin:round;stroke-miterlimit:10;stroke-dasharray:none;stroke-opacity:1"
   id="path18300" /><path
   id="path18302"
   style="fill:none;stroke:#000000;stroke-width:218.716;stroke-linecap:round;stroke-linejoin:round;stroke-miterlimit:10;stroke-dasharray:none;stroke-opacity:1"
   d="m 83986.511,171568.39 c 905.047,0 1638.73,734.21 1638.73,1639.88 0,905.7 -733.683,1639.91 -1638.73,1639.91 -905.045,0 -1638.729,-734.21 -1638.729,-1639.91 0,-905.67 733.684,-1639.88 1638.729,-1639.88" /><path
   d="m 83986.511,173864.11 c -361.96,0 -655.385,-293.61 -655.385,-655.84 0,-362.2 293.425,-655.84 655.385,-655.84 361.959,0 655.385,293.64 655.385,655.84 0,362.23 -293.426,655.84 -655.385,655.84"
   style="fill:none;stroke:#000000;stroke-width:218.716;stroke-linecap:round;stroke-linejoin:round;stroke-miterlimit:10;stroke-dasharray:none;stroke-opacity:1"
   id="path18306" /><path
   id="path18308"
   style="fill:none;stroke:#000000;stroke-width:218.716;stroke-linecap:round;stroke-linejoin:round;stroke-miterlimit:10;stroke-dasharray:none;stroke-opacity:1"
   d="m 100286.36,171568.39 c 905.04,0 1638.72,734.21 1638.72,1639.88 0,905.7 -733.68,1639.91 -1638.72,1639.91 -905.057,0 -1638.737,-734.21 -1638.737,-1639.91 0,-905.67 733.68,-1639.88 1638.737,-1639.88" /><path
   d="m 100286.36,173864.11 c -361.968,0 -655.392,-293.61 -655.392,-655.84 0,-362.2 293.424,-655.84 655.392,-655.84 361.96,0 655.37,293.64 655.37,655.84 0,362.23 -293.41,655.84 -655.37,655.84"
   style="fill:none;stroke:#000000;stroke-width:218.716;stroke-linecap:round;stroke-linejoin:round;stroke-miterlimit:10;stroke-dasharray:none;stroke-opacity:1"
   id="path18312" /><path
   id="path18314"
   style="fill:none;stroke:#000000;stroke-width:218.716;stroke-linecap:round;stroke-linejoin:round;stroke-miterlimit:10;stroke-dasharray:none;stroke-opacity:1"
   d="m 83986.511,136211.2 c 905.047,0 1638.73,734.21 1638.73,1639.89 0,905.68 -733.683,1639.89 -1638.73,1639.89 -905.045,0 -1638.729,-734.21 -1638.729,-1639.89 0,-905.68 733.684,-1639.89 1638.729,-1639.89" /><path
   d="m 83986.511,138506.93 c -361.96,0 -655.385,-293.62 -655.385,-655.84 0,-362.22 293.425,-655.85 655.385,-655.85 361.959,0 655.385,293.63 655.385,655.85 0,362.22 -293.426,655.84 -655.385,655.84"
   style="fill:none;stroke:#000000;stroke-width:218.716;stroke-linecap:round;stroke-linejoin:round;stroke-miterlimit:10;stroke-dasharray:none;stroke-opacity:1"
   id="path18318" /><path
   id="path18320"
   style="fill:none;stroke:#000000;stroke-width:218.716;stroke-linecap:round;stroke-linejoin:round;stroke-miterlimit:10;stroke-dasharray:none;stroke-opacity:1"
   d="m 47043.902,136211.2 c 905.044,0 1638.729,734.21 1638.729,1639.89 0,905.68 -733.685,1639.89 -1638.729,1639.89 -905.045,0 -1638.732,-734.21 -1638.732,-1639.89 0,-905.68 733.687,-1639.89 1638.732,-1639.89" /><path
   d="m 47043.902,138506.93 c -361.96,0 -655.387,-293.62 -655.387,-655.84 0,-362.22 293.427,-655.85 655.387,-655.85 361.959,0 655.385,293.63 655.385,655.85 0,362.22 -293.426,655.84 -655.385,655.84"
   style="fill:none;stroke:#000000;stroke-width:218.716;stroke-linecap:round;stroke-linejoin:round;stroke-miterlimit:10;stroke-dasharray:none;stroke-opacity:1"
   id="path18324" /><path
   id="path18326"
   style="fill:none;stroke:#000000;stroke-width:218.716;stroke-linecap:round;stroke-linejoin:round;stroke-miterlimit:10;stroke-dasharray:none;stroke-opacity:1"
   d="m 47206.547,163296.9 v -977.64 l -845.761,488.82 845.761,488.82" /><path
   id="path18328"
   style="fill:none;stroke:#000000;stroke-width:218.716;stroke-linecap:round;stroke-linejoin:round;stroke-miterlimit:10;stroke-dasharray:none;stroke-opacity:1"
   d="m 47206.547,162319.26 v 0" /><path
   d="m 106252.55,138930.66 c -512.76,0 -928.43,-415.97 -928.43,-929.08 0,-513.11 415.67,-929.08 928.43,-929.08 512.75,0 928.41,415.97 928.41,929.08 0,513.11 -415.66,929.08 -928.41,929.08"
   style="fill:none;stroke:#000000;stroke-width:218.716;stroke-linecap:round;stroke-linejoin:round;stroke-miterlimit:10;stroke-dasharray:none;stroke-opacity:1"
   id="path18332" /><path
   d="m 41077.709,138930.66 c -512.751,0 -928.417,-415.97 -928.417,-929.08 0,-513.11 415.666,-929.08 928.417,-929.08 512.751,0 928.418,415.97 928.418,929.08 0,513.11 -415.667,929.08 -928.418,929.08"
   style="fill:none;stroke:#000000;stroke-width:218.716;stroke-linecap:round;stroke-linejoin:round;stroke-miterlimit:10;stroke-dasharray:none;stroke-opacity:1"
   id="path18336" /><path
   d="m 41077.709,173986.87 c -512.751,0 -928.417,-415.97 -928.417,-929.08 0,-513.1 415.666,-929.08 928.417,-929.08 512.751,0 928.418,415.98 928.418,929.08 0,513.11 -415.667,929.08 -928.418,929.08"
   style="fill:none;stroke:#000000;stroke-width:218.716;stroke-linecap:round;stroke-linejoin:round;stroke-miterlimit:10;stroke-dasharray:none;stroke-opacity:1"
   id="path18340" /><path
   d="m 106252.55,173986.87 c -512.76,0 -928.43,-415.97 -928.43,-929.08 0,-513.1 415.67,-929.08 928.43,-929.08 512.75,0 928.41,415.98 928.41,929.08 0,513.11 -415.66,929.08 -928.41,929.08"
   style="fill:none;stroke:#000000;stroke-width:218.716;stroke-linecap:round;stroke-linejoin:round;stroke-miterlimit:10;stroke-dasharray:none;stroke-opacity:1"
   id="path18344" /><path
   id="path18346"
   style="fill:none;stroke:#000000;stroke-width:218.716;stroke-linecap:round;stroke-linejoin:round;stroke-miterlimit:10;stroke-dasharray:none;stroke-opacity:1"
   d="m 113203.69,134240.96 -5.34,-56.54 -6.41,-56.57 -8.52,-56.57 -8.52,-55.49 -10.68,-56.58 -11.73,-55.49 -12.8,-55.5 -13.87,-55.51 -14.92,-54.43 -17.07,-54.43 -17.06,-54.43 -19.21,-53.36 -20.25,-53.37 -21.33,-53.35 -22.4,-52.31 -23.47,-51.22 -25.6,-51.23 -25.58,-51.25 -27.75,-50.16 -27.72,-49.09 -29.86,-49.09 -29.87,-48.02 -32,-46.98 -31.99,-46.95 -34.14,-45.9 -34.12,-44.83 -36.27,-44.82 -36.26,-43.75 -37.34,-42.69 -38.38,-42.7 -40.52,-40.56 -39.46,-40.55 -41.61,-38.42 -42.66,-38.44 -42.66,-37.35 -43.73,-36.27 -44.78,-35.24 -44.8,-34.15 -45.86,-34.14 -46.93,-32.01 -48,-30.97 -47.98,-29.88 -49.08,-28.82 -49.05,-28.81 -51.19,-26.68 -50.12,-25.64 -52.28,-24.51 -51.2,-23.5 -52.24,-22.42 -53.34,-20.28 -53.33,-20.27 -53.31,-18.15 -54.4,-18.14 -54.39,-16.01 -55.46,-14.94 -54.39,-12.81 -55.47,-12.82 -55.45,-11.73 -56.53,-9.61 -55.47,-8.52 -56.51,-7.48 -56.52,-6.41 -57.61,-5.33 -56.51,-3.2 -1725.66,-89.64 -1726.73,-86.47 -1726.71,-81.1 -1726.72,-76.85 -1726.72,-72.59 -1727.78,-68.29 -1726.723,-65.11 -1727.784,-59.76 -1727.788,-55.51 -1727.784,-51.23 -1727.786,-46.96 -1727.784,-42.7 -1728.854,-38.42 -1727.784,-35.2 -1727.786,-29.9 -1728.85,-25.63 -1727.787,-21.34 -1728.851,-17.07 -1728.852,-12.8 -1727.787,-8.55 -1728.85,-4.26 h -1728.852 l -1728.853,4.26 -1727.784,8.55 -1728.852,12.8 -1728.852,17.07 -1727.785,21.34 -1728.851,25.63 -1727.787,29.9 -1727.785,35.2 -1728.852,38.42 -1727.784,42.7 -1727.787,46.96 -1727.784,51.23 -1727.786,55.51 -1727.785,59.76 -1726.719,65.11 -1727.785,68.29 -1726.719,72.59 -1726.718,76.85 -1726.72,81.1 -1726.718,86.47 -1725.652,89.64 -56.527,3.2 -57.594,5.33 -56.525,6.41 -56.528,7.48 -55.457,8.52 -56.529,9.61 -55.459,11.73 -55.46,12.82 -55.459,12.81 -54.394,14.94 -54.393,17.07 -54.393,17.08 -54.393,18.15 -53.327,20.27 -53.327,21.36 -52.26,22.4 -51.193,23.48 -52.261,24.55 -50.127,25.63 -50.128,26.67 -50.125,27.75 -49.062,28.82 -47.993,30.95 -46.929,30.95 -46.926,32.02 -46.929,33.08 -44.792,34.15 -44.796,36.29 -43.728,36.29 -43.728,37.36 -41.595,38.43 -41.594,39.47 -40.529,39.5 -39.463,41.63 -38.393,41.62 -37.33,42.69 -36.262,43.77 -36.261,43.74 -34.13,45.89 -33.063,45.92 -33.061,45.87 -30.93,48.02 -30.931,48.04 -28.795,49.1 -28.796,49.09 -26.663,50.17 -26.665,51.23 -24.53,51.24 -23.462,51.23 -22.399,52.29 -21.33,53.35 -20.265,53.38 -19.197,53.36 -17.064,53.36 -17.064,54.43 -14.933,55.51 -13.866,54.43 -12.797,55.5 -11.733,55.49 -10.664,56.58 -8.533,55.49 -8.531,56.57 -6.399,56.57 -5.334,56.54 -84.255,1063.03 -81.057,1061.97 -75.725,1063.02 -72.524,1063.01 -67.191,1063.03 -62.925,1064.1 -58.66,1064.08 -54.395,1064.08 -50.126,1064.09 -45.86,1065.15 -41.596,1064.1 -37.329,1065.15 -31.995,1065.15 -28.798,1065.16 -23.463,1065.15 -20.264,1066.23 -14.931,1065.15 -10.665,1065.16 -6.4,1066.23 -2.132,1065.14 2.132,1065.17 6.4,1066.22 10.665,1065.15 14.931,1065.16 20.264,1066.23 23.463,1065.15 28.798,1065.15 31.995,1065.17 37.329,1065.14 41.596,1064.1 45.86,1065.15 50.126,1064.08 54.395,1064.1 58.66,1064.09 62.925,1064.08 67.191,1063.03 72.524,1063.01 75.725,1063.02 81.057,1061.96 84.255,1063.01" /><path
   id="path18348"
   style="fill:none;stroke:#000000;stroke-width:218.716;stroke-linecap:round;stroke-linejoin:round;stroke-miterlimit:10;stroke-dasharray:none;stroke-opacity:1"
   d="m 36401.491,179958.35 1732.051,90.73 1730.985,86.45 1732.051,81.11 1733.119,77.92 1732.051,72.58 1733.118,69.35 1732.051,64.05 1733.118,60.83 1733.118,55.5 1733.119,52.3 1733.117,46.95 1734.185,42.71 1733.118,39.48 1734.184,34.15 1733.118,29.9 1734.185,25.6 1733.116,22.42 1734.186,17.07 1734.185,12.81 1734.183,8.54 1734.186,4.27 h 1733.118 l 1734.185,-4.27 1734.183,-8.54 1734.185,-12.81 1734.185,-17.07 1733.118,-22.42 1734.185,-25.6 1733.118,-29.9 1734.184,-34.15 1733.118,-39.48 1734.184,-42.71 1733.118,-46.95 1733.119,-52.3 1733.118,-55.5 1733.117,-60.83 1732.05,-64.05 1733.11,-69.35 1732.06,-72.58 1733.13,-77.92 1732.04,-81.11 1730.98,-86.45 1732.07,-90.73 73.58,-4.27 72.52,-6.4 73.59,-8.54 72.53,-9.62 72.53,-10.65 72.51,-12.82 71.46,-14.94 71.46,-16.02 71.45,-17.06 70.4,-19.21 70.39,-21.34 69.33,-22.41 69.32,-23.5 68.26,-25.61 68.26,-27.76 68.27,-28.81 67.18,-29.89 66.13,-32 65.06,-33.11 65.05,-34.14 64,-36.29 62.91,-37.35 62.92,-38.42 60.81,-40.56 60.79,-41.62 58.65,-42.69 58.67,-43.77 57.59,-45.88 56.52,-46.96 55.46,-48.04 54.39,-49.09 52.27,-51.23 52.26,-51.22 51.19,-53.38 50.13,-53.36 47.99,-55.5 48,-56.57 45.86,-57.62 44.79,-57.66 42.66,-59.75 42.67,-59.77 40.52,-60.82 38.4,-61.92 38.38,-62.95 36.28,-64.05 35.19,-65.12 33.07,-65.08 31.98,-66.19 30.94,-66.17 28.8,-68.31 27.73,-68.29 26.66,-68.32 24.53,-69.38 22.4,-69.36 21.33,-70.45 20.26,-70.44 18.13,-71.51 16,-71.5 14.94,-71.51 13.86,-72.58 11.73,-72.57 9.6,-72.59 8.54,-73.62 7.46,-72.6" /><path
   id="path18350"
   style="fill:none;stroke:#000000;stroke-width:218.716;stroke-linecap:round;stroke-linejoin:round;stroke-miterlimit:10;stroke-dasharray:none;stroke-opacity:1"
   d="m 114014.25,176958.19 83.2,-1043.8 79.98,-1042.74 74.66,-1043.8 71.46,-1043.82 67.19,-1044.87 62.91,-1044.88 58.67,-1044.87 54.38,-1044.89 50.13,-1044.87 45.86,-1045.96 41.61,-1044.86 38.39,-1045.95 33.06,-1045.96 28.8,-1045.93 25.6,-1047.02 21.33,-1045.94 15.99,-1045.94 12.81,-1047.01 8.52,-1045.93 4.27,-1047.03 v -1045.95 l -4.27,-1047 -8.52,-1045.96 -12.81,-1047 -15.99,-1045.94 -21.33,-1045.95 -25.6,-1047.01 -28.8,-1045.95 -33.06,-1045.93 -38.39,-1045.96 -41.61,-1044.87 -45.86,-1045.94 -50.13,-1044.89 -54.38,-1044.87 -58.67,-1044.88 -62.91,-1044.87 -67.19,-1044.88 -71.46,-1043.82 -74.66,-1043.8 -79.98,-1042.75 -83.2,-1043.81 -7.46,-72.56 -8.54,-73.66 -9.6,-72.57 -11.73,-72.57 -13.86,-72.58 -14.94,-71.5 -16,-71.5 -18.13,-70.46 -20.26,-70.44 -21.33,-70.44 -22.4,-69.37 -24.53,-69.37 -25.59,-68.31 -27.73,-68.31 -28.8,-67.24 -30.94,-67.22 -31.99,-66.2 -34.13,-65.1 -34.13,-65.09 -37.34,-64.04 -37.31,-62.96 -39.47,-61.92 -40.52,-60.83 -41.6,-59.77 -43.73,-59.77 -43.73,-57.64 -45.85,-57.63 -46.94,-55.51 -49.05,-55.48 -49.07,-54.42 -51.18,-52.31 -52.27,-52.31 -53.32,-50.16 -54.4,-49.09 -55.46,-49.09 -56.53,-46.97 -57.59,-45.89 -58.65,-43.77 -58.67,-42.68 -60.78,-41.64 -61.88,-40.55 -61.85,-38.43 -62.92,-38.41 -63.99,-35.21 -65.07,-35.23 -65.05,-33.07 -66.12,-30.97 -67.19,-30.94 -67.19,-28.84 -68.26,-26.67 -69.32,-25.6 -69.33,-24.55 -70.4,-22.43 -70.39,-20.28 -70.4,-19.2 -71.45,-18.15 -71.46,-16.01 -71.46,-14.92 -72.51,-12.82 -72.53,-10.68 -72.53,-9.6 -73.59,-8.54 -72.52,-6.41 -73.58,-4.27" />













<path
   id="path32294"
   style="fill:none;stroke:#000000;stroke-width:136.565;stroke-linecap:round;stroke-linejoin:round;stroke-miterlimit:10;stroke-dasharray:none;stroke-opacity:1"
   d="m 108708.23,173056.19 h -1965.61" /><path
   id="path32296"
   style="fill:none;stroke:#000000;stroke-width:136.565;stroke-linecap:round;stroke-linejoin:round;stroke-miterlimit:10;stroke-dasharray:none;stroke-opacity:1"
   d="m 106250.95,173056.19 v 0" /><path
   id="path32298"
   style="fill:none;stroke:#000000;stroke-width:136.565;stroke-linecap:round;stroke-linejoin:round;stroke-miterlimit:10;stroke-dasharray:none;stroke-opacity:1"
   d="m 105760.34,173056.19 h -1966.68" /><path
   id="path32300"
   style="fill:none;stroke:#000000;stroke-width:136.565;stroke-linecap:round;stroke-linejoin:round;stroke-miterlimit:10;stroke-dasharray:none;stroke-opacity:1"
   d="m 106250.95,170597.15 v 1968.09" /><path
   id="path32302"
   style="fill:none;stroke:#000000;stroke-width:136.565;stroke-linecap:round;stroke-linejoin:round;stroke-miterlimit:10;stroke-dasharray:none;stroke-opacity:1"
   d="m 106250.95,173056.19 v 0" /><path
   id="path32304"
   style="fill:none;stroke:#000000;stroke-width:136.565;stroke-linecap:round;stroke-linejoin:round;stroke-miterlimit:10;stroke-dasharray:none;stroke-opacity:1"
   d="m 106250.95,173548.22 v 1967.02" /><path
   id="path32306"
   style="fill:none;stroke:#000000;stroke-width:136.565;stroke-linecap:round;stroke-linejoin:round;stroke-miterlimit:10;stroke-dasharray:none;stroke-opacity:1"
   d="m 102470.08,173206.69 h -1693.67" /><path
   id="path32308"
   style="fill:none;stroke:#000000;stroke-width:136.565;stroke-linecap:round;stroke-linejoin:round;stroke-miterlimit:10;stroke-dasharray:none;stroke-opacity:1"
   d="m 100285.83,173206.69 v 0" /><path
   id="path32310"
   style="fill:none;stroke:#000000;stroke-width:136.565;stroke-linecap:round;stroke-linejoin:round;stroke-miterlimit:10;stroke-dasharray:none;stroke-opacity:1"
   d="m 99794.147,173206.69 h -1692.59" /><path
   id="path32312"
   style="fill:none;stroke:#000000;stroke-width:136.565;stroke-linecap:round;stroke-linejoin:round;stroke-miterlimit:10;stroke-dasharray:none;stroke-opacity:1"
   d="m 100285.83,171020.87 v 1693.78" /><path
   id="path32314"
   style="fill:none;stroke:#000000;stroke-width:136.565;stroke-linecap:round;stroke-linejoin:round;stroke-miterlimit:10;stroke-dasharray:none;stroke-opacity:1"
   d="m 100285.83,173206.69 v 0" /><path
   id="path32316"
   style="fill:none;stroke:#000000;stroke-width:136.565;stroke-linecap:round;stroke-linejoin:round;stroke-miterlimit:10;stroke-dasharray:none;stroke-opacity:1"
   d="m 100285.83,173698.7 v 1693.79" /><path
   id="path32370"
   style="fill:none;stroke:#000000;stroke-width:136.565;stroke-linecap:round;stroke-linejoin:round;stroke-miterlimit:10;stroke-dasharray:none;stroke-opacity:1"
   d="m 108708.23,138001.05 h -1965.61" /><path
   id="path32372"
   style="fill:none;stroke:#000000;stroke-width:136.565;stroke-linecap:round;stroke-linejoin:round;stroke-miterlimit:10;stroke-dasharray:none;stroke-opacity:1"
   d="m 106250.95,138001.05 v 0" /><path
   id="path32374"
   style="fill:none;stroke:#000000;stroke-width:136.565;stroke-linecap:round;stroke-linejoin:round;stroke-miterlimit:10;stroke-dasharray:none;stroke-opacity:1"
   d="m 105760.34,138001.05 h -1966.68" /><path
   id="path32376"
   style="fill:none;stroke:#000000;stroke-width:136.565;stroke-linecap:round;stroke-linejoin:round;stroke-miterlimit:10;stroke-dasharray:none;stroke-opacity:1"
   d="m 106250.95,135541.99 v 1967.04" /><path
   id="path32378"
   style="fill:none;stroke:#000000;stroke-width:136.565;stroke-linecap:round;stroke-linejoin:round;stroke-miterlimit:10;stroke-dasharray:none;stroke-opacity:1"
   d="m 106250.95,138001.05 v 0" /><path
   id="path32380"
   style="fill:none;stroke:#000000;stroke-width:136.565;stroke-linecap:round;stroke-linejoin:round;stroke-miterlimit:10;stroke-dasharray:none;stroke-opacity:1"
   d="m 106250.95,138493.06 v 1967.02" /><path
   id="path32382"
   style="fill:none;stroke:#000000;stroke-width:136.565;stroke-linecap:round;stroke-linejoin:round;stroke-miterlimit:10;stroke-dasharray:none;stroke-opacity:1"
   d="M 43534.47,173056.19 H 41568.849" /><path
   id="path32384"
   style="fill:none;stroke:#000000;stroke-width:136.565;stroke-linecap:round;stroke-linejoin:round;stroke-miterlimit:10;stroke-dasharray:none;stroke-opacity:1"
   d="m 41077.175,173056.19 v 0" /><path
   id="path32386"
   style="fill:none;stroke:#000000;stroke-width:136.565;stroke-linecap:round;stroke-linejoin:round;stroke-miterlimit:10;stroke-dasharray:none;stroke-opacity:1"
   d="M 40586.57,173056.19 H 38619.881" /><path
   id="path32388"
   style="fill:none;stroke:#000000;stroke-width:136.565;stroke-linecap:round;stroke-linejoin:round;stroke-miterlimit:10;stroke-dasharray:none;stroke-opacity:1"
   d="m 41077.175,170597.15 v 1968.09" /><path
   id="path32390"
   style="fill:none;stroke:#000000;stroke-width:136.565;stroke-linecap:round;stroke-linejoin:round;stroke-miterlimit:10;stroke-dasharray:none;stroke-opacity:1"
   d="m 41077.175,173056.19 v 0" /><path
   id="path32392"
   style="fill:none;stroke:#000000;stroke-width:136.565;stroke-linecap:round;stroke-linejoin:round;stroke-miterlimit:10;stroke-dasharray:none;stroke-opacity:1"
   d="m 41077.175,173548.22 v 1967.02" /><path
   id="path32394"
   style="fill:none;stroke:#000000;stroke-width:136.565;stroke-linecap:round;stroke-linejoin:round;stroke-miterlimit:10;stroke-dasharray:none;stroke-opacity:1"
   d="M 43534.47,138001.05 H 41568.849" /><path
   id="path32396"
   style="fill:none;stroke:#000000;stroke-width:136.565;stroke-linecap:round;stroke-linejoin:round;stroke-miterlimit:10;stroke-dasharray:none;stroke-opacity:1"
   d="m 41077.175,138001.05 v 0" /><path
   id="path32398"
   style="fill:none;stroke:#000000;stroke-width:136.565;stroke-linecap:round;stroke-linejoin:round;stroke-miterlimit:10;stroke-dasharray:none;stroke-opacity:1"
   d="M 40586.57,138001.05 H 38619.881" /><path
   id="path32400"
   style="fill:none;stroke:#000000;stroke-width:136.565;stroke-linecap:round;stroke-linejoin:round;stroke-miterlimit:10;stroke-dasharray:none;stroke-opacity:1"
   d="m 41077.175,135541.99 v 1967.04" /><path
   id="path32402"
   style="fill:none;stroke:#000000;stroke-width:136.565;stroke-linecap:round;stroke-linejoin:round;stroke-miterlimit:10;stroke-dasharray:none;stroke-opacity:1"
   d="m 41077.175,138001.05 v 0" /><path
   id="path32404"
   style="fill:none;stroke:#000000;stroke-width:136.565;stroke-linecap:round;stroke-linejoin:round;stroke-miterlimit:10;stroke-dasharray:none;stroke-opacity:1"
   d="m 41077.175,138493.06 v 1967.02" /><path
   id="path32454"
   style="fill:none;stroke:#000000;stroke-width:136.565;stroke-linecap:round;stroke-linejoin:round;stroke-miterlimit:10;stroke-dasharray:none;stroke-opacity:1"
   d="m 102470.08,137850.55 h -1693.67" /><path
   id="path32456"
   style="fill:none;stroke:#000000;stroke-width:136.565;stroke-linecap:round;stroke-linejoin:round;stroke-miterlimit:10;stroke-dasharray:none;stroke-opacity:1"
   d="m 100285.83,137850.55 v 0" /><path
   id="path32458"
   style="fill:none;stroke:#000000;stroke-width:136.565;stroke-linecap:round;stroke-linejoin:round;stroke-miterlimit:10;stroke-dasharray:none;stroke-opacity:1"
   d="m 99794.147,137850.55 h -1692.59" /><path
   id="path32460"
   style="fill:none;stroke:#000000;stroke-width:136.565;stroke-linecap:round;stroke-linejoin:round;stroke-miterlimit:10;stroke-dasharray:none;stroke-opacity:1"
   d="m 100285.83,135664.75 v 1694.85" /><path
   id="path32462"
   style="fill:none;stroke:#000000;stroke-width:136.565;stroke-linecap:round;stroke-linejoin:round;stroke-miterlimit:10;stroke-dasharray:none;stroke-opacity:1"
   d="m 100285.83,137850.55 v 0" /><path
   id="path32464"
   style="fill:none;stroke:#000000;stroke-width:136.565;stroke-linecap:round;stroke-linejoin:round;stroke-miterlimit:10;stroke-dasharray:none;stroke-opacity:1"
   d="m 100285.83,138342.58 v 1693.79" /><path
   id="path32466"
   style="fill:none;stroke:#000000;stroke-width:136.565;stroke-linecap:round;stroke-linejoin:round;stroke-miterlimit:10;stroke-dasharray:none;stroke-opacity:1"
   d="m 86169.174,173206.69 h -1692.59" /><path
   id="path32468"
   style="fill:none;stroke:#000000;stroke-width:136.565;stroke-linecap:round;stroke-linejoin:round;stroke-miterlimit:10;stroke-dasharray:none;stroke-opacity:1"
   d="m 83984.911,173206.69 v 0" /><path
   id="path32470"
   style="fill:none;stroke:#000000;stroke-width:136.565;stroke-linecap:round;stroke-linejoin:round;stroke-miterlimit:10;stroke-dasharray:none;stroke-opacity:1"
   d="m 83493.239,173206.69 h -1692.59" /><path
   id="path32472"
   style="fill:none;stroke:#000000;stroke-width:136.565;stroke-linecap:round;stroke-linejoin:round;stroke-miterlimit:10;stroke-dasharray:none;stroke-opacity:1"
   d="m 83984.911,171020.87 v 1693.78" /><path
   id="path32474"
   style="fill:none;stroke:#000000;stroke-width:136.565;stroke-linecap:round;stroke-linejoin:round;stroke-miterlimit:10;stroke-dasharray:none;stroke-opacity:1"
   d="m 83984.911,173206.69 v 0" /><path
   id="path32476"
   style="fill:none;stroke:#000000;stroke-width:136.565;stroke-linecap:round;stroke-linejoin:round;stroke-miterlimit:10;stroke-dasharray:none;stroke-opacity:1"
   d="m 83984.911,173698.7 v 1693.79" /><path
   id="path32478"
   style="fill:none;stroke:#000000;stroke-width:136.565;stroke-linecap:round;stroke-linejoin:round;stroke-miterlimit:10;stroke-dasharray:none;stroke-opacity:1"
   d="m 86169.174,137850.55 h -1692.59" /><path
   id="path32480"
   style="fill:none;stroke:#000000;stroke-width:136.565;stroke-linecap:round;stroke-linejoin:round;stroke-miterlimit:10;stroke-dasharray:none;stroke-opacity:1"
   d="m 83984.911,137850.55 v 0" /><path
   id="path32482"
   style="fill:none;stroke:#000000;stroke-width:136.565;stroke-linecap:round;stroke-linejoin:round;stroke-miterlimit:10;stroke-dasharray:none;stroke-opacity:1"
   d="m 83493.239,137850.55 h -1692.59" /><path
   id="path32484"
   style="fill:none;stroke:#000000;stroke-width:136.565;stroke-linecap:round;stroke-linejoin:round;stroke-miterlimit:10;stroke-dasharray:none;stroke-opacity:1"
   d="m 83984.911,135664.75 v 1694.85" /><path
   id="path32486"
   style="fill:none;stroke:#000000;stroke-width:136.565;stroke-linecap:round;stroke-linejoin:round;stroke-miterlimit:10;stroke-dasharray:none;stroke-opacity:1"
   d="m 83984.911,137850.55 v 0" /><path
   id="path32488"
   style="fill:none;stroke:#000000;stroke-width:136.565;stroke-linecap:round;stroke-linejoin:round;stroke-miterlimit:10;stroke-dasharray:none;stroke-opacity:1"
   d="m 83984.911,138342.58 v 1693.79" /><path
   id="path32490"
   style="fill:none;stroke:#000000;stroke-width:136.565;stroke-linecap:round;stroke-linejoin:round;stroke-miterlimit:10;stroke-dasharray:none;stroke-opacity:1"
   d="M 49227.629,173206.69 H 47535.04" /><path
   id="path32492"
   style="fill:none;stroke:#000000;stroke-width:136.565;stroke-linecap:round;stroke-linejoin:round;stroke-miterlimit:10;stroke-dasharray:none;stroke-opacity:1"
   d="m 47043.369,173206.69 v 0" /><path
   id="path32494"
   style="fill:none;stroke:#000000;stroke-width:136.565;stroke-linecap:round;stroke-linejoin:round;stroke-miterlimit:10;stroke-dasharray:none;stroke-opacity:1"
   d="M 46551.696,173206.69 H 44859.107" /><path
   id="path32496"
   style="fill:none;stroke:#000000;stroke-width:136.565;stroke-linecap:round;stroke-linejoin:round;stroke-miterlimit:10;stroke-dasharray:none;stroke-opacity:1"
   d="m 47043.369,171020.87 v 1693.78" /><path
   id="path32498"
   style="fill:none;stroke:#000000;stroke-width:136.565;stroke-linecap:round;stroke-linejoin:round;stroke-miterlimit:10;stroke-dasharray:none;stroke-opacity:1"
   d="m 47043.369,173206.69 v 0" /><path
   id="path32500"
   style="fill:none;stroke:#000000;stroke-width:136.565;stroke-linecap:round;stroke-linejoin:round;stroke-miterlimit:10;stroke-dasharray:none;stroke-opacity:1"
   d="m 47043.369,173698.7 v 1693.79" /><path
   id="path32502"
   style="fill:none;stroke:#000000;stroke-width:136.565;stroke-linecap:round;stroke-linejoin:round;stroke-miterlimit:10;stroke-dasharray:none;stroke-opacity:1"
   d="M 49227.629,137850.55 H 47535.04" /><path
   id="path32504"
   style="fill:none;stroke:#000000;stroke-width:136.565;stroke-linecap:round;stroke-linejoin:round;stroke-miterlimit:10;stroke-dasharray:none;stroke-opacity:1"
   d="m 47043.369,137850.55 v 0" /><path
   id="path32506"
   style="fill:none;stroke:#000000;stroke-width:136.565;stroke-linecap:round;stroke-linejoin:round;stroke-miterlimit:10;stroke-dasharray:none;stroke-opacity:1"
   d="M 46551.696,137850.55 H 44859.107" /><path
   id="path32508"
   style="fill:none;stroke:#000000;stroke-width:136.565;stroke-linecap:round;stroke-linejoin:round;stroke-miterlimit:10;stroke-dasharray:none;stroke-opacity:1"
   d="m 47043.369,135664.75 v 1694.85" /><path
   id="path32510"
   style="fill:none;stroke:#000000;stroke-width:136.565;stroke-linecap:round;stroke-linejoin:round;stroke-miterlimit:10;stroke-dasharray:none;stroke-opacity:1"
   d="m 47043.369,137850.55 v 0" /><path
   id="path32512"
   style="fill:none;stroke:#000000;stroke-width:136.565;stroke-linecap:round;stroke-linejoin:round;stroke-miterlimit:10;stroke-dasharray:none;stroke-opacity:1"
   d="m 47043.369,138342.58 v 1693.79" /><path
   id="path32514"
   style="fill:none;stroke:#000000;stroke-width:136.565;stroke-linecap:round;stroke-linejoin:round;stroke-miterlimit:10;stroke-dasharray:none;stroke-opacity:1"
   d="M 48599.441,162318.18 H 45814.72" /><path
   id="path32516"
   style="fill:none;stroke:#000000;stroke-width:136.565;stroke-linecap:round;stroke-linejoin:round;stroke-miterlimit:10;stroke-dasharray:none;stroke-opacity:1"
   d="m 47207.613,160794.1 v 3049.24" /><path
   id="path32518"
   style="fill:none;stroke:#000000;stroke-width:136.565;stroke-linecap:round;stroke-linejoin:round;stroke-miterlimit:10;stroke-dasharray:none;stroke-opacity:1"
   d="M 48599.441,148739.05 H 45814.72" /><path
   id="path32520"
   style="fill:none;stroke:#000000;stroke-width:136.565;stroke-linecap:round;stroke-linejoin:round;stroke-miterlimit:10;stroke-dasharray:none;stroke-opacity:1"
   d="m 47207.613,147214.95 v 3049.25" />

































</g></svg>
