G04 #@! TF.GenerationSoftware,KiCad,Pcbnew,5.1.9-73d0e3b20d~88~ubuntu20.04.1*
G04 #@! TF.CreationDate,2021-01-20T23:51:47+01:00*
G04 #@! TF.ProjectId,stm32mp1-custom-devboard,73746d33-326d-4703-912d-637573746f6d,V1.0*
G04 #@! TF.SameCoordinates,Original*
G04 #@! TF.FileFunction,Profile,NP*
%FSLAX46Y46*%
G04 Gerber Fmt 4.6, Leading zero omitted, Abs format (unit mm)*
G04 Created by KiCad (PCBNEW 5.1.9-73d0e3b20d~88~ubuntu20.04.1) date 2021-01-20 23:51:47*
%MOMM*%
%LPD*%
G01*
G04 APERTURE LIST*
G04 #@! TA.AperFunction,Profile*
%ADD10C,0.250000*%
G04 #@! TD*
G04 APERTURE END LIST*
D10*
X194940000Y-66410000D02*
X194940000Y-62130000D01*
X213110000Y-62130000D02*
X194940000Y-62130000D01*
X111280000Y-66410000D02*
X111280000Y-62130000D01*
X111280000Y-62130000D02*
X93110000Y-62130000D01*
X93110000Y-142690000D02*
X111280000Y-142690000D01*
X111280000Y-138410000D02*
X111280000Y-142690000D01*
X194940000Y-142740000D02*
X213110000Y-142740000D01*
X194940000Y-138410000D02*
X194940000Y-142740000D01*
X169870000Y-66410000D02*
X194940000Y-66410000D01*
X169870000Y-74030000D02*
X169870000Y-66410000D01*
X169870000Y-74030000D02*
X160470000Y-74030000D01*
X160470000Y-74030000D02*
X160470000Y-66410000D01*
X205660000Y-78220000D02*
X205660000Y-68820000D01*
X205660000Y-68820000D02*
X213110000Y-68820000D01*
X205660000Y-78220000D02*
X213110000Y-78220000D01*
X213110000Y-78220000D02*
X213110000Y-142740000D01*
X111280000Y-138410000D02*
X194940000Y-138410000D01*
X93110000Y-62130000D02*
X93110000Y-142690000D01*
X213110000Y-62130000D02*
X213110000Y-68820000D01*
X111280000Y-66410000D02*
X160470000Y-66410000D01*
M02*
