G04 #@! TF.GenerationSoftware,KiCad,Pcbnew,(5.99.0-10624-g2131a44889)*
G04 #@! TF.CreationDate,2021-05-24T23:42:27+02:00*
G04 #@! TF.ProjectId,stm32mp1-custom-devboard,73746d33-326d-4703-912d-637573746f6d,V1.0*
G04 #@! TF.SameCoordinates,Original*
G04 #@! TF.FileFunction,Soldermask,Top*
G04 #@! TF.FilePolarity,Negative*
%FSLAX46Y46*%
G04 Gerber Fmt 4.6, Leading zero omitted, Abs format (unit mm)*
G04 Created by KiCad (PCBNEW (5.99.0-10624-g2131a44889)) date 2021-05-24 23:42:27*
%MOMM*%
%LPD*%
G01*
G04 APERTURE LIST*
G04 Aperture macros list*
%AMRoundRect*
0 Rectangle with rounded corners*
0 $1 Rounding radius*
0 $2 $3 $4 $5 $6 $7 $8 $9 X,Y pos of 4 corners*
0 Add a 4 corners polygon primitive as box body*
4,1,4,$2,$3,$4,$5,$6,$7,$8,$9,$2,$3,0*
0 Add four circle primitives for the rounded corners*
1,1,$1+$1,$2,$3*
1,1,$1+$1,$4,$5*
1,1,$1+$1,$6,$7*
1,1,$1+$1,$8,$9*
0 Add four rect primitives between the rounded corners*
20,1,$1+$1,$2,$3,$4,$5,0*
20,1,$1+$1,$4,$5,$6,$7,0*
20,1,$1+$1,$6,$7,$8,$9,0*
20,1,$1+$1,$8,$9,$2,$3,0*%
%AMFreePoly0*
4,1,17,0.451423,0.561284,0.465539,0.545877,1.165539,-0.454123,1.179695,-0.506984,1.156561,-0.556576,1.106961,-0.579697,1.100000,-0.580000,-1.100000,-0.580000,-1.151423,-0.561284,-1.178785,-0.513892,-1.169282,-0.460000,-1.165539,-0.454123,-0.465539,0.545877,-0.420716,0.577271,-0.400000,0.580000,0.400000,0.580000,0.451423,0.561284,0.451423,0.561284,$1*%
%AMFreePoly1*
4,1,17,0.551423,0.486284,0.565357,0.471135,1.165357,-0.378865,1.179721,-0.431670,1.156783,-0.481353,1.107275,-0.504669,1.100000,-0.505000,-1.100000,-0.505000,-1.151423,-0.486284,-1.178785,-0.438892,-1.169282,-0.385000,-1.165357,-0.378865,-0.565357,0.471135,-0.520412,0.502352,-0.500000,0.505000,0.500000,0.505000,0.551423,0.486284,0.551423,0.486284,$1*%
G04 Aperture macros list end*
%ADD10RoundRect,0.010000X-0.500000X0.300000X-0.500000X-0.300000X0.500000X-0.300000X0.500000X0.300000X0*%
%ADD11RoundRect,0.010000X0.500000X-0.300000X0.500000X0.300000X-0.500000X0.300000X-0.500000X-0.300000X0*%
%ADD12RoundRect,0.050000X-0.300000X-0.225000X0.300000X-0.225000X0.300000X0.225000X-0.300000X0.225000X0*%
%ADD13O,0.450000X0.950000*%
%ADD14RoundRect,0.050000X0.500000X-0.300000X0.500000X0.300000X-0.500000X0.300000X-0.500000X-0.300000X0*%
%ADD15RoundRect,0.030000X-0.300000X0.200000X-0.300000X-0.200000X0.300000X-0.200000X0.300000X0.200000X0*%
%ADD16RoundRect,0.010000X1.100000X-0.550000X1.100000X0.550000X-1.100000X0.550000X-1.100000X-0.550000X0*%
%ADD17RoundRect,0.010000X1.525000X-0.650000X1.525000X0.650000X-1.525000X0.650000X-1.525000X-0.650000X0*%
%ADD18RoundRect,0.010000X0.400000X-0.150000X0.400000X0.150000X-0.400000X0.150000X-0.400000X-0.150000X0*%
%ADD19RoundRect,0.100000X-0.450000X0.100000X-0.450000X-0.100000X0.450000X-0.100000X0.450000X0.100000X0*%
%ADD20RoundRect,0.525000X-0.525000X0.525000X-0.525000X-0.525000X0.525000X-0.525000X0.525000X0.525000X0*%
%ADD21C,1.700000*%
%ADD22RoundRect,0.060000X2.300000X2.250000X-2.300000X2.250000X-2.300000X-2.250000X2.300000X-2.250000X0*%
%ADD23RoundRect,0.050000X2.300000X2.250000X-2.300000X2.250000X-2.300000X-2.250000X2.300000X-2.250000X0*%
%ADD24RoundRect,0.060000X1.000000X0.175000X-1.000000X0.175000X-1.000000X-0.175000X1.000000X-0.175000X0*%
%ADD25RoundRect,0.010000X-1.700000X1.000000X-1.700000X-1.000000X1.700000X-1.000000X1.700000X1.000000X0*%
%ADD26RoundRect,0.010000X1.000000X1.700000X-1.000000X1.700000X-1.000000X-1.700000X1.000000X-1.700000X0*%
%ADD27RoundRect,0.010000X0.975000X0.825000X-0.975000X0.825000X-0.975000X-0.825000X0.975000X-0.825000X0*%
%ADD28C,0.770000*%
%ADD29O,0.739440X1.440000*%
%ADD30RoundRect,0.010000X-0.650000X-0.425000X0.650000X-0.425000X0.650000X0.425000X-0.650000X0.425000X0*%
%ADD31C,0.700000*%
%ADD32RoundRect,0.040000X-0.225000X-0.300000X0.225000X-0.300000X0.225000X0.300000X-0.225000X0.300000X0*%
%ADD33RoundRect,0.262048X0.825452X1.062952X-0.825452X1.062952X-0.825452X-1.062952X0.825452X-1.062952X0*%
%ADD34RoundRect,0.050000X0.300000X0.500000X-0.300000X0.500000X-0.300000X-0.500000X0.300000X-0.500000X0*%
%ADD35RoundRect,0.050000X1.249680X-1.275080X1.249680X1.275080X-1.249680X1.275080X-1.249680X-1.275080X0*%
%ADD36RoundRect,0.050000X-1.249680X1.275080X-1.249680X-1.275080X1.249680X-1.275080X1.249680X1.275080X0*%
%ADD37RoundRect,0.262048X1.062952X-0.825452X1.062952X0.825452X-1.062952X0.825452X-1.062952X-0.825452X0*%
%ADD38RoundRect,0.050000X-0.300000X-0.500000X0.300000X-0.500000X0.300000X0.500000X-0.300000X0.500000X0*%
%ADD39RoundRect,0.425000X-1.175000X0.425000X-1.175000X-0.425000X1.175000X-0.425000X1.175000X0.425000X0*%
%ADD40RoundRect,0.010000X0.300000X0.500000X-0.300000X0.500000X-0.300000X-0.500000X0.300000X-0.500000X0*%
%ADD41RoundRect,0.010000X-0.300000X-0.500000X0.300000X-0.500000X0.300000X0.500000X-0.300000X0.500000X0*%
%ADD42RoundRect,0.010000X0.698500X-0.444500X0.698500X0.444500X-0.698500X0.444500X-0.698500X-0.444500X0*%
%ADD43RoundRect,0.050000X-0.500000X0.300000X-0.500000X-0.300000X0.500000X-0.300000X0.500000X0.300000X0*%
%ADD44RoundRect,0.030000X0.300000X-0.200000X0.300000X0.200000X-0.300000X0.200000X-0.300000X-0.200000X0*%
%ADD45RoundRect,0.100000X-0.687500X-0.100000X0.687500X-0.100000X0.687500X0.100000X-0.687500X0.100000X0*%
%ADD46RoundRect,0.100000X-0.100000X-0.687500X0.100000X-0.687500X0.100000X0.687500X-0.100000X0.687500X0*%
%ADD47C,1.200000*%
%ADD48C,2.700000*%
%ADD49RoundRect,0.010000X1.150000X1.600000X-1.150000X1.600000X-1.150000X-1.600000X1.150000X-1.600000X0*%
%ADD50RoundRect,0.010000X0.265000X1.000000X-0.265000X1.000000X-0.265000X-1.000000X0.265000X-1.000000X0*%
%ADD51RoundRect,0.050000X1.016000X-0.762000X1.016000X0.762000X-1.016000X0.762000X-1.016000X-0.762000X0*%
%ADD52RoundRect,0.080000X0.350000X0.450000X-0.350000X0.450000X-0.350000X-0.450000X0.350000X-0.450000X0*%
%ADD53RoundRect,0.010000X0.550000X-0.350000X0.550000X0.350000X-0.550000X0.350000X-0.550000X-0.350000X0*%
%ADD54RoundRect,0.080000X-0.350000X-0.450000X0.350000X-0.450000X0.350000X0.450000X-0.350000X0.450000X0*%
%ADD55RoundRect,0.080000X-0.500000X-0.750000X0.500000X-0.750000X0.500000X0.750000X-0.500000X0.750000X0*%
%ADD56RoundRect,0.080000X-0.500000X-0.900000X0.500000X-0.900000X0.500000X0.900000X-0.500000X0.900000X0*%
%ADD57RoundRect,0.080000X-1.100000X-0.920000X1.100000X-0.920000X1.100000X0.920000X-1.100000X0.920000X0*%
%ADD58FreePoly0,180.000000*%
%ADD59FreePoly1,0.000000*%
%ADD60RoundRect,0.100000X-1.200000X0.950000X-1.200000X-0.950000X1.200000X-0.950000X1.200000X0.950000X0*%
%ADD61RoundRect,0.550000X-0.550000X1.300000X-0.550000X-1.300000X0.550000X-1.300000X0.550000X1.300000X0*%
%ADD62RoundRect,0.100000X-1.000000X3.000000X-1.000000X-3.000000X1.000000X-3.000000X1.000000X3.000000X0*%
%ADD63RoundRect,0.550000X-0.550000X2.550000X-0.550000X-2.550000X0.550000X-2.550000X0.550000X2.550000X0*%
%ADD64RoundRect,0.050000X0.762000X1.016000X-0.762000X1.016000X-0.762000X-1.016000X0.762000X-1.016000X0*%
%ADD65RoundRect,0.030000X-0.200000X-0.300000X0.200000X-0.300000X0.200000X0.300000X-0.200000X0.300000X0*%
%ADD66RoundRect,0.030000X0.200000X0.300000X-0.200000X0.300000X-0.200000X-0.300000X0.200000X-0.300000X0*%
%ADD67RoundRect,0.050000X0.317500X0.571500X-0.317500X0.571500X-0.317500X-0.571500X0.317500X-0.571500X0*%
%ADD68RoundRect,0.050000X0.325000X0.125000X-0.325000X0.125000X-0.325000X-0.125000X0.325000X-0.125000X0*%
%ADD69RoundRect,0.050000X-0.125000X0.325000X-0.125000X-0.325000X0.125000X-0.325000X0.125000X0.325000X0*%
%ADD70RoundRect,0.050000X0.500000X0.500000X-0.500000X0.500000X-0.500000X-0.500000X0.500000X-0.500000X0*%
%ADD71RoundRect,0.050000X-0.337500X0.387500X-0.337500X-0.387500X0.337500X-0.387500X0.337500X0.387500X0*%
%ADD72C,3.297860*%
%ADD73C,1.497000*%
%ADD74C,1.629080*%
%ADD75C,2.543480*%
%ADD76RoundRect,0.101600X0.560000X1.440000X-0.560000X1.440000X-0.560000X-1.440000X0.560000X-1.440000X0*%
%ADD77C,3.519200*%
%ADD78C,3.300000*%
%ADD79O,1.827200X1.827200*%
%ADD80RoundRect,0.050000X-1.016000X0.762000X-1.016000X-0.762000X1.016000X-0.762000X1.016000X0.762000X0*%
%ADD81O,0.600000X1.100760*%
%ADD82RoundRect,0.080000X-0.450000X0.350000X-0.450000X-0.350000X0.450000X-0.350000X0.450000X0.350000X0*%
%ADD83C,2.060000*%
%ADD84RoundRect,0.375000X1.425000X-0.375000X1.425000X0.375000X-1.425000X0.375000X-1.425000X-0.375000X0*%
%ADD85RoundRect,0.050000X-0.575000X-0.525000X0.575000X-0.525000X0.575000X0.525000X-0.575000X0.525000X0*%
%ADD86RoundRect,0.050000X-0.150000X0.600000X-0.150000X-0.600000X0.150000X-0.600000X0.150000X0.600000X0*%
%ADD87C,0.750000*%
%ADD88O,1.203200X2.203200*%
%ADD89RoundRect,0.010000X-0.457200X0.457200X-0.457200X-0.457200X0.457200X-0.457200X0.457200X0.457200X0*%
%ADD90C,1.330000*%
%ADD91RoundRect,0.050000X0.600000X0.150000X-0.600000X0.150000X-0.600000X-0.150000X0.600000X-0.150000X0*%
%ADD92O,2.203200X1.203200*%
G04 APERTURE END LIST*
D10*
X181080000Y-74740000D03*
X181080000Y-76140000D03*
D11*
X177330000Y-72480000D03*
X177330000Y-71080000D03*
D12*
X177420000Y-74120000D03*
X179520000Y-74120000D03*
D13*
X180080000Y-69820000D03*
X179430000Y-69820000D03*
X178780000Y-69820000D03*
X178780000Y-72020000D03*
X180080000Y-72020000D03*
D14*
X184370000Y-96640000D03*
X184370000Y-95240000D03*
D15*
X184470000Y-109280000D03*
X184470000Y-110180000D03*
D16*
X186800000Y-117250000D03*
X186800000Y-108550000D03*
D17*
X187225000Y-116050000D03*
X187225000Y-109750000D03*
D18*
X185300000Y-114150000D03*
X185300000Y-113650000D03*
X185300000Y-113150000D03*
X185300000Y-112650000D03*
X185300000Y-112150000D03*
X185300000Y-111650000D03*
D19*
X186180000Y-92660000D03*
X186180000Y-93160000D03*
X186180000Y-93660000D03*
X186180000Y-94160000D03*
X186180000Y-94660000D03*
X186180000Y-95160000D03*
X186180000Y-95660000D03*
X186180000Y-96160000D03*
X186180000Y-96660000D03*
X186180000Y-97160000D03*
X186180000Y-97660000D03*
X186180000Y-98160000D03*
X186180000Y-98660000D03*
X186180000Y-99160000D03*
X186180000Y-99660000D03*
X186180000Y-100160000D03*
X186180000Y-100660000D03*
X186180000Y-101160000D03*
X186180000Y-101660000D03*
X186180000Y-102160000D03*
X186180000Y-102660000D03*
X186180000Y-103160000D03*
X186180000Y-103660000D03*
X186180000Y-104160000D03*
D20*
X188840000Y-106200000D03*
X188840000Y-90600000D03*
D21*
X124800000Y-135700000D03*
X124800000Y-68900000D03*
D22*
X112800000Y-134850000D03*
D23*
X112800000Y-69740000D03*
D24*
X128900000Y-133950000D03*
X120700000Y-133650000D03*
X128900000Y-133350000D03*
X120700000Y-133050000D03*
X128900000Y-132750000D03*
X120700000Y-132450000D03*
X128900000Y-132150000D03*
X120700000Y-131850000D03*
X128900000Y-131550000D03*
X120700000Y-131250000D03*
X128900000Y-130950000D03*
X120700000Y-130650000D03*
X128900000Y-130350000D03*
X120700000Y-130050000D03*
X128900000Y-129750000D03*
X120700000Y-129450000D03*
X128900000Y-129150000D03*
X120700000Y-128850000D03*
X128900000Y-128550000D03*
X120700000Y-128250000D03*
X128900000Y-127950000D03*
X120700000Y-127650000D03*
X128900000Y-127350000D03*
X120700000Y-127050000D03*
X128900000Y-126750000D03*
X120700000Y-126450000D03*
X128900000Y-126150000D03*
X120700000Y-125850000D03*
X128900000Y-125550000D03*
X120700000Y-125250000D03*
X128900000Y-124950000D03*
X120700000Y-124650000D03*
X128900000Y-124350000D03*
X120700000Y-124050000D03*
X128900000Y-123750000D03*
X120700000Y-123450000D03*
X128900000Y-123150000D03*
X120700000Y-122850000D03*
X128900000Y-122550000D03*
X120700000Y-122250000D03*
X128900000Y-118350000D03*
X120700000Y-118050000D03*
X128900000Y-117750000D03*
X120700000Y-117450000D03*
X128900000Y-117150000D03*
X120700000Y-116850000D03*
X128900000Y-116550000D03*
X120700000Y-116250000D03*
X128900000Y-115950000D03*
X120700000Y-115650000D03*
X128900000Y-115350000D03*
X120700000Y-115050000D03*
X128900000Y-114750000D03*
X120700000Y-114450000D03*
X128900000Y-114150000D03*
X120700000Y-113850000D03*
X128900000Y-113550000D03*
X120700000Y-113250000D03*
X128900000Y-112950000D03*
X120700000Y-112650000D03*
X128900000Y-112350000D03*
X120700000Y-112050000D03*
X128900000Y-111750000D03*
X120700000Y-111450000D03*
X128900000Y-111150000D03*
X120700000Y-110850000D03*
X128900000Y-110550000D03*
X120700000Y-110250000D03*
X128900000Y-109950000D03*
X120700000Y-109650000D03*
X128900000Y-109350000D03*
X120700000Y-109050000D03*
X128900000Y-108750000D03*
X120700000Y-108450000D03*
X128900000Y-108150000D03*
X120700000Y-107850000D03*
X128900000Y-107550000D03*
X120700000Y-107250000D03*
X128900000Y-106950000D03*
X120700000Y-106650000D03*
X128900000Y-106350000D03*
X120700000Y-106050000D03*
X128900000Y-105750000D03*
X120700000Y-105450000D03*
X128900000Y-105150000D03*
X120700000Y-104850000D03*
X128900000Y-104550000D03*
X120700000Y-104250000D03*
X128900000Y-103950000D03*
X120700000Y-103650000D03*
X128900000Y-103350000D03*
X120700000Y-103050000D03*
X128900000Y-102750000D03*
X120700000Y-102450000D03*
X128900000Y-102150000D03*
X120700000Y-101850000D03*
X128900000Y-101550000D03*
X120700000Y-101250000D03*
X128900000Y-100950000D03*
X120700000Y-100650000D03*
X128900000Y-100350000D03*
X120700000Y-100050000D03*
X128900000Y-99750000D03*
X120700000Y-99450000D03*
X128900000Y-99150000D03*
X120700000Y-98850000D03*
X128900000Y-98550000D03*
X120700000Y-98250000D03*
X128900000Y-97950000D03*
X120700000Y-97650000D03*
X128900000Y-97350000D03*
X120700000Y-97050000D03*
X128900000Y-96750000D03*
X120700000Y-96450000D03*
X128900000Y-96150000D03*
X120700000Y-95850000D03*
X128900000Y-95550000D03*
X120700000Y-95250000D03*
X128900000Y-94950000D03*
X120700000Y-94650000D03*
X128900000Y-94350000D03*
X120700000Y-94050000D03*
X128900000Y-93750000D03*
X120700000Y-93450000D03*
X128900000Y-93150000D03*
X120700000Y-92850000D03*
X128900000Y-92550000D03*
X120700000Y-92250000D03*
X128900000Y-91950000D03*
X120700000Y-91650000D03*
X128900000Y-91350000D03*
X120700000Y-91050000D03*
X128900000Y-90750000D03*
X120700000Y-90450000D03*
X128900000Y-90150000D03*
X120700000Y-89850000D03*
X128900000Y-89550000D03*
X120700000Y-89250000D03*
X128900000Y-88950000D03*
X120700000Y-88650000D03*
X128900000Y-88350000D03*
X120700000Y-88050000D03*
X128900000Y-87750000D03*
X120700000Y-87450000D03*
X128900000Y-87150000D03*
X120700000Y-86850000D03*
X128900000Y-86550000D03*
X120700000Y-86250000D03*
X128900000Y-85950000D03*
X120700000Y-85650000D03*
X128900000Y-85350000D03*
X120700000Y-85050000D03*
X128900000Y-84750000D03*
X120700000Y-84450000D03*
X128900000Y-84150000D03*
X120700000Y-83850000D03*
X128900000Y-83550000D03*
X120700000Y-83250000D03*
X128900000Y-82950000D03*
X120700000Y-82650000D03*
X128900000Y-82350000D03*
X120700000Y-82050000D03*
X128900000Y-81750000D03*
X120700000Y-81450000D03*
X128900000Y-81150000D03*
X120700000Y-80850000D03*
X128900000Y-80550000D03*
X120700000Y-80250000D03*
X128900000Y-79950000D03*
X120700000Y-79650000D03*
X128900000Y-79350000D03*
X120700000Y-79050000D03*
X128900000Y-78750000D03*
X120700000Y-78450000D03*
X128900000Y-78150000D03*
X120700000Y-77850000D03*
X128900000Y-77550000D03*
X120700000Y-77250000D03*
X128900000Y-76950000D03*
X120700000Y-76650000D03*
X128900000Y-76350000D03*
X120700000Y-76050000D03*
X128900000Y-75750000D03*
X120700000Y-75450000D03*
X128900000Y-75150000D03*
X120700000Y-74850000D03*
X128900000Y-74550000D03*
X120700000Y-74250000D03*
X128900000Y-73950000D03*
X120700000Y-73650000D03*
X128900000Y-73350000D03*
X120700000Y-73050000D03*
X128900000Y-72750000D03*
X120700000Y-72450000D03*
X128900000Y-72150000D03*
X120700000Y-71850000D03*
X128900000Y-71550000D03*
X120700000Y-71250000D03*
X128900000Y-70950000D03*
X120700000Y-70650000D03*
D25*
X138850000Y-110360000D03*
X138850000Y-115060000D03*
D26*
X145100000Y-129850000D03*
X140400000Y-129850000D03*
D27*
X142120000Y-104670000D03*
D28*
X142220000Y-102910000D03*
D27*
X142120000Y-103160000D03*
D28*
X140220000Y-104910000D03*
D27*
X140260000Y-104670000D03*
D28*
X141220000Y-102910000D03*
X140220000Y-102910000D03*
X141220000Y-104910000D03*
D27*
X140260000Y-103160000D03*
D28*
X142220000Y-104910000D03*
D29*
X143125000Y-100910260D03*
X141855000Y-100910260D03*
X140585000Y-100910260D03*
X139315000Y-100910260D03*
X139315000Y-106909740D03*
X140585000Y-106909740D03*
X141855000Y-106909740D03*
X143125000Y-106909740D03*
D30*
X145400000Y-123695000D03*
X146700000Y-124545000D03*
X145400000Y-124545000D03*
X146700000Y-123695000D03*
D31*
X145200000Y-123670000D03*
X146900000Y-123670000D03*
X146050000Y-123670000D03*
X146900000Y-124570000D03*
X146050000Y-124570000D03*
X145200000Y-124570000D03*
D32*
X145100000Y-125500000D03*
X146050000Y-125500000D03*
X147000000Y-125500000D03*
X147000000Y-122740000D03*
X146050000Y-122740000D03*
X145100000Y-122740000D03*
D33*
X146402500Y-85900000D03*
X140177500Y-85900000D03*
D34*
X139900000Y-98900000D03*
X138500000Y-98900000D03*
X137360000Y-98640000D03*
X135960000Y-98640000D03*
D35*
X146490000Y-98015240D03*
X146490000Y-103064760D03*
D36*
X146490000Y-111104760D03*
X146490000Y-106055240D03*
D34*
X143650000Y-122460000D03*
X142250000Y-122460000D03*
D37*
X145060000Y-120272500D03*
X145060000Y-114047500D03*
D14*
X137520000Y-104640000D03*
X137520000Y-103240000D03*
D37*
X138340000Y-124902500D03*
X138340000Y-118677500D03*
X137090000Y-96452500D03*
X137090000Y-90227500D03*
X141950000Y-96442500D03*
X141950000Y-90217500D03*
D38*
X136170000Y-100380000D03*
X137570000Y-100380000D03*
X136170000Y-101830000D03*
X137570000Y-101830000D03*
D39*
X146500000Y-90140000D03*
X146500000Y-95140000D03*
D40*
X143280000Y-99220000D03*
X141880000Y-99220000D03*
D41*
X142260000Y-125270000D03*
X143660000Y-125270000D03*
D40*
X143650000Y-123870000D03*
X142250000Y-123870000D03*
D11*
X136040000Y-104630000D03*
X136040000Y-103230000D03*
D10*
X136030000Y-105780000D03*
X136030000Y-107180000D03*
D40*
X189270000Y-118860000D03*
X187870000Y-118860000D03*
D11*
X185450000Y-107200000D03*
X185450000Y-105800000D03*
D42*
X199400000Y-87332500D03*
X199400000Y-85427500D03*
D34*
X197530000Y-87250000D03*
X196130000Y-87250000D03*
X190190000Y-76330000D03*
X188790000Y-76330000D03*
D14*
X190850000Y-74950000D03*
X190850000Y-73550000D03*
D43*
X200690000Y-77740000D03*
X200690000Y-79140000D03*
D44*
X188830000Y-82310000D03*
X188830000Y-81410000D03*
D45*
X190407500Y-78340000D03*
X190407500Y-78840000D03*
X190407500Y-79340000D03*
X190407500Y-79840000D03*
X190407500Y-80340000D03*
X190407500Y-80840000D03*
X190407500Y-81340000D03*
X190407500Y-81840000D03*
X190407500Y-82340000D03*
X190407500Y-82840000D03*
X190407500Y-83340000D03*
X190407500Y-83840000D03*
D46*
X191820000Y-85252500D03*
X192320000Y-85252500D03*
X192820000Y-85252500D03*
X193320000Y-85252500D03*
X193820000Y-85252500D03*
X194320000Y-85252500D03*
X194820000Y-85252500D03*
X195320000Y-85252500D03*
X195820000Y-85252500D03*
X196320000Y-85252500D03*
X196820000Y-85252500D03*
X197320000Y-85252500D03*
D45*
X198732500Y-83840000D03*
X198732500Y-83340000D03*
X198732500Y-82840000D03*
X198732500Y-82340000D03*
X198732500Y-81840000D03*
X198732500Y-81340000D03*
X198732500Y-80840000D03*
X198732500Y-80340000D03*
X198732500Y-79840000D03*
X198732500Y-79340000D03*
X198732500Y-78840000D03*
X198732500Y-78340000D03*
D46*
X197320000Y-76927500D03*
X196820000Y-76927500D03*
X196320000Y-76927500D03*
X195820000Y-76927500D03*
X195320000Y-76927500D03*
X194820000Y-76927500D03*
X194320000Y-76927500D03*
X193820000Y-76927500D03*
X193320000Y-76927500D03*
X192820000Y-76927500D03*
X192320000Y-76927500D03*
X191820000Y-76927500D03*
D21*
X176530000Y-87210000D03*
D47*
X151530000Y-87210000D03*
D48*
X151930000Y-135260000D03*
X176130000Y-135260000D03*
D49*
X178680000Y-83710000D03*
X149380000Y-83710000D03*
D50*
X175830000Y-83110000D03*
X175430000Y-91310000D03*
X175030000Y-83110000D03*
X174630000Y-91310000D03*
X174230000Y-83110000D03*
X173830000Y-91310000D03*
X173430000Y-83110000D03*
X173030000Y-91310000D03*
X172630000Y-83110000D03*
X172230000Y-91310000D03*
X171830000Y-83110000D03*
X171430000Y-91310000D03*
X171030000Y-83110000D03*
X170630000Y-91310000D03*
X170230000Y-83110000D03*
X169830000Y-91310000D03*
X166230000Y-83110000D03*
X165830000Y-91310000D03*
X165430000Y-83110000D03*
X165030000Y-91310000D03*
X164630000Y-83110000D03*
X164230000Y-91310000D03*
X163830000Y-83110000D03*
X163430000Y-91310000D03*
X163030000Y-83110000D03*
X162630000Y-91310000D03*
X162230000Y-83110000D03*
X161830000Y-91310000D03*
X161430000Y-83110000D03*
X161030000Y-91310000D03*
X160630000Y-83110000D03*
X160230000Y-91310000D03*
X159830000Y-83110000D03*
X159430000Y-91310000D03*
X159030000Y-83110000D03*
X158630000Y-91310000D03*
X158230000Y-83110000D03*
X157830000Y-91310000D03*
X157430000Y-83110000D03*
X157030000Y-91310000D03*
X156630000Y-83110000D03*
X156230000Y-91310000D03*
X155830000Y-83110000D03*
X155430000Y-91310000D03*
X155030000Y-83110000D03*
X154630000Y-91310000D03*
X154230000Y-83110000D03*
X153830000Y-91310000D03*
X153430000Y-83110000D03*
X153030000Y-91310000D03*
X152630000Y-83110000D03*
X152230000Y-91310000D03*
D51*
X209660000Y-81441000D03*
X209660000Y-78139000D03*
D14*
X187300000Y-74950000D03*
X187300000Y-73550000D03*
D38*
X192200000Y-73440000D03*
X193600000Y-73440000D03*
D42*
X195960000Y-73252500D03*
X195960000Y-71347500D03*
D41*
X182080000Y-78370000D03*
X183480000Y-78370000D03*
D40*
X187140000Y-84890000D03*
X185740000Y-84890000D03*
D52*
X192270000Y-72160000D03*
X194170000Y-72160000D03*
X193220000Y-70160000D03*
D53*
X205010000Y-82460000D03*
X205010000Y-79560000D03*
X206410000Y-82460000D03*
X206410000Y-79560000D03*
D54*
X200540000Y-68540000D03*
X198640000Y-68540000D03*
X199590000Y-70540000D03*
D10*
X188740000Y-73550000D03*
X188740000Y-74950000D03*
D40*
X201450000Y-66670000D03*
X200050000Y-66670000D03*
D11*
X195810000Y-69830000D03*
X195810000Y-68430000D03*
D41*
X199080000Y-74090000D03*
X200480000Y-74090000D03*
D40*
X200490000Y-72690000D03*
X199090000Y-72690000D03*
D10*
X197220000Y-68430000D03*
X197220000Y-69830000D03*
D41*
X199580000Y-75690000D03*
X200980000Y-75690000D03*
D40*
X203460000Y-79710000D03*
X202060000Y-79710000D03*
D41*
X202050000Y-81100000D03*
X203450000Y-81100000D03*
D40*
X190000000Y-85660000D03*
X188600000Y-85660000D03*
D10*
X187260000Y-86160000D03*
X187260000Y-87560000D03*
D40*
X189990000Y-87060000D03*
X188590000Y-87060000D03*
D41*
X192210000Y-74860000D03*
X193610000Y-74860000D03*
D40*
X192680000Y-87060000D03*
X191280000Y-87060000D03*
D10*
X201450000Y-82550000D03*
X201450000Y-83950000D03*
D40*
X197700000Y-74590000D03*
X196300000Y-74590000D03*
D55*
X186750000Y-71790000D03*
D56*
X188250000Y-71643500D03*
D57*
X188250000Y-68976500D03*
D58*
X188250000Y-70386200D03*
D59*
X188250000Y-67643000D03*
D55*
X189750000Y-71790000D03*
D60*
X186470000Y-78490000D03*
X186470000Y-82589999D03*
D61*
X155630000Y-74840000D03*
D62*
X155630000Y-65590000D03*
D63*
X151630000Y-65590000D03*
D61*
X151630000Y-74840000D03*
D64*
X193501000Y-136220000D03*
X190199000Y-136220000D03*
D65*
X192440000Y-133000000D03*
X193340000Y-133000000D03*
D15*
X193880000Y-131190000D03*
X193880000Y-132090000D03*
D66*
X190830000Y-134440000D03*
X189930000Y-134440000D03*
D44*
X188420000Y-125230000D03*
X188420000Y-124330000D03*
D51*
X186650000Y-124471000D03*
X186650000Y-121169000D03*
D15*
X189520000Y-123660000D03*
X189520000Y-124560000D03*
D44*
X194680000Y-124110000D03*
X194680000Y-123210000D03*
D15*
X194630000Y-132950000D03*
X194630000Y-133850000D03*
X197560000Y-118690000D03*
X197560000Y-119590000D03*
X198580000Y-118700000D03*
X198580000Y-119600000D03*
D67*
X187182000Y-126360000D03*
X185658000Y-126360000D03*
D41*
X182480000Y-137130000D03*
X183880000Y-137130000D03*
X179880000Y-136130000D03*
X181280000Y-136130000D03*
D11*
X184900000Y-132910000D03*
X184900000Y-131510000D03*
D10*
X192820000Y-120580000D03*
X192820000Y-121980000D03*
X191410000Y-120580000D03*
X191410000Y-121980000D03*
D66*
X185860000Y-129930000D03*
X184960000Y-129930000D03*
D10*
X190010000Y-120580000D03*
X190010000Y-121980000D03*
X188620000Y-120570000D03*
X188620000Y-121970000D03*
D66*
X185890000Y-128240000D03*
X184990000Y-128240000D03*
D11*
X194860000Y-119410000D03*
X194860000Y-118010000D03*
D10*
X196270000Y-118020000D03*
X196270000Y-119420000D03*
X193710000Y-125070000D03*
X193710000Y-126470000D03*
D40*
X193180000Y-134200000D03*
X191780000Y-134200000D03*
D44*
X191760000Y-126630000D03*
X191760000Y-125730000D03*
D41*
X204850000Y-117940000D03*
X206250000Y-117940000D03*
X200470000Y-117940000D03*
X201870000Y-117940000D03*
D10*
X203130000Y-116700000D03*
X203130000Y-118100000D03*
D11*
X207540000Y-118140000D03*
X207540000Y-116740000D03*
D40*
X205480000Y-119400000D03*
X204080000Y-119400000D03*
X209890000Y-119400000D03*
X208490000Y-119400000D03*
D65*
X193880000Y-129440000D03*
X194780000Y-129440000D03*
D44*
X193530000Y-128290000D03*
X193530000Y-127390000D03*
D65*
X193890000Y-130370000D03*
X194790000Y-130370000D03*
D44*
X194470000Y-128290000D03*
X194470000Y-127390000D03*
D68*
X192290000Y-131800000D03*
X192290000Y-131300000D03*
X192290000Y-130800000D03*
X192290000Y-130300000D03*
X192290000Y-129800000D03*
X192290000Y-129300000D03*
X192290000Y-128800000D03*
X192290000Y-128300000D03*
D69*
X191540000Y-127550000D03*
X191040000Y-127550000D03*
X190540000Y-127550000D03*
X190040000Y-127550000D03*
X189540000Y-127550000D03*
X189040000Y-127550000D03*
X188540000Y-127550000D03*
X188040000Y-127550000D03*
D68*
X187290000Y-128300000D03*
X187290000Y-128800000D03*
X187290000Y-129300000D03*
X187290000Y-129800000D03*
X187290000Y-130300000D03*
X187290000Y-130800000D03*
X187290000Y-131300000D03*
X187290000Y-131800000D03*
D69*
X188030000Y-132550000D03*
X188540000Y-132550000D03*
X189040000Y-132550000D03*
X189540000Y-132550000D03*
X190040000Y-132550000D03*
X190540000Y-132550000D03*
X191040000Y-132550000D03*
X191540000Y-132550000D03*
D70*
X190790000Y-131050000D03*
X189790000Y-129050000D03*
X190790000Y-129050000D03*
X188790000Y-131050000D03*
X188790000Y-130050000D03*
X189790000Y-130050000D03*
X190790000Y-130050000D03*
X188790000Y-129050000D03*
X189790000Y-131050000D03*
D71*
X190530000Y-123462500D03*
X190530000Y-124737500D03*
X191510000Y-124737500D03*
X191510000Y-123462500D03*
D72*
X205870000Y-127425000D03*
X205870000Y-138855000D03*
D73*
X199520000Y-137579920D03*
X196980000Y-136317540D03*
X199520000Y-135039920D03*
X196980000Y-133777540D03*
X199520000Y-132502460D03*
X196980000Y-131240080D03*
X199520000Y-129962460D03*
X196980000Y-128700080D03*
D74*
X209979720Y-139464600D03*
X209979720Y-136924600D03*
X209979720Y-129355400D03*
X209979720Y-126815400D03*
D75*
X201971100Y-141087660D03*
X201971100Y-125192340D03*
D76*
X143730000Y-75120000D03*
X141230000Y-75120000D03*
X139230000Y-75120000D03*
X136730000Y-75120000D03*
D77*
X146800000Y-71450000D03*
X133660000Y-71450000D03*
D78*
X138797500Y-135265000D03*
X166737500Y-135265000D03*
X181977500Y-84465000D03*
X133717500Y-83195000D03*
D79*
X133717500Y-104785000D03*
X133717500Y-107325000D03*
X161657500Y-135392000D03*
X133717500Y-120025000D03*
X133717500Y-122565000D03*
X133717500Y-125105000D03*
X133717500Y-127645000D03*
X133717500Y-130185000D03*
X133717500Y-132725000D03*
X181977500Y-93101000D03*
X133717500Y-97165000D03*
X181977500Y-132725000D03*
X181977500Y-130185000D03*
X181977500Y-127645000D03*
X181977500Y-125105000D03*
X181977500Y-122565000D03*
X181977500Y-120025000D03*
X181977500Y-117485000D03*
X181977500Y-114945000D03*
X181977500Y-110881000D03*
X181977500Y-108341000D03*
X181977500Y-105801000D03*
X181977500Y-103261000D03*
X181977500Y-100721000D03*
X181977500Y-98181000D03*
X181977500Y-95641000D03*
X133717500Y-109865000D03*
X133717500Y-112405000D03*
X156577500Y-135392000D03*
X133717500Y-99705000D03*
X161657500Y-132852000D03*
X159117500Y-135392000D03*
X133717500Y-102245000D03*
X156577500Y-132852000D03*
X159117500Y-132852000D03*
X181977500Y-88021000D03*
X181977500Y-90561000D03*
X133717500Y-114945000D03*
D43*
X184280000Y-117060000D03*
X184280000Y-118460000D03*
D14*
X194030000Y-68960000D03*
X194030000Y-67560000D03*
D11*
X168380000Y-76890000D03*
X168380000Y-75490000D03*
D80*
X148020000Y-64399000D03*
X148020000Y-67701000D03*
D43*
X160200000Y-75530000D03*
X160200000Y-76930000D03*
D10*
X142470000Y-79250000D03*
X142470000Y-80650000D03*
D43*
X137980000Y-79220000D03*
X137980000Y-80620000D03*
D51*
X170700000Y-73611000D03*
X170700000Y-70309000D03*
D10*
X131920000Y-108440000D03*
X131920000Y-109840000D03*
X131990000Y-104950000D03*
X131990000Y-106350000D03*
D14*
X137680000Y-108370000D03*
X137680000Y-106970000D03*
X131980000Y-103820000D03*
X131980000Y-102420000D03*
D81*
X162820000Y-78290000D03*
X163770000Y-78290000D03*
X164720000Y-78290000D03*
X164720000Y-75890000D03*
X163770000Y-75890000D03*
X162820000Y-75890000D03*
X139300000Y-81130000D03*
X140250000Y-81130000D03*
X141200000Y-81130000D03*
X141200000Y-78730000D03*
X140250000Y-78730000D03*
X139300000Y-78730000D03*
D34*
X146630000Y-82380000D03*
X145230000Y-82380000D03*
D11*
X167000000Y-76890000D03*
X167000000Y-75490000D03*
D43*
X118200000Y-133140000D03*
X118200000Y-134540000D03*
X116560000Y-132480000D03*
X116560000Y-133880000D03*
D11*
X131330000Y-129370000D03*
X131330000Y-127970000D03*
X131340000Y-126860000D03*
X131340000Y-125460000D03*
X131330000Y-134430000D03*
X131330000Y-133030000D03*
X131330000Y-131920000D03*
X131330000Y-130520000D03*
D41*
X114250000Y-131030000D03*
X115650000Y-131030000D03*
D11*
X117850000Y-130910000D03*
X117850000Y-129510000D03*
D82*
X134140000Y-136920000D03*
X134140000Y-135020000D03*
X132140000Y-135970000D03*
D34*
X136940000Y-132550000D03*
X135540000Y-132550000D03*
D83*
X210370000Y-64270000D03*
D40*
X99140000Y-63720000D03*
X97740000Y-63720000D03*
D10*
X178780000Y-79460000D03*
X178780000Y-80860000D03*
D41*
X157450000Y-80400000D03*
X158850000Y-80400000D03*
X95140000Y-141155001D03*
X96540000Y-141155001D03*
D40*
X99990000Y-141155001D03*
X98590000Y-141155001D03*
D41*
X95090000Y-63720000D03*
X96490000Y-63720000D03*
D84*
X182900000Y-72050000D03*
X182900000Y-69950000D03*
D41*
X111280000Y-129490000D03*
X112680000Y-129490000D03*
D83*
X197530000Y-64270000D03*
X202160000Y-64270000D03*
X206450000Y-64270000D03*
D43*
X185910000Y-73550000D03*
X185910000Y-74950000D03*
D10*
X188340000Y-136240000D03*
X188340000Y-137640000D03*
D85*
X143295000Y-139345000D03*
X143295000Y-140795000D03*
X146645000Y-139345000D03*
X146645000Y-140795000D03*
D41*
X122610000Y-64380000D03*
X124010000Y-64380000D03*
D86*
X166520000Y-72750000D03*
X166020000Y-72750000D03*
X165520000Y-72750000D03*
X165020000Y-72750000D03*
X164520000Y-72750000D03*
X164020000Y-72750000D03*
X163520000Y-72750000D03*
X163020000Y-72750000D03*
X162520000Y-72750000D03*
X162020000Y-72750000D03*
X161520000Y-72750000D03*
X161020000Y-72750000D03*
D87*
X160970000Y-71500000D03*
X161370000Y-70800000D03*
X162170000Y-70800000D03*
X162570000Y-71500000D03*
X162970000Y-70800000D03*
X163370000Y-71500000D03*
X164170000Y-71500000D03*
X164570000Y-70800000D03*
X164970000Y-71500000D03*
X165370000Y-70800000D03*
X166170000Y-70800000D03*
X166570000Y-71500000D03*
X161770000Y-71500000D03*
X165770000Y-71500000D03*
D88*
X168040000Y-70350000D03*
X159500000Y-70350000D03*
X159500000Y-65620000D03*
X168040000Y-65620000D03*
D89*
X184656000Y-76309000D03*
X184656000Y-74531000D03*
X182624000Y-75420000D03*
D10*
X177780000Y-76550000D03*
X177780000Y-77950000D03*
D41*
X178500000Y-68140000D03*
X179900000Y-68140000D03*
D10*
X176380000Y-76550000D03*
X176380000Y-77950000D03*
X186900000Y-136240000D03*
X186900000Y-137640000D03*
D40*
X126760000Y-64380000D03*
X125360000Y-64380000D03*
D90*
X175950000Y-69680000D03*
D85*
X137505000Y-139345000D03*
X137505000Y-140795000D03*
X140855000Y-139345000D03*
X140855000Y-140795000D03*
D40*
X143040000Y-137680000D03*
X141640000Y-137680000D03*
D91*
X202539992Y-74459991D03*
X202539992Y-73959991D03*
X202539992Y-73459991D03*
X202539992Y-72959991D03*
X202539992Y-72459991D03*
X202539992Y-71959991D03*
X202539992Y-71459991D03*
X202539992Y-70959991D03*
X202539992Y-70459991D03*
X202539992Y-69959991D03*
X202539992Y-69459991D03*
X202539992Y-68959991D03*
D87*
X203789992Y-68909991D03*
X204489992Y-69309991D03*
X204489992Y-70109991D03*
X203789992Y-70509991D03*
X204489992Y-70909991D03*
X203789992Y-71309991D03*
X203789992Y-72109991D03*
X204489992Y-72509991D03*
X203789992Y-72909991D03*
X204489992Y-73309991D03*
X204489992Y-74109991D03*
X203789992Y-74509991D03*
X203789992Y-69709991D03*
X203789992Y-73709991D03*
D92*
X204939992Y-75979991D03*
X204939992Y-67439991D03*
X209669992Y-67439991D03*
X209669992Y-75979991D03*
D11*
X185470000Y-137640000D03*
X185470000Y-136240000D03*
D14*
X191750000Y-69270000D03*
X191750000Y-67870000D03*
D40*
X122970000Y-140930000D03*
X121570000Y-140930000D03*
D41*
X145260000Y-137680000D03*
X146660000Y-137680000D03*
X118660000Y-140930000D03*
X120060000Y-140930000D03*
M02*
