G04 #@! TF.GenerationSoftware,KiCad,Pcbnew,5.1.9-73d0e3b20d~88~ubuntu20.04.1*
G04 #@! TF.CreationDate,2021-01-23T10:02:57+01:00*
G04 #@! TF.ProjectId,stm32mp1-custom-devboard,73746d33-326d-4703-912d-637573746f6d,V1.0*
G04 #@! TF.SameCoordinates,Original*
G04 #@! TF.FileFunction,Paste,Top*
G04 #@! TF.FilePolarity,Positive*
%FSLAX46Y46*%
G04 Gerber Fmt 4.6, Leading zero omitted, Abs format (unit mm)*
G04 Created by KiCad (PCBNEW 5.1.9-73d0e3b20d~88~ubuntu20.04.1) date 2021-01-23 10:02:57*
%MOMM*%
%LPD*%
G01*
G04 APERTURE LIST*
%ADD10R,0.940800X2.419200*%
%ADD11C,2.052524*%
%ADD12C,1.284428*%
%ADD13C,1.173480*%
%ADD14R,0.720000X0.384000*%
%ADD15R,0.504000X0.378000*%
%ADD16R,0.384000X0.720000*%
%ADD17O,0.294000X0.714000*%
%ADD18R,0.768096X0.768096*%
%ADD19R,0.444000X0.276000*%
%ADD20R,0.592000X0.172000*%
%ADD21R,2.402000X0.932000*%
%ADD22R,1.688000X0.764000*%
%ADD23R,3.864000X3.780000*%
%ADD24R,1.680000X0.294000*%
%ADD25R,2.856000X1.680000*%
%ADD26R,1.680000X2.856000*%
%ADD27O,0.503530X1.092000*%
%ADD28R,1.438000X1.186000*%
%ADD29R,0.892000X0.514000*%
%ADD30R,0.298000X0.424000*%
%ADD31R,2.099462X2.142134*%
%ADD32R,0.973480X0.546760*%
%ADD33R,1.732000X2.488000*%
%ADD34R,0.305200X1.540000*%
%ADD35R,1.080160X1.506880*%
%ADD36R,0.574000X0.287000*%
%ADD37O,0.544068X1.090270*%
%ADD38C,0.546000*%
%ADD39O,1.679144X0.838504*%
%ADD40R,0.448000X0.616000*%
%ADD41R,0.724000X0.388000*%
%ADD42R,0.468000X0.636000*%
%ADD43C,0.100000*%
%ADD44R,0.640000X1.060000*%
%ADD45R,0.640000X1.312000*%
%ADD46R,1.448000X1.145600*%
%ADD47R,1.816000X1.396000*%
%ADD48R,1.680000X5.040000*%
%ADD49R,1.280160X1.706880*%
%ADD50R,0.256000X0.424000*%
%ADD51R,0.424000X0.256000*%
%ADD52R,1.706880X1.280160*%
%ADD53R,0.533400X0.960120*%
%ADD54R,0.546000X0.210000*%
%ADD55R,0.210000X0.546000*%
%ADD56R,0.567000X0.651000*%
%ADD57R,0.287000X0.574000*%
%ADD58O,1.090270X0.544068*%
%ADD59O,0.838504X1.679144*%
%ADD60R,1.506880X1.080160*%
%ADD61O,0.420000X0.840638*%
%ADD62R,0.756000X0.588000*%
%ADD63R,0.404000X0.740000*%
G04 APERTURE END LIST*
D10*
X139250000Y-80760000D03*
X141250000Y-80760000D03*
X136750000Y-80760000D03*
X143750000Y-80760000D03*
D11*
X201971100Y-125192340D03*
X201971100Y-141087660D03*
D12*
X209979720Y-126815400D03*
X209979720Y-129355400D03*
X209979720Y-136924600D03*
X209979720Y-139464600D03*
D13*
X196980000Y-128700080D03*
X199520000Y-129962460D03*
X196980000Y-131240080D03*
X199520000Y-132502460D03*
X196980000Y-133777540D03*
X199520000Y-135039920D03*
X196980000Y-136317540D03*
X199520000Y-137579920D03*
G36*
G01*
X191694000Y-77484000D02*
X191694000Y-76371000D01*
G75*
G02*
X191757000Y-76308000I63000J0D01*
G01*
X191883000Y-76308000D01*
G75*
G02*
X191946000Y-76371000I0J-63000D01*
G01*
X191946000Y-77484000D01*
G75*
G02*
X191883000Y-77547000I-63000J0D01*
G01*
X191757000Y-77547000D01*
G75*
G02*
X191694000Y-77484000I0J63000D01*
G01*
G37*
G36*
G01*
X192194000Y-77484000D02*
X192194000Y-76371000D01*
G75*
G02*
X192257000Y-76308000I63000J0D01*
G01*
X192383000Y-76308000D01*
G75*
G02*
X192446000Y-76371000I0J-63000D01*
G01*
X192446000Y-77484000D01*
G75*
G02*
X192383000Y-77547000I-63000J0D01*
G01*
X192257000Y-77547000D01*
G75*
G02*
X192194000Y-77484000I0J63000D01*
G01*
G37*
G36*
G01*
X192694000Y-77484000D02*
X192694000Y-76371000D01*
G75*
G02*
X192757000Y-76308000I63000J0D01*
G01*
X192883000Y-76308000D01*
G75*
G02*
X192946000Y-76371000I0J-63000D01*
G01*
X192946000Y-77484000D01*
G75*
G02*
X192883000Y-77547000I-63000J0D01*
G01*
X192757000Y-77547000D01*
G75*
G02*
X192694000Y-77484000I0J63000D01*
G01*
G37*
G36*
G01*
X193194000Y-77484000D02*
X193194000Y-76371000D01*
G75*
G02*
X193257000Y-76308000I63000J0D01*
G01*
X193383000Y-76308000D01*
G75*
G02*
X193446000Y-76371000I0J-63000D01*
G01*
X193446000Y-77484000D01*
G75*
G02*
X193383000Y-77547000I-63000J0D01*
G01*
X193257000Y-77547000D01*
G75*
G02*
X193194000Y-77484000I0J63000D01*
G01*
G37*
G36*
G01*
X193694000Y-77484000D02*
X193694000Y-76371000D01*
G75*
G02*
X193757000Y-76308000I63000J0D01*
G01*
X193883000Y-76308000D01*
G75*
G02*
X193946000Y-76371000I0J-63000D01*
G01*
X193946000Y-77484000D01*
G75*
G02*
X193883000Y-77547000I-63000J0D01*
G01*
X193757000Y-77547000D01*
G75*
G02*
X193694000Y-77484000I0J63000D01*
G01*
G37*
G36*
G01*
X194194000Y-77484000D02*
X194194000Y-76371000D01*
G75*
G02*
X194257000Y-76308000I63000J0D01*
G01*
X194383000Y-76308000D01*
G75*
G02*
X194446000Y-76371000I0J-63000D01*
G01*
X194446000Y-77484000D01*
G75*
G02*
X194383000Y-77547000I-63000J0D01*
G01*
X194257000Y-77547000D01*
G75*
G02*
X194194000Y-77484000I0J63000D01*
G01*
G37*
G36*
G01*
X194694000Y-77484000D02*
X194694000Y-76371000D01*
G75*
G02*
X194757000Y-76308000I63000J0D01*
G01*
X194883000Y-76308000D01*
G75*
G02*
X194946000Y-76371000I0J-63000D01*
G01*
X194946000Y-77484000D01*
G75*
G02*
X194883000Y-77547000I-63000J0D01*
G01*
X194757000Y-77547000D01*
G75*
G02*
X194694000Y-77484000I0J63000D01*
G01*
G37*
G36*
G01*
X195194000Y-77484000D02*
X195194000Y-76371000D01*
G75*
G02*
X195257000Y-76308000I63000J0D01*
G01*
X195383000Y-76308000D01*
G75*
G02*
X195446000Y-76371000I0J-63000D01*
G01*
X195446000Y-77484000D01*
G75*
G02*
X195383000Y-77547000I-63000J0D01*
G01*
X195257000Y-77547000D01*
G75*
G02*
X195194000Y-77484000I0J63000D01*
G01*
G37*
G36*
G01*
X195694000Y-77484000D02*
X195694000Y-76371000D01*
G75*
G02*
X195757000Y-76308000I63000J0D01*
G01*
X195883000Y-76308000D01*
G75*
G02*
X195946000Y-76371000I0J-63000D01*
G01*
X195946000Y-77484000D01*
G75*
G02*
X195883000Y-77547000I-63000J0D01*
G01*
X195757000Y-77547000D01*
G75*
G02*
X195694000Y-77484000I0J63000D01*
G01*
G37*
G36*
G01*
X196194000Y-77484000D02*
X196194000Y-76371000D01*
G75*
G02*
X196257000Y-76308000I63000J0D01*
G01*
X196383000Y-76308000D01*
G75*
G02*
X196446000Y-76371000I0J-63000D01*
G01*
X196446000Y-77484000D01*
G75*
G02*
X196383000Y-77547000I-63000J0D01*
G01*
X196257000Y-77547000D01*
G75*
G02*
X196194000Y-77484000I0J63000D01*
G01*
G37*
G36*
G01*
X196694000Y-77484000D02*
X196694000Y-76371000D01*
G75*
G02*
X196757000Y-76308000I63000J0D01*
G01*
X196883000Y-76308000D01*
G75*
G02*
X196946000Y-76371000I0J-63000D01*
G01*
X196946000Y-77484000D01*
G75*
G02*
X196883000Y-77547000I-63000J0D01*
G01*
X196757000Y-77547000D01*
G75*
G02*
X196694000Y-77484000I0J63000D01*
G01*
G37*
G36*
G01*
X197194000Y-77484000D02*
X197194000Y-76371000D01*
G75*
G02*
X197257000Y-76308000I63000J0D01*
G01*
X197383000Y-76308000D01*
G75*
G02*
X197446000Y-76371000I0J-63000D01*
G01*
X197446000Y-77484000D01*
G75*
G02*
X197383000Y-77547000I-63000J0D01*
G01*
X197257000Y-77547000D01*
G75*
G02*
X197194000Y-77484000I0J63000D01*
G01*
G37*
G36*
G01*
X198113000Y-78403000D02*
X198113000Y-78277000D01*
G75*
G02*
X198176000Y-78214000I63000J0D01*
G01*
X199289000Y-78214000D01*
G75*
G02*
X199352000Y-78277000I0J-63000D01*
G01*
X199352000Y-78403000D01*
G75*
G02*
X199289000Y-78466000I-63000J0D01*
G01*
X198176000Y-78466000D01*
G75*
G02*
X198113000Y-78403000I0J63000D01*
G01*
G37*
G36*
G01*
X198113000Y-78903000D02*
X198113000Y-78777000D01*
G75*
G02*
X198176000Y-78714000I63000J0D01*
G01*
X199289000Y-78714000D01*
G75*
G02*
X199352000Y-78777000I0J-63000D01*
G01*
X199352000Y-78903000D01*
G75*
G02*
X199289000Y-78966000I-63000J0D01*
G01*
X198176000Y-78966000D01*
G75*
G02*
X198113000Y-78903000I0J63000D01*
G01*
G37*
G36*
G01*
X198113000Y-79403000D02*
X198113000Y-79277000D01*
G75*
G02*
X198176000Y-79214000I63000J0D01*
G01*
X199289000Y-79214000D01*
G75*
G02*
X199352000Y-79277000I0J-63000D01*
G01*
X199352000Y-79403000D01*
G75*
G02*
X199289000Y-79466000I-63000J0D01*
G01*
X198176000Y-79466000D01*
G75*
G02*
X198113000Y-79403000I0J63000D01*
G01*
G37*
G36*
G01*
X198113000Y-79903000D02*
X198113000Y-79777000D01*
G75*
G02*
X198176000Y-79714000I63000J0D01*
G01*
X199289000Y-79714000D01*
G75*
G02*
X199352000Y-79777000I0J-63000D01*
G01*
X199352000Y-79903000D01*
G75*
G02*
X199289000Y-79966000I-63000J0D01*
G01*
X198176000Y-79966000D01*
G75*
G02*
X198113000Y-79903000I0J63000D01*
G01*
G37*
G36*
G01*
X198113000Y-80403000D02*
X198113000Y-80277000D01*
G75*
G02*
X198176000Y-80214000I63000J0D01*
G01*
X199289000Y-80214000D01*
G75*
G02*
X199352000Y-80277000I0J-63000D01*
G01*
X199352000Y-80403000D01*
G75*
G02*
X199289000Y-80466000I-63000J0D01*
G01*
X198176000Y-80466000D01*
G75*
G02*
X198113000Y-80403000I0J63000D01*
G01*
G37*
G36*
G01*
X198113000Y-80903000D02*
X198113000Y-80777000D01*
G75*
G02*
X198176000Y-80714000I63000J0D01*
G01*
X199289000Y-80714000D01*
G75*
G02*
X199352000Y-80777000I0J-63000D01*
G01*
X199352000Y-80903000D01*
G75*
G02*
X199289000Y-80966000I-63000J0D01*
G01*
X198176000Y-80966000D01*
G75*
G02*
X198113000Y-80903000I0J63000D01*
G01*
G37*
G36*
G01*
X198113000Y-81403000D02*
X198113000Y-81277000D01*
G75*
G02*
X198176000Y-81214000I63000J0D01*
G01*
X199289000Y-81214000D01*
G75*
G02*
X199352000Y-81277000I0J-63000D01*
G01*
X199352000Y-81403000D01*
G75*
G02*
X199289000Y-81466000I-63000J0D01*
G01*
X198176000Y-81466000D01*
G75*
G02*
X198113000Y-81403000I0J63000D01*
G01*
G37*
G36*
G01*
X198113000Y-81903000D02*
X198113000Y-81777000D01*
G75*
G02*
X198176000Y-81714000I63000J0D01*
G01*
X199289000Y-81714000D01*
G75*
G02*
X199352000Y-81777000I0J-63000D01*
G01*
X199352000Y-81903000D01*
G75*
G02*
X199289000Y-81966000I-63000J0D01*
G01*
X198176000Y-81966000D01*
G75*
G02*
X198113000Y-81903000I0J63000D01*
G01*
G37*
G36*
G01*
X198113000Y-82403000D02*
X198113000Y-82277000D01*
G75*
G02*
X198176000Y-82214000I63000J0D01*
G01*
X199289000Y-82214000D01*
G75*
G02*
X199352000Y-82277000I0J-63000D01*
G01*
X199352000Y-82403000D01*
G75*
G02*
X199289000Y-82466000I-63000J0D01*
G01*
X198176000Y-82466000D01*
G75*
G02*
X198113000Y-82403000I0J63000D01*
G01*
G37*
G36*
G01*
X198113000Y-82903000D02*
X198113000Y-82777000D01*
G75*
G02*
X198176000Y-82714000I63000J0D01*
G01*
X199289000Y-82714000D01*
G75*
G02*
X199352000Y-82777000I0J-63000D01*
G01*
X199352000Y-82903000D01*
G75*
G02*
X199289000Y-82966000I-63000J0D01*
G01*
X198176000Y-82966000D01*
G75*
G02*
X198113000Y-82903000I0J63000D01*
G01*
G37*
G36*
G01*
X198113000Y-83403000D02*
X198113000Y-83277000D01*
G75*
G02*
X198176000Y-83214000I63000J0D01*
G01*
X199289000Y-83214000D01*
G75*
G02*
X199352000Y-83277000I0J-63000D01*
G01*
X199352000Y-83403000D01*
G75*
G02*
X199289000Y-83466000I-63000J0D01*
G01*
X198176000Y-83466000D01*
G75*
G02*
X198113000Y-83403000I0J63000D01*
G01*
G37*
G36*
G01*
X198113000Y-83903000D02*
X198113000Y-83777000D01*
G75*
G02*
X198176000Y-83714000I63000J0D01*
G01*
X199289000Y-83714000D01*
G75*
G02*
X199352000Y-83777000I0J-63000D01*
G01*
X199352000Y-83903000D01*
G75*
G02*
X199289000Y-83966000I-63000J0D01*
G01*
X198176000Y-83966000D01*
G75*
G02*
X198113000Y-83903000I0J63000D01*
G01*
G37*
G36*
G01*
X197194000Y-85809000D02*
X197194000Y-84696000D01*
G75*
G02*
X197257000Y-84633000I63000J0D01*
G01*
X197383000Y-84633000D01*
G75*
G02*
X197446000Y-84696000I0J-63000D01*
G01*
X197446000Y-85809000D01*
G75*
G02*
X197383000Y-85872000I-63000J0D01*
G01*
X197257000Y-85872000D01*
G75*
G02*
X197194000Y-85809000I0J63000D01*
G01*
G37*
G36*
G01*
X196694000Y-85809000D02*
X196694000Y-84696000D01*
G75*
G02*
X196757000Y-84633000I63000J0D01*
G01*
X196883000Y-84633000D01*
G75*
G02*
X196946000Y-84696000I0J-63000D01*
G01*
X196946000Y-85809000D01*
G75*
G02*
X196883000Y-85872000I-63000J0D01*
G01*
X196757000Y-85872000D01*
G75*
G02*
X196694000Y-85809000I0J63000D01*
G01*
G37*
G36*
G01*
X196194000Y-85809000D02*
X196194000Y-84696000D01*
G75*
G02*
X196257000Y-84633000I63000J0D01*
G01*
X196383000Y-84633000D01*
G75*
G02*
X196446000Y-84696000I0J-63000D01*
G01*
X196446000Y-85809000D01*
G75*
G02*
X196383000Y-85872000I-63000J0D01*
G01*
X196257000Y-85872000D01*
G75*
G02*
X196194000Y-85809000I0J63000D01*
G01*
G37*
G36*
G01*
X195694000Y-85809000D02*
X195694000Y-84696000D01*
G75*
G02*
X195757000Y-84633000I63000J0D01*
G01*
X195883000Y-84633000D01*
G75*
G02*
X195946000Y-84696000I0J-63000D01*
G01*
X195946000Y-85809000D01*
G75*
G02*
X195883000Y-85872000I-63000J0D01*
G01*
X195757000Y-85872000D01*
G75*
G02*
X195694000Y-85809000I0J63000D01*
G01*
G37*
G36*
G01*
X195194000Y-85809000D02*
X195194000Y-84696000D01*
G75*
G02*
X195257000Y-84633000I63000J0D01*
G01*
X195383000Y-84633000D01*
G75*
G02*
X195446000Y-84696000I0J-63000D01*
G01*
X195446000Y-85809000D01*
G75*
G02*
X195383000Y-85872000I-63000J0D01*
G01*
X195257000Y-85872000D01*
G75*
G02*
X195194000Y-85809000I0J63000D01*
G01*
G37*
G36*
G01*
X194694000Y-85809000D02*
X194694000Y-84696000D01*
G75*
G02*
X194757000Y-84633000I63000J0D01*
G01*
X194883000Y-84633000D01*
G75*
G02*
X194946000Y-84696000I0J-63000D01*
G01*
X194946000Y-85809000D01*
G75*
G02*
X194883000Y-85872000I-63000J0D01*
G01*
X194757000Y-85872000D01*
G75*
G02*
X194694000Y-85809000I0J63000D01*
G01*
G37*
G36*
G01*
X194194000Y-85809000D02*
X194194000Y-84696000D01*
G75*
G02*
X194257000Y-84633000I63000J0D01*
G01*
X194383000Y-84633000D01*
G75*
G02*
X194446000Y-84696000I0J-63000D01*
G01*
X194446000Y-85809000D01*
G75*
G02*
X194383000Y-85872000I-63000J0D01*
G01*
X194257000Y-85872000D01*
G75*
G02*
X194194000Y-85809000I0J63000D01*
G01*
G37*
G36*
G01*
X193694000Y-85809000D02*
X193694000Y-84696000D01*
G75*
G02*
X193757000Y-84633000I63000J0D01*
G01*
X193883000Y-84633000D01*
G75*
G02*
X193946000Y-84696000I0J-63000D01*
G01*
X193946000Y-85809000D01*
G75*
G02*
X193883000Y-85872000I-63000J0D01*
G01*
X193757000Y-85872000D01*
G75*
G02*
X193694000Y-85809000I0J63000D01*
G01*
G37*
G36*
G01*
X193194000Y-85809000D02*
X193194000Y-84696000D01*
G75*
G02*
X193257000Y-84633000I63000J0D01*
G01*
X193383000Y-84633000D01*
G75*
G02*
X193446000Y-84696000I0J-63000D01*
G01*
X193446000Y-85809000D01*
G75*
G02*
X193383000Y-85872000I-63000J0D01*
G01*
X193257000Y-85872000D01*
G75*
G02*
X193194000Y-85809000I0J63000D01*
G01*
G37*
G36*
G01*
X192694000Y-85809000D02*
X192694000Y-84696000D01*
G75*
G02*
X192757000Y-84633000I63000J0D01*
G01*
X192883000Y-84633000D01*
G75*
G02*
X192946000Y-84696000I0J-63000D01*
G01*
X192946000Y-85809000D01*
G75*
G02*
X192883000Y-85872000I-63000J0D01*
G01*
X192757000Y-85872000D01*
G75*
G02*
X192694000Y-85809000I0J63000D01*
G01*
G37*
G36*
G01*
X192194000Y-85809000D02*
X192194000Y-84696000D01*
G75*
G02*
X192257000Y-84633000I63000J0D01*
G01*
X192383000Y-84633000D01*
G75*
G02*
X192446000Y-84696000I0J-63000D01*
G01*
X192446000Y-85809000D01*
G75*
G02*
X192383000Y-85872000I-63000J0D01*
G01*
X192257000Y-85872000D01*
G75*
G02*
X192194000Y-85809000I0J63000D01*
G01*
G37*
G36*
G01*
X191694000Y-85809000D02*
X191694000Y-84696000D01*
G75*
G02*
X191757000Y-84633000I63000J0D01*
G01*
X191883000Y-84633000D01*
G75*
G02*
X191946000Y-84696000I0J-63000D01*
G01*
X191946000Y-85809000D01*
G75*
G02*
X191883000Y-85872000I-63000J0D01*
G01*
X191757000Y-85872000D01*
G75*
G02*
X191694000Y-85809000I0J63000D01*
G01*
G37*
G36*
G01*
X189788000Y-83903000D02*
X189788000Y-83777000D01*
G75*
G02*
X189851000Y-83714000I63000J0D01*
G01*
X190964000Y-83714000D01*
G75*
G02*
X191027000Y-83777000I0J-63000D01*
G01*
X191027000Y-83903000D01*
G75*
G02*
X190964000Y-83966000I-63000J0D01*
G01*
X189851000Y-83966000D01*
G75*
G02*
X189788000Y-83903000I0J63000D01*
G01*
G37*
G36*
G01*
X189788000Y-83403000D02*
X189788000Y-83277000D01*
G75*
G02*
X189851000Y-83214000I63000J0D01*
G01*
X190964000Y-83214000D01*
G75*
G02*
X191027000Y-83277000I0J-63000D01*
G01*
X191027000Y-83403000D01*
G75*
G02*
X190964000Y-83466000I-63000J0D01*
G01*
X189851000Y-83466000D01*
G75*
G02*
X189788000Y-83403000I0J63000D01*
G01*
G37*
G36*
G01*
X189788000Y-82903000D02*
X189788000Y-82777000D01*
G75*
G02*
X189851000Y-82714000I63000J0D01*
G01*
X190964000Y-82714000D01*
G75*
G02*
X191027000Y-82777000I0J-63000D01*
G01*
X191027000Y-82903000D01*
G75*
G02*
X190964000Y-82966000I-63000J0D01*
G01*
X189851000Y-82966000D01*
G75*
G02*
X189788000Y-82903000I0J63000D01*
G01*
G37*
G36*
G01*
X189788000Y-82403000D02*
X189788000Y-82277000D01*
G75*
G02*
X189851000Y-82214000I63000J0D01*
G01*
X190964000Y-82214000D01*
G75*
G02*
X191027000Y-82277000I0J-63000D01*
G01*
X191027000Y-82403000D01*
G75*
G02*
X190964000Y-82466000I-63000J0D01*
G01*
X189851000Y-82466000D01*
G75*
G02*
X189788000Y-82403000I0J63000D01*
G01*
G37*
G36*
G01*
X189788000Y-81903000D02*
X189788000Y-81777000D01*
G75*
G02*
X189851000Y-81714000I63000J0D01*
G01*
X190964000Y-81714000D01*
G75*
G02*
X191027000Y-81777000I0J-63000D01*
G01*
X191027000Y-81903000D01*
G75*
G02*
X190964000Y-81966000I-63000J0D01*
G01*
X189851000Y-81966000D01*
G75*
G02*
X189788000Y-81903000I0J63000D01*
G01*
G37*
G36*
G01*
X189788000Y-81403000D02*
X189788000Y-81277000D01*
G75*
G02*
X189851000Y-81214000I63000J0D01*
G01*
X190964000Y-81214000D01*
G75*
G02*
X191027000Y-81277000I0J-63000D01*
G01*
X191027000Y-81403000D01*
G75*
G02*
X190964000Y-81466000I-63000J0D01*
G01*
X189851000Y-81466000D01*
G75*
G02*
X189788000Y-81403000I0J63000D01*
G01*
G37*
G36*
G01*
X189788000Y-80903000D02*
X189788000Y-80777000D01*
G75*
G02*
X189851000Y-80714000I63000J0D01*
G01*
X190964000Y-80714000D01*
G75*
G02*
X191027000Y-80777000I0J-63000D01*
G01*
X191027000Y-80903000D01*
G75*
G02*
X190964000Y-80966000I-63000J0D01*
G01*
X189851000Y-80966000D01*
G75*
G02*
X189788000Y-80903000I0J63000D01*
G01*
G37*
G36*
G01*
X189788000Y-80403000D02*
X189788000Y-80277000D01*
G75*
G02*
X189851000Y-80214000I63000J0D01*
G01*
X190964000Y-80214000D01*
G75*
G02*
X191027000Y-80277000I0J-63000D01*
G01*
X191027000Y-80403000D01*
G75*
G02*
X190964000Y-80466000I-63000J0D01*
G01*
X189851000Y-80466000D01*
G75*
G02*
X189788000Y-80403000I0J63000D01*
G01*
G37*
G36*
G01*
X189788000Y-79903000D02*
X189788000Y-79777000D01*
G75*
G02*
X189851000Y-79714000I63000J0D01*
G01*
X190964000Y-79714000D01*
G75*
G02*
X191027000Y-79777000I0J-63000D01*
G01*
X191027000Y-79903000D01*
G75*
G02*
X190964000Y-79966000I-63000J0D01*
G01*
X189851000Y-79966000D01*
G75*
G02*
X189788000Y-79903000I0J63000D01*
G01*
G37*
G36*
G01*
X189788000Y-79403000D02*
X189788000Y-79277000D01*
G75*
G02*
X189851000Y-79214000I63000J0D01*
G01*
X190964000Y-79214000D01*
G75*
G02*
X191027000Y-79277000I0J-63000D01*
G01*
X191027000Y-79403000D01*
G75*
G02*
X190964000Y-79466000I-63000J0D01*
G01*
X189851000Y-79466000D01*
G75*
G02*
X189788000Y-79403000I0J63000D01*
G01*
G37*
G36*
G01*
X189788000Y-78903000D02*
X189788000Y-78777000D01*
G75*
G02*
X189851000Y-78714000I63000J0D01*
G01*
X190964000Y-78714000D01*
G75*
G02*
X191027000Y-78777000I0J-63000D01*
G01*
X191027000Y-78903000D01*
G75*
G02*
X190964000Y-78966000I-63000J0D01*
G01*
X189851000Y-78966000D01*
G75*
G02*
X189788000Y-78903000I0J63000D01*
G01*
G37*
G36*
G01*
X189788000Y-78403000D02*
X189788000Y-78277000D01*
G75*
G02*
X189851000Y-78214000I63000J0D01*
G01*
X190964000Y-78214000D01*
G75*
G02*
X191027000Y-78277000I0J-63000D01*
G01*
X191027000Y-78403000D01*
G75*
G02*
X190964000Y-78466000I-63000J0D01*
G01*
X189851000Y-78466000D01*
G75*
G02*
X189788000Y-78403000I0J63000D01*
G01*
G37*
D14*
X181080000Y-74740000D03*
X181080000Y-76140000D03*
X177330000Y-72480000D03*
X177330000Y-71080000D03*
D15*
X179520000Y-74120000D03*
X177420000Y-74120000D03*
D16*
X178500000Y-68260000D03*
X179900000Y-68260000D03*
D17*
X180080000Y-72020000D03*
X178780000Y-72020000D03*
X178780000Y-69820000D03*
X179430000Y-69820000D03*
X180080000Y-69820000D03*
D14*
X191780000Y-67880000D03*
X191780000Y-69280000D03*
X185820000Y-73550000D03*
X185820000Y-74950000D03*
D18*
X184576000Y-74401000D03*
X184576000Y-76179000D03*
X182544000Y-75290000D03*
D14*
X184280000Y-118460000D03*
X184280000Y-117060000D03*
X184370000Y-96640000D03*
X184370000Y-95240000D03*
D19*
X184370000Y-112320000D03*
X184370000Y-111420000D03*
D20*
X185300000Y-116150000D03*
X185300000Y-115650000D03*
X185300000Y-115150000D03*
X185300000Y-114650000D03*
X185300000Y-114150000D03*
X185300000Y-113650000D03*
D21*
X187225000Y-118050000D03*
D22*
X186800000Y-119250000D03*
D21*
X187225000Y-111750000D03*
D22*
X186800000Y-110550000D03*
G36*
G01*
X185823000Y-104034000D02*
X186537000Y-104034000D01*
G75*
G02*
X186600000Y-104097000I0J-63000D01*
G01*
X186600000Y-104223000D01*
G75*
G02*
X186537000Y-104286000I-63000J0D01*
G01*
X185823000Y-104286000D01*
G75*
G02*
X185760000Y-104223000I0J63000D01*
G01*
X185760000Y-104097000D01*
G75*
G02*
X185823000Y-104034000I63000J0D01*
G01*
G37*
G36*
G01*
X185823000Y-101034000D02*
X186537000Y-101034000D01*
G75*
G02*
X186600000Y-101097000I0J-63000D01*
G01*
X186600000Y-101223000D01*
G75*
G02*
X186537000Y-101286000I-63000J0D01*
G01*
X185823000Y-101286000D01*
G75*
G02*
X185760000Y-101223000I0J63000D01*
G01*
X185760000Y-101097000D01*
G75*
G02*
X185823000Y-101034000I63000J0D01*
G01*
G37*
G36*
G01*
X185823000Y-102534000D02*
X186537000Y-102534000D01*
G75*
G02*
X186600000Y-102597000I0J-63000D01*
G01*
X186600000Y-102723000D01*
G75*
G02*
X186537000Y-102786000I-63000J0D01*
G01*
X185823000Y-102786000D01*
G75*
G02*
X185760000Y-102723000I0J63000D01*
G01*
X185760000Y-102597000D01*
G75*
G02*
X185823000Y-102534000I63000J0D01*
G01*
G37*
G36*
G01*
X185823000Y-103034000D02*
X186537000Y-103034000D01*
G75*
G02*
X186600000Y-103097000I0J-63000D01*
G01*
X186600000Y-103223000D01*
G75*
G02*
X186537000Y-103286000I-63000J0D01*
G01*
X185823000Y-103286000D01*
G75*
G02*
X185760000Y-103223000I0J63000D01*
G01*
X185760000Y-103097000D01*
G75*
G02*
X185823000Y-103034000I63000J0D01*
G01*
G37*
G36*
G01*
X185823000Y-103534000D02*
X186537000Y-103534000D01*
G75*
G02*
X186600000Y-103597000I0J-63000D01*
G01*
X186600000Y-103723000D01*
G75*
G02*
X186537000Y-103786000I-63000J0D01*
G01*
X185823000Y-103786000D01*
G75*
G02*
X185760000Y-103723000I0J63000D01*
G01*
X185760000Y-103597000D01*
G75*
G02*
X185823000Y-103534000I63000J0D01*
G01*
G37*
G36*
G01*
X185823000Y-102034000D02*
X186537000Y-102034000D01*
G75*
G02*
X186600000Y-102097000I0J-63000D01*
G01*
X186600000Y-102223000D01*
G75*
G02*
X186537000Y-102286000I-63000J0D01*
G01*
X185823000Y-102286000D01*
G75*
G02*
X185760000Y-102223000I0J63000D01*
G01*
X185760000Y-102097000D01*
G75*
G02*
X185823000Y-102034000I63000J0D01*
G01*
G37*
G36*
G01*
X185823000Y-101534000D02*
X186537000Y-101534000D01*
G75*
G02*
X186600000Y-101597000I0J-63000D01*
G01*
X186600000Y-101723000D01*
G75*
G02*
X186537000Y-101786000I-63000J0D01*
G01*
X185823000Y-101786000D01*
G75*
G02*
X185760000Y-101723000I0J63000D01*
G01*
X185760000Y-101597000D01*
G75*
G02*
X185823000Y-101534000I63000J0D01*
G01*
G37*
G36*
G01*
X185823000Y-100534000D02*
X186537000Y-100534000D01*
G75*
G02*
X186600000Y-100597000I0J-63000D01*
G01*
X186600000Y-100723000D01*
G75*
G02*
X186537000Y-100786000I-63000J0D01*
G01*
X185823000Y-100786000D01*
G75*
G02*
X185760000Y-100723000I0J63000D01*
G01*
X185760000Y-100597000D01*
G75*
G02*
X185823000Y-100534000I63000J0D01*
G01*
G37*
G36*
G01*
X185823000Y-100034000D02*
X186537000Y-100034000D01*
G75*
G02*
X186600000Y-100097000I0J-63000D01*
G01*
X186600000Y-100223000D01*
G75*
G02*
X186537000Y-100286000I-63000J0D01*
G01*
X185823000Y-100286000D01*
G75*
G02*
X185760000Y-100223000I0J63000D01*
G01*
X185760000Y-100097000D01*
G75*
G02*
X185823000Y-100034000I63000J0D01*
G01*
G37*
G36*
G01*
X185823000Y-99534000D02*
X186537000Y-99534000D01*
G75*
G02*
X186600000Y-99597000I0J-63000D01*
G01*
X186600000Y-99723000D01*
G75*
G02*
X186537000Y-99786000I-63000J0D01*
G01*
X185823000Y-99786000D01*
G75*
G02*
X185760000Y-99723000I0J63000D01*
G01*
X185760000Y-99597000D01*
G75*
G02*
X185823000Y-99534000I63000J0D01*
G01*
G37*
G36*
G01*
X185823000Y-96534000D02*
X186537000Y-96534000D01*
G75*
G02*
X186600000Y-96597000I0J-63000D01*
G01*
X186600000Y-96723000D01*
G75*
G02*
X186537000Y-96786000I-63000J0D01*
G01*
X185823000Y-96786000D01*
G75*
G02*
X185760000Y-96723000I0J63000D01*
G01*
X185760000Y-96597000D01*
G75*
G02*
X185823000Y-96534000I63000J0D01*
G01*
G37*
G36*
G01*
X185823000Y-97034000D02*
X186537000Y-97034000D01*
G75*
G02*
X186600000Y-97097000I0J-63000D01*
G01*
X186600000Y-97223000D01*
G75*
G02*
X186537000Y-97286000I-63000J0D01*
G01*
X185823000Y-97286000D01*
G75*
G02*
X185760000Y-97223000I0J63000D01*
G01*
X185760000Y-97097000D01*
G75*
G02*
X185823000Y-97034000I63000J0D01*
G01*
G37*
G36*
G01*
X185823000Y-98534000D02*
X186537000Y-98534000D01*
G75*
G02*
X186600000Y-98597000I0J-63000D01*
G01*
X186600000Y-98723000D01*
G75*
G02*
X186537000Y-98786000I-63000J0D01*
G01*
X185823000Y-98786000D01*
G75*
G02*
X185760000Y-98723000I0J63000D01*
G01*
X185760000Y-98597000D01*
G75*
G02*
X185823000Y-98534000I63000J0D01*
G01*
G37*
G36*
G01*
X185823000Y-99034000D02*
X186537000Y-99034000D01*
G75*
G02*
X186600000Y-99097000I0J-63000D01*
G01*
X186600000Y-99223000D01*
G75*
G02*
X186537000Y-99286000I-63000J0D01*
G01*
X185823000Y-99286000D01*
G75*
G02*
X185760000Y-99223000I0J63000D01*
G01*
X185760000Y-99097000D01*
G75*
G02*
X185823000Y-99034000I63000J0D01*
G01*
G37*
G36*
G01*
X185823000Y-97534000D02*
X186537000Y-97534000D01*
G75*
G02*
X186600000Y-97597000I0J-63000D01*
G01*
X186600000Y-97723000D01*
G75*
G02*
X186537000Y-97786000I-63000J0D01*
G01*
X185823000Y-97786000D01*
G75*
G02*
X185760000Y-97723000I0J63000D01*
G01*
X185760000Y-97597000D01*
G75*
G02*
X185823000Y-97534000I63000J0D01*
G01*
G37*
G36*
G01*
X185823000Y-98034000D02*
X186537000Y-98034000D01*
G75*
G02*
X186600000Y-98097000I0J-63000D01*
G01*
X186600000Y-98223000D01*
G75*
G02*
X186537000Y-98286000I-63000J0D01*
G01*
X185823000Y-98286000D01*
G75*
G02*
X185760000Y-98223000I0J63000D01*
G01*
X185760000Y-98097000D01*
G75*
G02*
X185823000Y-98034000I63000J0D01*
G01*
G37*
G36*
G01*
X185823000Y-94534000D02*
X186537000Y-94534000D01*
G75*
G02*
X186600000Y-94597000I0J-63000D01*
G01*
X186600000Y-94723000D01*
G75*
G02*
X186537000Y-94786000I-63000J0D01*
G01*
X185823000Y-94786000D01*
G75*
G02*
X185760000Y-94723000I0J63000D01*
G01*
X185760000Y-94597000D01*
G75*
G02*
X185823000Y-94534000I63000J0D01*
G01*
G37*
G36*
G01*
X185823000Y-95034000D02*
X186537000Y-95034000D01*
G75*
G02*
X186600000Y-95097000I0J-63000D01*
G01*
X186600000Y-95223000D01*
G75*
G02*
X186537000Y-95286000I-63000J0D01*
G01*
X185823000Y-95286000D01*
G75*
G02*
X185760000Y-95223000I0J63000D01*
G01*
X185760000Y-95097000D01*
G75*
G02*
X185823000Y-95034000I63000J0D01*
G01*
G37*
G36*
G01*
X185823000Y-95534000D02*
X186537000Y-95534000D01*
G75*
G02*
X186600000Y-95597000I0J-63000D01*
G01*
X186600000Y-95723000D01*
G75*
G02*
X186537000Y-95786000I-63000J0D01*
G01*
X185823000Y-95786000D01*
G75*
G02*
X185760000Y-95723000I0J63000D01*
G01*
X185760000Y-95597000D01*
G75*
G02*
X185823000Y-95534000I63000J0D01*
G01*
G37*
G36*
G01*
X185823000Y-96034000D02*
X186537000Y-96034000D01*
G75*
G02*
X186600000Y-96097000I0J-63000D01*
G01*
X186600000Y-96223000D01*
G75*
G02*
X186537000Y-96286000I-63000J0D01*
G01*
X185823000Y-96286000D01*
G75*
G02*
X185760000Y-96223000I0J63000D01*
G01*
X185760000Y-96097000D01*
G75*
G02*
X185823000Y-96034000I63000J0D01*
G01*
G37*
G36*
G01*
X185823000Y-93534000D02*
X186537000Y-93534000D01*
G75*
G02*
X186600000Y-93597000I0J-63000D01*
G01*
X186600000Y-93723000D01*
G75*
G02*
X186537000Y-93786000I-63000J0D01*
G01*
X185823000Y-93786000D01*
G75*
G02*
X185760000Y-93723000I0J63000D01*
G01*
X185760000Y-93597000D01*
G75*
G02*
X185823000Y-93534000I63000J0D01*
G01*
G37*
G36*
G01*
X185823000Y-94034000D02*
X186537000Y-94034000D01*
G75*
G02*
X186600000Y-94097000I0J-63000D01*
G01*
X186600000Y-94223000D01*
G75*
G02*
X186537000Y-94286000I-63000J0D01*
G01*
X185823000Y-94286000D01*
G75*
G02*
X185760000Y-94223000I0J63000D01*
G01*
X185760000Y-94097000D01*
G75*
G02*
X185823000Y-94034000I63000J0D01*
G01*
G37*
G36*
G01*
X185823000Y-93034000D02*
X186537000Y-93034000D01*
G75*
G02*
X186600000Y-93097000I0J-63000D01*
G01*
X186600000Y-93223000D01*
G75*
G02*
X186537000Y-93286000I-63000J0D01*
G01*
X185823000Y-93286000D01*
G75*
G02*
X185760000Y-93223000I0J63000D01*
G01*
X185760000Y-93097000D01*
G75*
G02*
X185823000Y-93034000I63000J0D01*
G01*
G37*
G36*
G01*
X185823000Y-92534000D02*
X186537000Y-92534000D01*
G75*
G02*
X186600000Y-92597000I0J-63000D01*
G01*
X186600000Y-92723000D01*
G75*
G02*
X186537000Y-92786000I-63000J0D01*
G01*
X185823000Y-92786000D01*
G75*
G02*
X185760000Y-92723000I0J63000D01*
G01*
X185760000Y-92597000D01*
G75*
G02*
X185823000Y-92534000I63000J0D01*
G01*
G37*
G36*
G01*
X188420000Y-105360000D02*
X189260000Y-105360000D01*
G75*
G02*
X189680000Y-105780000I0J-420000D01*
G01*
X189680000Y-106620000D01*
G75*
G02*
X189260000Y-107040000I-420000J0D01*
G01*
X188420000Y-107040000D01*
G75*
G02*
X188000000Y-106620000I0J420000D01*
G01*
X188000000Y-105780000D01*
G75*
G02*
X188420000Y-105360000I420000J0D01*
G01*
G37*
G36*
G01*
X188420000Y-89760000D02*
X189260000Y-89760000D01*
G75*
G02*
X189680000Y-90180000I0J-420000D01*
G01*
X189680000Y-91020000D01*
G75*
G02*
X189260000Y-91440000I-420000J0D01*
G01*
X188420000Y-91440000D01*
G75*
G02*
X188000000Y-91020000I0J420000D01*
G01*
X188000000Y-90180000D01*
G75*
G02*
X188420000Y-89760000I420000J0D01*
G01*
G37*
D23*
X112800000Y-134850000D03*
D24*
X120700000Y-70650000D03*
X120700000Y-71250000D03*
X120700000Y-71850000D03*
X120700000Y-72450000D03*
X120700000Y-73050000D03*
X120700000Y-73650000D03*
X120700000Y-74250000D03*
X120700000Y-74850000D03*
X120700000Y-75450000D03*
X120700000Y-76050000D03*
X120700000Y-76650000D03*
X120700000Y-77250000D03*
X120700000Y-77850000D03*
X120700000Y-78450000D03*
X120700000Y-79050000D03*
X120700000Y-79650000D03*
X120700000Y-80250000D03*
X120700000Y-80850000D03*
X120700000Y-81450000D03*
X120700000Y-82050000D03*
X120700000Y-82650000D03*
X120700000Y-83250000D03*
X120700000Y-83850000D03*
X120700000Y-84450000D03*
X120700000Y-85050000D03*
X120700000Y-85650000D03*
X120700000Y-86250000D03*
X120700000Y-86850000D03*
X120700000Y-87450000D03*
X120700000Y-88050000D03*
X120700000Y-88650000D03*
X120700000Y-89250000D03*
X120700000Y-89850000D03*
X120700000Y-90450000D03*
X120700000Y-91050000D03*
X120700000Y-91650000D03*
X120700000Y-92250000D03*
X120700000Y-92850000D03*
X120700000Y-93450000D03*
X120700000Y-94050000D03*
X120700000Y-94650000D03*
X120700000Y-95250000D03*
X120700000Y-95850000D03*
X120700000Y-96450000D03*
X120700000Y-97050000D03*
X120700000Y-97650000D03*
X120700000Y-98250000D03*
X120700000Y-98850000D03*
X120700000Y-99450000D03*
X120700000Y-100050000D03*
X120700000Y-100650000D03*
X120700000Y-101250000D03*
X120700000Y-101850000D03*
X120700000Y-102450000D03*
X120700000Y-103050000D03*
X120700000Y-103650000D03*
X120700000Y-104250000D03*
X120700000Y-104850000D03*
X120700000Y-105450000D03*
X120700000Y-106050000D03*
X120700000Y-106650000D03*
X120700000Y-107250000D03*
X120700000Y-107850000D03*
X120700000Y-108450000D03*
X120700000Y-109050000D03*
X120700000Y-109650000D03*
X120700000Y-110250000D03*
X120700000Y-110850000D03*
X120700000Y-111450000D03*
X120700000Y-112050000D03*
X120700000Y-112650000D03*
X120700000Y-113250000D03*
X120700000Y-113850000D03*
X120700000Y-114450000D03*
X120700000Y-115050000D03*
X120700000Y-115650000D03*
X120700000Y-116250000D03*
X120700000Y-116850000D03*
X120700000Y-117450000D03*
X120700000Y-118050000D03*
X128900000Y-70950000D03*
X128900000Y-71550000D03*
X128900000Y-72150000D03*
X128900000Y-72750000D03*
X128900000Y-73350000D03*
X128900000Y-73950000D03*
X128900000Y-74550000D03*
X128900000Y-75150000D03*
X128900000Y-75750000D03*
X128900000Y-76350000D03*
X128900000Y-76950000D03*
X128900000Y-77550000D03*
X128900000Y-78150000D03*
X128900000Y-78750000D03*
X128900000Y-79350000D03*
X128900000Y-79950000D03*
X128900000Y-80550000D03*
X128900000Y-81150000D03*
X128900000Y-81750000D03*
X128900000Y-82350000D03*
X128900000Y-82950000D03*
X128900000Y-83550000D03*
X128900000Y-84150000D03*
X128900000Y-84750000D03*
X128900000Y-85350000D03*
X128900000Y-85950000D03*
X128900000Y-86550000D03*
X128900000Y-87150000D03*
X128900000Y-87750000D03*
X128900000Y-88350000D03*
X128900000Y-88950000D03*
X128900000Y-89550000D03*
X128900000Y-90150000D03*
X128900000Y-90750000D03*
X128900000Y-91350000D03*
X128900000Y-91950000D03*
X128900000Y-92550000D03*
X128900000Y-93150000D03*
X128900000Y-93750000D03*
X128900000Y-94350000D03*
X128900000Y-94950000D03*
X128900000Y-95550000D03*
X128900000Y-96150000D03*
X128900000Y-96750000D03*
X128900000Y-97350000D03*
X128900000Y-97950000D03*
X128900000Y-98550000D03*
X128900000Y-99150000D03*
X128900000Y-99750000D03*
X128900000Y-100350000D03*
X128900000Y-100950000D03*
X128900000Y-101550000D03*
X128900000Y-102150000D03*
X128900000Y-102750000D03*
X128900000Y-103350000D03*
X128900000Y-103950000D03*
X128900000Y-104550000D03*
X128900000Y-105150000D03*
X128900000Y-105750000D03*
X128900000Y-106350000D03*
X128900000Y-106950000D03*
X128900000Y-107550000D03*
X128900000Y-108150000D03*
X128900000Y-108750000D03*
X128900000Y-109350000D03*
X128900000Y-109950000D03*
X128900000Y-110550000D03*
X128900000Y-111150000D03*
X128900000Y-111750000D03*
X128900000Y-112350000D03*
X128900000Y-112950000D03*
X128900000Y-113550000D03*
X128900000Y-114150000D03*
X128900000Y-114750000D03*
X128900000Y-115350000D03*
X128900000Y-115950000D03*
X128900000Y-116550000D03*
X128900000Y-117150000D03*
X128900000Y-117750000D03*
X128900000Y-118350000D03*
X128900000Y-122550000D03*
X128900000Y-123150000D03*
X128900000Y-123750000D03*
X128900000Y-124350000D03*
X128900000Y-124950000D03*
X128900000Y-125550000D03*
X128900000Y-126150000D03*
X128900000Y-126750000D03*
X128900000Y-127350000D03*
X128900000Y-127950000D03*
X128900000Y-128550000D03*
X128900000Y-129150000D03*
X128900000Y-129750000D03*
X128900000Y-130350000D03*
X128900000Y-130950000D03*
X128900000Y-131550000D03*
X128900000Y-132150000D03*
X128900000Y-132750000D03*
X128900000Y-133350000D03*
X128900000Y-133950000D03*
X120700000Y-122250000D03*
X120700000Y-133650000D03*
X120700000Y-133050000D03*
X120700000Y-132450000D03*
X120700000Y-131850000D03*
X120700000Y-131250000D03*
X120700000Y-130650000D03*
X120700000Y-130050000D03*
X120700000Y-129450000D03*
X120700000Y-128850000D03*
X120700000Y-128250000D03*
X120700000Y-127650000D03*
X120700000Y-127050000D03*
X120700000Y-126450000D03*
X120700000Y-125850000D03*
X120700000Y-125250000D03*
X120700000Y-124650000D03*
X120700000Y-124050000D03*
X120700000Y-123450000D03*
X120700000Y-122850000D03*
D23*
X112800000Y-69740000D03*
D25*
X138850000Y-110360000D03*
X138850000Y-115060000D03*
D26*
X140400000Y-129850000D03*
X145100000Y-129850000D03*
D27*
X143125000Y-106909740D03*
X143125000Y-100910260D03*
X141855000Y-106909740D03*
X140585000Y-106909740D03*
X139315000Y-106909740D03*
X141855000Y-100910260D03*
X140585000Y-100910260D03*
X139315000Y-100910260D03*
D28*
X140260000Y-104670000D03*
X142120000Y-104670000D03*
X142120000Y-103160000D03*
X140260000Y-103160000D03*
D29*
X146700000Y-124545000D03*
X145400000Y-124545000D03*
X146700000Y-123695000D03*
X145400000Y-123695000D03*
D30*
X145100000Y-122740000D03*
X146050000Y-122740000D03*
X147000000Y-122740000D03*
X147000000Y-125500000D03*
X146050000Y-125500000D03*
X145100000Y-125500000D03*
D16*
X146630000Y-82380000D03*
X145230000Y-82380000D03*
G36*
G01*
X141049000Y-85039000D02*
X141049000Y-86761000D01*
G75*
G02*
X140839000Y-86971000I-210000J0D01*
G01*
X139516000Y-86971000D01*
G75*
G02*
X139306000Y-86761000I0J210000D01*
G01*
X139306000Y-85039000D01*
G75*
G02*
X139516000Y-84829000I210000J0D01*
G01*
X140839000Y-84829000D01*
G75*
G02*
X141049000Y-85039000I0J-210000D01*
G01*
G37*
G36*
G01*
X147274000Y-85039000D02*
X147274000Y-86761000D01*
G75*
G02*
X147064000Y-86971000I-210000J0D01*
G01*
X145741000Y-86971000D01*
G75*
G02*
X145531000Y-86761000I0J210000D01*
G01*
X145531000Y-85039000D01*
G75*
G02*
X145741000Y-84829000I210000J0D01*
G01*
X147064000Y-84829000D01*
G75*
G02*
X147274000Y-85039000I0J-210000D01*
G01*
G37*
X139900000Y-98900000D03*
X138500000Y-98900000D03*
X135960000Y-98640000D03*
X137360000Y-98640000D03*
D31*
X146490000Y-103064760D03*
X146490000Y-98015240D03*
X146490000Y-111104760D03*
X146490000Y-106055240D03*
D16*
X142250000Y-122460000D03*
X143650000Y-122460000D03*
G36*
G01*
X145921000Y-114919000D02*
X144199000Y-114919000D01*
G75*
G02*
X143989000Y-114709000I0J210000D01*
G01*
X143989000Y-113386000D01*
G75*
G02*
X144199000Y-113176000I210000J0D01*
G01*
X145921000Y-113176000D01*
G75*
G02*
X146131000Y-113386000I0J-210000D01*
G01*
X146131000Y-114709000D01*
G75*
G02*
X145921000Y-114919000I-210000J0D01*
G01*
G37*
G36*
G01*
X145921000Y-121144000D02*
X144199000Y-121144000D01*
G75*
G02*
X143989000Y-120934000I0J210000D01*
G01*
X143989000Y-119611000D01*
G75*
G02*
X144199000Y-119401000I210000J0D01*
G01*
X145921000Y-119401000D01*
G75*
G02*
X146131000Y-119611000I0J-210000D01*
G01*
X146131000Y-120934000D01*
G75*
G02*
X145921000Y-121144000I-210000J0D01*
G01*
G37*
D14*
X137520000Y-104640000D03*
X137520000Y-103240000D03*
G36*
G01*
X139201000Y-125774000D02*
X137479000Y-125774000D01*
G75*
G02*
X137269000Y-125564000I0J210000D01*
G01*
X137269000Y-124241000D01*
G75*
G02*
X137479000Y-124031000I210000J0D01*
G01*
X139201000Y-124031000D01*
G75*
G02*
X139411000Y-124241000I0J-210000D01*
G01*
X139411000Y-125564000D01*
G75*
G02*
X139201000Y-125774000I-210000J0D01*
G01*
G37*
G36*
G01*
X139201000Y-119549000D02*
X137479000Y-119549000D01*
G75*
G02*
X137269000Y-119339000I0J210000D01*
G01*
X137269000Y-118016000D01*
G75*
G02*
X137479000Y-117806000I210000J0D01*
G01*
X139201000Y-117806000D01*
G75*
G02*
X139411000Y-118016000I0J-210000D01*
G01*
X139411000Y-119339000D01*
G75*
G02*
X139201000Y-119549000I-210000J0D01*
G01*
G37*
G36*
G01*
X137951000Y-97324000D02*
X136229000Y-97324000D01*
G75*
G02*
X136019000Y-97114000I0J210000D01*
G01*
X136019000Y-95791000D01*
G75*
G02*
X136229000Y-95581000I210000J0D01*
G01*
X137951000Y-95581000D01*
G75*
G02*
X138161000Y-95791000I0J-210000D01*
G01*
X138161000Y-97114000D01*
G75*
G02*
X137951000Y-97324000I-210000J0D01*
G01*
G37*
G36*
G01*
X137951000Y-91099000D02*
X136229000Y-91099000D01*
G75*
G02*
X136019000Y-90889000I0J210000D01*
G01*
X136019000Y-89566000D01*
G75*
G02*
X136229000Y-89356000I210000J0D01*
G01*
X137951000Y-89356000D01*
G75*
G02*
X138161000Y-89566000I0J-210000D01*
G01*
X138161000Y-90889000D01*
G75*
G02*
X137951000Y-91099000I-210000J0D01*
G01*
G37*
G36*
G01*
X142811000Y-97314000D02*
X141089000Y-97314000D01*
G75*
G02*
X140879000Y-97104000I0J210000D01*
G01*
X140879000Y-95781000D01*
G75*
G02*
X141089000Y-95571000I210000J0D01*
G01*
X142811000Y-95571000D01*
G75*
G02*
X143021000Y-95781000I0J-210000D01*
G01*
X143021000Y-97104000D01*
G75*
G02*
X142811000Y-97314000I-210000J0D01*
G01*
G37*
G36*
G01*
X142811000Y-91089000D02*
X141089000Y-91089000D01*
G75*
G02*
X140879000Y-90879000I0J210000D01*
G01*
X140879000Y-89556000D01*
G75*
G02*
X141089000Y-89346000I210000J0D01*
G01*
X142811000Y-89346000D01*
G75*
G02*
X143021000Y-89556000I0J-210000D01*
G01*
X143021000Y-90879000D01*
G75*
G02*
X142811000Y-91089000I-210000J0D01*
G01*
G37*
D16*
X136170000Y-100380000D03*
X137570000Y-100380000D03*
X137570000Y-101830000D03*
X136170000Y-101830000D03*
G36*
G01*
X145555000Y-94510000D02*
X147445000Y-94510000D01*
G75*
G02*
X147760000Y-94825000I0J-315000D01*
G01*
X147760000Y-95455000D01*
G75*
G02*
X147445000Y-95770000I-315000J0D01*
G01*
X145555000Y-95770000D01*
G75*
G02*
X145240000Y-95455000I0J315000D01*
G01*
X145240000Y-94825000D01*
G75*
G02*
X145555000Y-94510000I315000J0D01*
G01*
G37*
G36*
G01*
X145555000Y-89510000D02*
X147445000Y-89510000D01*
G75*
G02*
X147760000Y-89825000I0J-315000D01*
G01*
X147760000Y-90455000D01*
G75*
G02*
X147445000Y-90770000I-315000J0D01*
G01*
X145555000Y-90770000D01*
G75*
G02*
X145240000Y-90455000I0J315000D01*
G01*
X145240000Y-89825000D01*
G75*
G02*
X145555000Y-89510000I315000J0D01*
G01*
G37*
X143280000Y-99220000D03*
X141880000Y-99220000D03*
X142260000Y-125270000D03*
X143660000Y-125270000D03*
X143650000Y-123870000D03*
X142250000Y-123870000D03*
D14*
X136100000Y-104630000D03*
X136100000Y-103230000D03*
X136090000Y-107180000D03*
X136090000Y-105780000D03*
X186940000Y-107750000D03*
X186940000Y-109150000D03*
X185490000Y-109150000D03*
X185490000Y-107750000D03*
D32*
X199400000Y-85427500D03*
X199400000Y-87332500D03*
D16*
X197530000Y-87250000D03*
X196130000Y-87250000D03*
X188790000Y-76330000D03*
X190190000Y-76330000D03*
D14*
X190840000Y-74950000D03*
X190840000Y-73550000D03*
X200690000Y-79140000D03*
X200690000Y-77740000D03*
D19*
X188830000Y-81410000D03*
X188830000Y-82310000D03*
D33*
X149380000Y-83710000D03*
D34*
X152630000Y-83110000D03*
X153430000Y-83110000D03*
X154230000Y-83110000D03*
X155030000Y-83110000D03*
X155830000Y-83110000D03*
X156630000Y-83110000D03*
X157430000Y-83110000D03*
X158230000Y-83110000D03*
X159030000Y-83110000D03*
X159830000Y-83110000D03*
X160630000Y-83110000D03*
X161430000Y-83110000D03*
X162230000Y-83110000D03*
X163030000Y-83110000D03*
X163830000Y-83110000D03*
X164630000Y-83110000D03*
X165430000Y-83110000D03*
X152230000Y-91310000D03*
X153030000Y-91310000D03*
X153830000Y-91310000D03*
X154630000Y-91310000D03*
X155430000Y-91310000D03*
X156230000Y-91310000D03*
X157030000Y-91310000D03*
X157830000Y-91310000D03*
X158630000Y-91310000D03*
X159430000Y-91310000D03*
X160230000Y-91310000D03*
X161030000Y-91310000D03*
X161830000Y-91310000D03*
X162630000Y-91310000D03*
X163430000Y-91310000D03*
X164230000Y-91310000D03*
X165030000Y-91310000D03*
X166230000Y-83110000D03*
X165830000Y-91310000D03*
X169830000Y-91310000D03*
X170630000Y-91310000D03*
X171430000Y-91310000D03*
X172230000Y-91310000D03*
X173030000Y-91310000D03*
X173830000Y-91310000D03*
X174630000Y-91310000D03*
X175430000Y-91310000D03*
X170230000Y-83110000D03*
X171030000Y-83110000D03*
X171830000Y-83110000D03*
X172630000Y-83110000D03*
X173430000Y-83110000D03*
X174230000Y-83110000D03*
X175030000Y-83110000D03*
X175830000Y-83110000D03*
D33*
X178680000Y-83710000D03*
D35*
X208409000Y-81760000D03*
X211711000Y-81760000D03*
D14*
X187300000Y-74950000D03*
X187300000Y-73550000D03*
X194030000Y-67560000D03*
X194030000Y-68960000D03*
D16*
X192200000Y-73440000D03*
X193600000Y-73440000D03*
D32*
X195960000Y-71347500D03*
X195960000Y-73252500D03*
D16*
X182080000Y-78370000D03*
X183480000Y-78370000D03*
X185740000Y-84890000D03*
X187140000Y-84890000D03*
D36*
X203275460Y-76268280D03*
X203275460Y-75767900D03*
X203275460Y-75267520D03*
X203275460Y-74769680D03*
X203275460Y-74269300D03*
X203275460Y-73768920D03*
X203275460Y-73271080D03*
X203275460Y-72770700D03*
X203275460Y-72270320D03*
X203275460Y-71772480D03*
X203275460Y-71272100D03*
X203275460Y-70771720D03*
D37*
X204385440Y-70472000D03*
D38*
X205086480Y-71122240D03*
X205086480Y-71922340D03*
X204385440Y-72321120D03*
X205086480Y-72722440D03*
X204385440Y-73121220D03*
X204385440Y-73918780D03*
X205086480Y-74317560D03*
X204385440Y-74718880D03*
X205086480Y-75117660D03*
X205086480Y-75917760D03*
D37*
X204385440Y-76568000D03*
D39*
X203585340Y-78018340D03*
X203585340Y-69021660D03*
X209084440Y-79593140D03*
X209084440Y-67446860D03*
D40*
X193220000Y-70160000D03*
X192270000Y-72160000D03*
X194170000Y-72160000D03*
D41*
X205010000Y-79560000D03*
X205010000Y-82460000D03*
X206410000Y-82460000D03*
X206410000Y-79560000D03*
D42*
X199260000Y-68280000D03*
X201160000Y-68280000D03*
X200210000Y-70280000D03*
D14*
X188740000Y-73540000D03*
X188740000Y-74940000D03*
X201700000Y-71220000D03*
X201700000Y-72620000D03*
X196230000Y-69250000D03*
X196230000Y-67850000D03*
X200320000Y-73650000D03*
X200320000Y-75050000D03*
X198790000Y-73310000D03*
X198790000Y-71910000D03*
X197640000Y-69250000D03*
X197640000Y-67850000D03*
X201720000Y-75800000D03*
X201720000Y-74400000D03*
D16*
X203460000Y-79710000D03*
X202060000Y-79710000D03*
X203450000Y-81100000D03*
X202050000Y-81100000D03*
X190000000Y-85660000D03*
X188600000Y-85660000D03*
D14*
X187260000Y-86160000D03*
X187260000Y-87560000D03*
D16*
X189990000Y-87060000D03*
X188590000Y-87060000D03*
X193610000Y-74860000D03*
X192210000Y-74860000D03*
X191280000Y-87060000D03*
X192680000Y-87060000D03*
D14*
X201450000Y-82550000D03*
X201450000Y-83950000D03*
D16*
X197700000Y-74590000D03*
X196300000Y-74590000D03*
D43*
G36*
X187447030Y-68000000D02*
G01*
X187866324Y-67286000D01*
X188733676Y-67286000D01*
X189152970Y-68000000D01*
X187447030Y-68000000D01*
G37*
D44*
X186800000Y-71790000D03*
D45*
X188300000Y-71643500D03*
D44*
X189800000Y-71790000D03*
D46*
X188300000Y-68976500D03*
D43*
G36*
X188785390Y-70166200D02*
G01*
X188533390Y-70606200D01*
X188066610Y-70606200D01*
X187814610Y-70166200D01*
X188785390Y-70166200D01*
G37*
D47*
X186470000Y-78490000D03*
X186470000Y-82589999D03*
D48*
X155630000Y-70020000D03*
G36*
G01*
X151210000Y-67500000D02*
X152050000Y-67500000D01*
G75*
G02*
X152470000Y-67920000I0J-420000D01*
G01*
X152470000Y-72120000D01*
G75*
G02*
X152050000Y-72540000I-420000J0D01*
G01*
X151210000Y-72540000D01*
G75*
G02*
X150790000Y-72120000I0J420000D01*
G01*
X150790000Y-67920000D01*
G75*
G02*
X151210000Y-67500000I420000J0D01*
G01*
G37*
G36*
G01*
X151210000Y-77800000D02*
X152050000Y-77800000D01*
G75*
G02*
X152470000Y-78220000I0J-420000D01*
G01*
X152470000Y-80320000D01*
G75*
G02*
X152050000Y-80740000I-420000J0D01*
G01*
X151210000Y-80740000D01*
G75*
G02*
X150790000Y-80320000I0J420000D01*
G01*
X150790000Y-78220000D01*
G75*
G02*
X151210000Y-77800000I420000J0D01*
G01*
G37*
G36*
G01*
X155210000Y-77800000D02*
X156050000Y-77800000D01*
G75*
G02*
X156470000Y-78220000I0J-420000D01*
G01*
X156470000Y-80320000D01*
G75*
G02*
X156050000Y-80740000I-420000J0D01*
G01*
X155210000Y-80740000D01*
G75*
G02*
X154790000Y-80320000I0J420000D01*
G01*
X154790000Y-78220000D01*
G75*
G02*
X155210000Y-77800000I420000J0D01*
G01*
G37*
D49*
X193501000Y-136220000D03*
X190199000Y-136220000D03*
D50*
X192440000Y-133000000D03*
X193340000Y-133000000D03*
D51*
X193880000Y-132090000D03*
X193880000Y-131190000D03*
D50*
X190830000Y-134440000D03*
X189930000Y-134440000D03*
D51*
X188420000Y-124330000D03*
X188420000Y-125230000D03*
D52*
X186650000Y-121169000D03*
X186650000Y-124471000D03*
D51*
X189520000Y-124560000D03*
X189520000Y-123660000D03*
X194680000Y-124110000D03*
X194680000Y-123210000D03*
X194630000Y-133810000D03*
X194630000Y-132910000D03*
X197560000Y-118690000D03*
X197560000Y-119590000D03*
X198580000Y-119600000D03*
X198580000Y-118700000D03*
D53*
X187182000Y-126360000D03*
X185658000Y-126360000D03*
D16*
X183880000Y-137130000D03*
X182480000Y-137130000D03*
X179880000Y-136130000D03*
X181280000Y-136130000D03*
D14*
X185550000Y-132930000D03*
X185550000Y-131530000D03*
X192820000Y-120580000D03*
X192820000Y-121980000D03*
X191410000Y-120580000D03*
X191410000Y-121980000D03*
D50*
X186410000Y-129620000D03*
X185510000Y-129620000D03*
D14*
X190010000Y-120580000D03*
X190010000Y-121980000D03*
X188620000Y-120570000D03*
X188620000Y-121970000D03*
D50*
X185510000Y-128690000D03*
X186410000Y-128690000D03*
D14*
X194860000Y-118010000D03*
X194860000Y-119410000D03*
X196270000Y-118020000D03*
X196270000Y-119420000D03*
X193660000Y-125070000D03*
X193660000Y-126470000D03*
X188350000Y-136660000D03*
X188350000Y-135260000D03*
X185470000Y-135260000D03*
X185470000Y-136660000D03*
X186910000Y-136670000D03*
X186910000Y-135270000D03*
D16*
X193180000Y-134200000D03*
X191780000Y-134200000D03*
D51*
X191760000Y-125730000D03*
X191760000Y-126630000D03*
D16*
X204850000Y-117940000D03*
X206250000Y-117940000D03*
X200470000Y-117940000D03*
X201870000Y-117940000D03*
D14*
X203130000Y-118100000D03*
X203130000Y-116700000D03*
X207540000Y-116740000D03*
X207540000Y-118140000D03*
D16*
X204080000Y-119400000D03*
X205480000Y-119400000D03*
X209890000Y-119400000D03*
X208490000Y-119400000D03*
D50*
X194780000Y-129440000D03*
X193880000Y-129440000D03*
D51*
X193530000Y-128290000D03*
X193530000Y-127390000D03*
D50*
X193890000Y-130370000D03*
X194790000Y-130370000D03*
D51*
X194470000Y-127390000D03*
X194470000Y-128290000D03*
D54*
X192290000Y-131800000D03*
X192290000Y-131300000D03*
X192290000Y-130800000D03*
X192290000Y-130300000D03*
X192290000Y-129800000D03*
X192290000Y-129300000D03*
X192290000Y-128800000D03*
X192290000Y-128300000D03*
X187290000Y-128300000D03*
X187290000Y-129300000D03*
X187290000Y-129800000D03*
X187290000Y-130300000D03*
X187290000Y-130800000D03*
X187290000Y-131300000D03*
X187290000Y-131800000D03*
X187290000Y-128800000D03*
D55*
X191540000Y-127550000D03*
X191040000Y-127550000D03*
X190540000Y-127550000D03*
X190040000Y-127550000D03*
X189540000Y-127550000D03*
X189040000Y-127550000D03*
X188540000Y-127550000D03*
X188040000Y-127550000D03*
X188030000Y-132550000D03*
X188540000Y-132550000D03*
X189040000Y-132550000D03*
X189540000Y-132550000D03*
X190040000Y-132550000D03*
X190540000Y-132550000D03*
X191040000Y-132550000D03*
X191540000Y-132550000D03*
D56*
X191510000Y-123462500D03*
X191510000Y-124737500D03*
X190530000Y-124737500D03*
X190530000Y-123462500D03*
D57*
X167918280Y-76434540D03*
X167417900Y-76434540D03*
X166917520Y-76434540D03*
X166419680Y-76434540D03*
X165919300Y-76434540D03*
X165418920Y-76434540D03*
X164921080Y-76434540D03*
X164420700Y-76434540D03*
X163920320Y-76434540D03*
X163422480Y-76434540D03*
X162922100Y-76434540D03*
X162421720Y-76434540D03*
D58*
X162122000Y-75324560D03*
D38*
X162772240Y-74623520D03*
X163572340Y-74623520D03*
X163971120Y-75324560D03*
X164372440Y-74623520D03*
X164771220Y-75324560D03*
X165568780Y-75324560D03*
X165967560Y-74623520D03*
X166368880Y-75324560D03*
X166767660Y-74623520D03*
X167567760Y-74623520D03*
D58*
X168218000Y-75324560D03*
D59*
X169668340Y-76124660D03*
X160671660Y-76124660D03*
X171243140Y-70625560D03*
X159096860Y-70625560D03*
D16*
X172060000Y-79610000D03*
X173460000Y-79610000D03*
D60*
X148040000Y-73761000D03*
X148040000Y-70459000D03*
D14*
X164210000Y-79540000D03*
X164210000Y-80940000D03*
X134460000Y-87530000D03*
X134460000Y-86130000D03*
D16*
X138100000Y-83320000D03*
X136700000Y-83320000D03*
D35*
X167109000Y-80120000D03*
X170411000Y-80120000D03*
D14*
X132110000Y-108460000D03*
X132110000Y-109860000D03*
X131990000Y-106350000D03*
X131990000Y-104950000D03*
X137680000Y-106970000D03*
X137680000Y-108370000D03*
X131980000Y-103820000D03*
X131980000Y-102420000D03*
D61*
X161730000Y-78270000D03*
X160780000Y-78270000D03*
X162680000Y-78270000D03*
X162680000Y-80670000D03*
X161730000Y-80670000D03*
X160780000Y-80670000D03*
X135850000Y-87960000D03*
X136800000Y-87960000D03*
X137750000Y-87960000D03*
X137750000Y-85560000D03*
X135850000Y-85560000D03*
X136800000Y-85560000D03*
D14*
X176210000Y-78700000D03*
X176210000Y-77300000D03*
D16*
X136940000Y-132550000D03*
X135540000Y-132550000D03*
D14*
X118200000Y-134540000D03*
X118200000Y-133140000D03*
X116560000Y-132480000D03*
X116560000Y-133880000D03*
X131330000Y-127970000D03*
X131330000Y-129370000D03*
X131340000Y-125460000D03*
X131340000Y-126860000D03*
X131330000Y-134430000D03*
X131330000Y-133030000D03*
X131330000Y-131920000D03*
X131330000Y-130520000D03*
D16*
X114250000Y-131030000D03*
X115650000Y-131030000D03*
D14*
X117850000Y-129510000D03*
X117850000Y-130910000D03*
D62*
X134140000Y-135020000D03*
X134140000Y-136920000D03*
X132140000Y-135970000D03*
D16*
X99140000Y-63720000D03*
X97740000Y-63720000D03*
X176460000Y-80180000D03*
X175060000Y-80180000D03*
D14*
X172700000Y-76180000D03*
X172700000Y-74780000D03*
X178780000Y-79460000D03*
X178780000Y-80860000D03*
X158770000Y-77290000D03*
X158770000Y-75890000D03*
D63*
X96540000Y-141155001D03*
X95140000Y-141155001D03*
D16*
X99990000Y-141155001D03*
X98590000Y-141155001D03*
D63*
X95090000Y-63720000D03*
X96490000Y-63720000D03*
G36*
G01*
X184005000Y-72496000D02*
X181795000Y-72496000D01*
G75*
G02*
X181572000Y-72273000I0J223000D01*
G01*
X181572000Y-71827000D01*
G75*
G02*
X181795000Y-71604000I223000J0D01*
G01*
X184005000Y-71604000D01*
G75*
G02*
X184228000Y-71827000I0J-223000D01*
G01*
X184228000Y-72273000D01*
G75*
G02*
X184005000Y-72496000I-223000J0D01*
G01*
G37*
G36*
G01*
X184005000Y-70396000D02*
X181795000Y-70396000D01*
G75*
G02*
X181572000Y-70173000I0J223000D01*
G01*
X181572000Y-69727000D01*
G75*
G02*
X181795000Y-69504000I223000J0D01*
G01*
X184005000Y-69504000D01*
G75*
G02*
X184228000Y-69727000I0J-223000D01*
G01*
X184228000Y-70173000D01*
G75*
G02*
X184005000Y-70396000I-223000J0D01*
G01*
G37*
D16*
X111280000Y-129490000D03*
X112680000Y-129490000D03*
M02*
