G04 #@! TF.GenerationSoftware,KiCad,Pcbnew,(5.99.0-9713-g2bc22de1a5)*
G04 #@! TF.CreationDate,2021-03-16T21:30:56+01:00*
G04 #@! TF.ProjectId,stm32mp1-custom-devboard,73746d33-326d-4703-912d-637573746f6d,V1.0*
G04 #@! TF.SameCoordinates,Original*
G04 #@! TF.FileFunction,Paste,Bot*
G04 #@! TF.FilePolarity,Positive*
%FSLAX46Y46*%
G04 Gerber Fmt 4.6, Leading zero omitted, Abs format (unit mm)*
G04 Created by KiCad (PCBNEW (5.99.0-9713-g2bc22de1a5)) date 2021-03-16 21:30:56*
%MOMM*%
%LPD*%
G01*
G04 APERTURE LIST*
%ADD10O,0.600000X1.200000*%
%ADD11C,0.650000*%
%ADD12O,1.998980X0.998220*%
%ADD13O,1.200000X0.600000*%
%ADD14O,0.998220X1.998980*%
%ADD15C,1.397000*%
%ADD16C,1.529080*%
%ADD17C,2.443480*%
G04 APERTURE END LIST*
D10*
X204385440Y-70472000D03*
D11*
X205086480Y-71122240D03*
X205086480Y-71922340D03*
X204385440Y-72321120D03*
X205086480Y-72722440D03*
X204385440Y-73121220D03*
X204385440Y-73918780D03*
X205086480Y-74317560D03*
X204385440Y-74718880D03*
X205086480Y-75117660D03*
X205086480Y-75917760D03*
D10*
X204385440Y-76568000D03*
D12*
X203585340Y-78018340D03*
X203585340Y-69021660D03*
X209084440Y-79593140D03*
X209084440Y-67446860D03*
D13*
X162122000Y-71044560D03*
D11*
X162772240Y-70343520D03*
X163572340Y-70343520D03*
X163971120Y-71044560D03*
X164372440Y-70343520D03*
X164771220Y-71044560D03*
X165568780Y-71044560D03*
X165967560Y-70343520D03*
X166368880Y-71044560D03*
X166767660Y-70343520D03*
X167567760Y-70343520D03*
D13*
X168218000Y-71044560D03*
D14*
X169668340Y-71844660D03*
X160671660Y-71844660D03*
X171243140Y-66345560D03*
X159096860Y-66345560D03*
D15*
X199520000Y-137579920D03*
X196980000Y-136317540D03*
X199520000Y-135039920D03*
X196980000Y-133777540D03*
X199520000Y-132502460D03*
X196980000Y-131240080D03*
X199520000Y-129962460D03*
X196980000Y-128700080D03*
D16*
X209979720Y-139464600D03*
X209979720Y-136924600D03*
X209979720Y-129355400D03*
X209979720Y-126815400D03*
D17*
X201971100Y-141087660D03*
X201971100Y-125192340D03*
M02*
