M48
; DRILL file {KiCad (5.99.0-9713-g2bc22de1a5)} date 03/16/21 21:30:54
; FORMAT={-:-/ absolute / inch / decimal}
; #@! TF.CreationDate,2021-03-16T21:30:54+01:00
; #@! TF.GenerationSoftware,Kicad,Pcbnew,(5.99.0-9713-g2bc22de1a5)
; #@! TF.FileFunction,Plated,1,4,PTH
FMAT,2
INCH
; #@! TA.AperFunction,ViaDrill
T1C0.0079
; #@! TA.AperFunction,ViaDrill
T2C0.0118
; #@! TA.AperFunction,ComponentDrill
T3C0.0118
; #@! TA.AperFunction,ViaDrill
T4C0.0157
; #@! TA.AperFunction,ComponentDrill
T5C0.0157
; #@! TA.AperFunction,ComponentDrill
T6C0.0197
; #@! TA.AperFunction,ComponentDrill
T7C0.0350
; #@! TA.AperFunction,ComponentDrill
T8C0.0400
; #@! TA.AperFunction,ComponentDrill
T9C0.0401
; #@! TA.AperFunction,ComponentDrill
T10C0.0591
; #@! TA.AperFunction,ComponentDrill
T11C0.0641
; #@! TA.AperFunction,ComponentDrill
T12C0.0906
%
G90
G05
T1
; via hole
X3.7409Y-2.5547
X3.9374Y-2.5087
X3.972Y-5.5311
X4.2051Y-4.3248
X4.2161Y-5.1508
X4.2276Y-4.3394
X4.2433Y-5.1421
X4.2501Y-4.377
X4.2713Y-3.7127
X4.2856Y-3.802
X4.303Y-3.8219
X4.3634Y-4.3276
X4.3764Y-4.2791
X4.3976Y-4.7331
X4.3991Y-4.2377
X4.4277Y-3.422
X4.4657Y-3.6165
X4.4685Y-5.1602
X4.4721Y-3.7841
X4.4748Y-5.0364
X4.4772Y-5.098
X4.486Y-3.4348
X4.487Y-3.552
X4.4948Y-4.4488
X4.496Y-4.5654
X4.4996Y-5.0301
X4.5089Y-5.0015
X4.5165Y-4.8543
X4.5193Y-3.4906
X4.5276Y-3.3957
X4.5321Y-4.9558
X4.5453Y-4.8972
X4.5637Y-3.3839
X4.5756Y-4.9634
X4.5811Y-4.4927
X4.5834Y-4.4543
X4.5886Y-3.3898
X4.589Y-5.2957
X4.5959Y-3.3518
X4.5968Y-3.4793
X4.6042Y-3.7849
X4.6052Y-3.5111
X4.6075Y-4.9852
X4.6109Y-3.5909
X4.6167Y-3.3948
X4.6189Y-4.9406
X4.6294Y-4.6259
X4.6298Y-4.698
X4.6374Y-5.5504
X4.6394Y-3.4594
X4.6411Y-3.3271
X4.6476Y-4.9373
X4.6477Y-3.5571
X4.6482Y-4.6086
X4.6495Y-2.8489
X4.6496Y-3.7902
X4.6526Y-3.8433
X4.6531Y-5.3232
X4.6551Y-4.6634
X4.6573Y-4.7515
X4.6583Y-4.8134
X4.6621Y-3.628
X4.6626Y-4.1504
X4.6669Y-3.7693
X4.6697Y-4.3673
X4.6748Y-2.8594
X4.6791Y-4.0791
X4.6791Y-4.2622
X4.6794Y-4.2311
X4.6803Y-4.1406
X4.6835Y-4.0524
X4.6878Y-4.2957
X4.689Y-4.102
X4.6903Y-3.8548
X4.6903Y-3.8736
X4.6903Y-3.8937
X4.6903Y-3.9122
X4.6903Y-3.9311
X4.6903Y-3.9504
X4.6903Y-3.9689
X4.6903Y-3.9894
X4.6921Y-3.7244
X4.697Y-4.42
X4.6978Y-3.6795
X4.7039Y-5.3079
X4.7066Y-4.5362
X4.7084Y-3.7028
X4.7124Y-3.4902
X4.8032Y-3.6313
X4.8033Y-3.1561
X4.8035Y-2.9945
X4.8035Y-4.2232
X4.8039Y-2.9705
X4.8039Y-4.5531
X4.8042Y-3.5412
X4.8042Y-3.5846
X4.8042Y-3.6075
X4.8043Y-3.0409
X4.8043Y-4.4346
X4.8047Y-3.0177
X4.8051Y-3.0654
X4.8053Y-3.4186
X4.8055Y-3.1118
X4.8055Y-4.3169
X4.8059Y-2.7809
X4.8059Y-3.1358
X4.8059Y-3.3016
X4.8063Y-3.0886
X4.8067Y-4.9547
X4.8114Y-4.8366
X4.8122Y-4.9772
X4.8126Y-4.8126
X4.8126Y-5.0276
X4.8209Y-5.0476
X4.8214Y-2.8496
X4.8219Y-2.878
X4.8236Y-3.5602
X4.8264Y-4.5985
X4.8315Y-2.9217
X4.8315Y-2.9488
X4.8358Y-4.2236
X4.8378Y-4.2539
X4.8382Y-3.152
X4.8413Y-4.4224
X4.8421Y-3.5117
X4.8446Y-3.1807
X4.8504Y-5.0327
X4.8524Y-3.3028
X4.8567Y-3.7154
X4.8613Y-3.202
X4.8692Y-5.2158
X4.8705Y-3.6933
X4.8728Y-4.5492
X4.8831Y-3.1386
X4.9006Y-3.8113
X4.9079Y-3.1315
X4.9099Y-3.4657
X4.9142Y-4.4764
X4.9154Y-4.4272
X4.9158Y-3.2191
X4.9227Y-3.4878
X4.9252Y-4.5417
X4.9313Y-3.2868
X4.9315Y-2.9134
X4.9347Y-3.6524
X4.9376Y-5.061
X4.939Y-3.3528
X4.9398Y-3.8441
X4.9398Y-4.6649
X4.9502Y-3.6916
X4.9547Y-3.2071
X4.956Y-3.7543
X4.9576Y-3.4346
X4.9682Y-5.0404
X4.9752Y-4.9712
X4.9862Y-3.5752
X4.987Y-4.6016
X4.989Y-3.0749
X4.9904Y-3.5317
X4.9912Y-3.1465
X4.9967Y-3.6491
X4.9984Y-3.2257
X4.9989Y-4.9807
X5.0Y-3.3807
X5.0004Y-2.9898
X5.0015Y-3.4138
X5.0059Y-2.9476
X5.0079Y-4.3315
X5.0083Y-4.5154
X5.0083Y-5.1752
X5.0091Y-2.9118
X5.0118Y-3.5768
X5.0142Y-4.9394
X5.0173Y-3.7475
X5.0173Y-4.8728
X5.0177Y-4.655
X5.0177Y-3.8016
X5.0188Y-3.776
X5.0189Y-4.5421
X5.0189Y-5.1082
X5.0193Y-4.4469
X5.0201Y-2.7937
X5.0201Y-3.2665
X5.021Y-3.8845
X5.0212Y-3.6447
X5.0213Y-5.085
X5.0213Y-3.9167
X5.0217Y-3.0598
X5.0323Y-4.3095
X5.1236Y-5.3626
X5.1285Y-3.7598
X5.1295Y-2.8656
X5.1303Y-3.3638
X5.1303Y-4.0575
X5.1303Y-5.0126
X5.1331Y-4.2188
X5.1358Y-3.2866
X5.1362Y-4.1567
X5.1367Y-4.1934
X5.1396Y-4.639
X5.1402Y-4.0835
X5.1417Y-4.4378
X5.1437Y-4.1331
X5.1469Y-2.8386
X5.1567Y-3.6571
X5.1579Y-3.9996
X5.1661Y-4.415
X5.1674Y-4.8739
X5.1719Y-4.522
X5.1881Y-4.4304
X5.1898Y-5.1634
X5.1929Y-4.8063
X5.2047Y-5.0933
X5.2059Y-3.9685
X5.2087Y-4.9094
X5.2094Y-4.9996
X5.2172Y-4.6726
X5.2358Y-3.8744
X5.2362Y-4.0752
X5.2571Y-3.6574
X5.266Y-4.6376
X5.3169Y-3.0378
X5.3209Y-3.8213
X5.3213Y-3.985
X5.3224Y-4.0496
X5.3236Y-5.1354
X5.3248Y-4.285
X5.3248Y-4.4476
X5.327Y-4.3728
X5.328Y-4.2594
X5.3291Y-4.8094
X5.3394Y-4.4764
X5.3428Y-3.4968
X5.3441Y-4.8736
X5.3465Y-4.661
X5.3575Y-5.0728
X5.3583Y-5.4787
X5.361Y-3.9807
X5.3638Y-4.2866
X5.3638Y-4.315
X5.3744Y-4.9748
X5.3782Y-3.2453
X5.3823Y-4.2681
X5.387Y-4.1197
X5.4138Y-3.4937
X5.4356Y-3.2453
X5.4622Y-3.0697
X5.5209Y-4.7406
X5.5354Y-3.9319
X5.5374Y-4.2567
X5.5394Y-3.072
X5.5779Y-3.2478
X5.5976Y-5.4862
X5.5996Y-5.2744
X5.6201Y-2.8673
X5.6343Y-3.3248
X5.637Y-2.8843
X5.6551Y-2.9024
X5.6626Y-3.2237
X5.6629Y-3.6791
X5.6698Y-3.9143
X5.6709Y-4.326
X5.6736Y-4.209
X5.6854Y-4.6417
X5.6941Y-4.209
X5.7272Y-4.9689
X5.7406Y-3.1276
X5.75Y-4.9657
X5.765Y-3.0417
X5.7673Y-4.1209
X5.7703Y-5.1946
X5.8087Y-3.0437
X5.8788Y-4.4806
X5.911Y-5.1052
X5.9787Y-4.872
X5.9795Y-3.0985
X5.9961Y-3.5272
X6.0154Y-4.5128
X6.019Y-3.1996
X6.0228Y-3.6498
X6.0276Y-3.761
X6.0382Y-3.9862
X6.0406Y-4.572
X6.0433Y-3.2154
X6.0511Y-4.9502
X6.052Y-3.1602
X6.056Y-3.7882
X6.077Y-4.5723
X6.0886Y-4.4335
X6.11Y-4.9494
X6.1106Y-3.4239
X6.1165Y-4.6591
X6.1189Y-3.3539
X6.128Y-4.572
X6.1332Y-5.0135
X6.1587Y-3.3799
X6.1622Y-5.0084
X6.1725Y-3.3609
X6.1828Y-3.6487
X6.1944Y-3.8198
X6.2295Y-3.2102
X6.2594Y-3.2102
X6.2646Y-3.8198
X6.2669Y-5.1661
X6.2764Y-3.6554
X6.2976Y-4.5709
X6.3102Y-3.2114
X6.3394Y-4.5531
X6.3413Y-3.4586
X6.3441Y-4.1268
X6.3457Y-3.212
X6.3547Y-3.3567
X6.3577Y-3.3289
X6.3634Y-3.8232
X6.3639Y-3.5378
X6.3815Y-4.0866
X6.3843Y-3.2159
X6.387Y-3.3303
X6.4024Y-3.6508
X6.4031Y-5.1752
X6.4047Y-2.9008
X6.4067Y-4.6067
X6.4604Y-5.2087
X6.4684Y-3.7055
X6.4775Y-3.3343
X6.4836Y-5.2198
X6.4933Y-3.6839
X6.5031Y-3.348
X6.5061Y-2.9576
X6.5067Y-4.6067
X6.5125Y-2.8725
X6.5319Y-3.3328
X6.5415Y-2.8726
X6.55Y-3.0059
X6.5504Y-3.3788
X6.5563Y-3.828
X6.6024Y-3.8291
X6.6031Y-5.2319
X6.6067Y-4.6067
X6.6504Y-3.8291
X6.7031Y-3.3286
X6.7055Y-3.8283
X6.7067Y-4.6067
X6.8035Y-3.3233
X6.8067Y-4.6067
X6.8378Y-3.4354
X6.8696Y-3.5484
X6.8771Y-4.1121
X6.9079Y-3.6736
X6.9277Y-3.353
X6.9382Y-2.8799
X6.9469Y-4.7
X6.9469Y-4.7882
X6.9491Y-4.0989
X6.9717Y-4.694
X6.9835Y-3.7874
X6.9866Y-3.4787
X6.9887Y-4.2529
X6.9935Y-4.7317
X7.0079Y-3.7531
X7.0208Y-2.8772
X7.039Y-2.7831
X7.0591Y-4.1453
X7.0689Y-3.6921
X7.0837Y-4.3594
X7.0878Y-3.6437
X7.0902Y-4.6106
X7.1Y-4.0496
X7.1102Y-3.6244
X7.113Y-2.8929
X7.1839Y-5.3591
X7.2008Y-2.9122
X7.2177Y-3.6307
X7.2213Y-4.7516
X7.2244Y-3.6882
X7.2252Y-4.4516
X7.2303Y-4.4137
X7.231Y-3.2319
X7.2476Y-5.0567
X7.25Y-4.4311
X7.2543Y-4.0846
X7.2594Y-3.7197
X7.2713Y-3.3827
X7.2723Y-5.1016
X7.2732Y-5.1315
X7.2791Y-3.8858
X7.2808Y-3.3098
X7.2835Y-4.1311
X7.2846Y-3.987
X7.2865Y-3.9197
X7.2865Y-3.9472
X7.2878Y-4.0829
X7.2906Y-3.8614
X7.2912Y-3.8358
X7.2935Y-4.0114
X7.302Y-5.4098
X7.3055Y-5.2632
X7.313Y-4.6776
X7.3366Y-4.4161
X7.3499Y-5.1703
X7.3611Y-5.1933
X7.3642Y-5.287
X7.3709Y-5.0114
X7.3768Y-3.9043
X7.3778Y-5.2391
X7.3805Y-5.2645
X7.383Y-4.0217
X7.383Y-4.0831
X7.3988Y-4.9896
X7.4076Y-4.9656
X7.4098Y-3.2059
X7.415Y-4.8319
X7.424Y-4.2496
X7.4283Y-3.2978
X7.4315Y-3.3236
X7.4341Y-4.9621
X7.4437Y-3.085
X7.4475Y-4.9403
X7.45Y-4.8346
X7.4524Y-3.1283
X7.4567Y-2.8736
X7.4626Y-3.3454
X7.4718Y-4.9308
X7.477Y-2.9409
X7.4841Y-3.464
X7.4951Y-5.2675
X7.5055Y-4.9555
X7.5098Y-4.8287
X7.5142Y-3.3634
X7.5209Y-5.2498
X7.5211Y-4.9819
X7.5283Y-2.8571
X7.5436Y-3.2234
X7.5472Y-3.263
X7.5571Y-3.1835
X7.5578Y-3.1039
X7.5654Y-4.8594
X7.5681Y-4.8291
X7.5777Y-5.3095
X7.5889Y-4.9965
X7.5907Y-5.022
X7.5941Y-4.9709
X7.5941Y-2.665
X7.5985Y-5.1772
X7.6051Y-3.5111
X7.6075Y-2.8409
X7.6075Y-5.1299
X7.618Y-5.0998
X7.6193Y-4.7063
X7.6244Y-3.4043
X7.6283Y-5.276
X7.6318Y-2.9142
X7.6339Y-3.3035
X7.663Y-3.2772
X7.6677Y-5.1969
X7.6697Y-4.9209
X7.6713Y-4.6094
X7.6733Y-5.0787
X7.6793Y-5.0538
X7.6807Y-2.9335
X7.6937Y-2.8508
X7.7146Y-3.1933
X7.7212Y-4.739
X7.7256Y-2.5839
X7.7256Y-2.7594
X7.7646Y-4.6437
X7.7685Y-3.1354
X7.7696Y-3.1609
X7.7795Y-2.9756
X7.7841Y-2.5795
X7.8016Y-3.007
X7.8134Y-2.9366
X7.8457Y-2.784
X7.8591Y-3.0063
X7.8598Y-4.6429
X7.8669Y-3.0705
X7.8799Y-3.2547
X7.8906Y-3.3311
X7.8937Y-3.1539
X7.9012Y-3.2087
X7.927Y-3.1947
X7.9378Y-4.6846
X7.9421Y-3.0933
X7.9752Y-2.7689
X7.978Y-2.8847
X8.0307Y-3.248
X8.0362Y-4.6276
X8.1004Y-3.2012
X8.1366Y-4.6921
X8.1378Y-3.163
T2
X4.3082Y-3.9206
X4.3118Y-4.0618
X4.3122Y-3.9878
X4.4377Y-4.745
X4.4789Y-4.7861
X4.5041Y-3.5836
X4.5463Y-4.8106
X4.5736Y-4.5602
X4.5839Y-3.2472
X4.6217Y-5.0413
X4.6567Y-5.0724
X4.824Y-5.2083
X4.8347Y-4.6655
X4.8476Y-5.3055
X4.9877Y-4.7858
X4.989Y-5.372
X5.0243Y-4.7858
X5.1346Y-5.2559
X5.152Y-3.8902
X5.1744Y-3.8724
X5.1744Y-3.8724
X5.1744Y-3.8724
X5.1744Y-3.8724
X5.178Y-3.9063
X5.3252Y-3.9003
X5.3717Y-5.365
X5.4484Y-3.9748
X5.4615Y-3.5314
X5.466Y-3.7969
X5.4879Y-3.5318
X5.4921Y-3.7795
X5.5071Y-3.5087
X5.5106Y-3.7652
X5.5161Y-4.8925
X5.5161Y-4.9319
X5.5461Y-4.9319
X5.5528Y-3.478
X5.5697Y-4.4673
X5.5705Y-5.2638
X5.574Y-4.9319
X5.5807Y-3.4749
X5.6106Y-3.4846
X5.6222Y-5.297
X5.673Y-3.4491
X5.6858Y-4.8201
X5.713Y-4.7957
X5.7496Y-4.7984
X5.785Y-4.8004
X5.826Y-4.463
X5.8689Y-3.0414
X5.8823Y-3.5012
X5.9161Y-3.4496
X6.0146Y-3.4528
X6.0394Y-4.7465
X6.0898Y-3.5193
X6.1291Y-4.8315
X6.1854Y-3.5134
X6.2744Y-3.5138
X6.2795Y-3.8465
X6.2894Y-4.7969
X6.2894Y-4.8469
X6.2894Y-4.8969
X6.3066Y-3.5162
X6.335Y-3.8862
X6.3394Y-4.7969
X6.3394Y-4.8469
X6.3394Y-4.8969
X6.3476Y-5.1488
X6.3603Y-3.7434
X6.3657Y-4.6858
X6.3811Y-4.9976
X6.3894Y-4.7969
X6.3894Y-4.8469
X6.3894Y-4.8969
X6.4024Y-3.8276
X6.4157Y-4.6858
X6.4173Y-3.8961
X6.4348Y-3.8356
X6.4394Y-4.7969
X6.4394Y-4.8469
X6.4394Y-4.8969
X6.45Y-3.9454
X6.4579Y-3.887
X6.4587Y-4.9976
X6.4642Y-4.4664
X6.4657Y-4.6858
X6.4894Y-4.7969
X6.4894Y-4.8469
X6.4894Y-4.8969
X6.5157Y-4.6858
X6.5245Y-3.7434
X6.5335Y-4.9965
X6.5394Y-4.7969
X6.5394Y-4.8469
X6.5394Y-4.8969
X6.5657Y-4.6858
X6.5811Y-3.6661
X6.5894Y-4.7969
X6.5894Y-4.8469
X6.5894Y-4.8969
X6.5913Y-3.7004
X6.5925Y-3.9454
X6.597Y-3.5237
X6.6043Y-4.9953
X6.6157Y-4.6858
X6.6197Y-3.5488
X6.6244Y-4.4664
X6.6295Y-3.9454
X6.6394Y-4.7969
X6.6394Y-4.8469
X6.6394Y-4.8969
X6.6657Y-4.6858
X6.672Y-3.8953
X6.6894Y-4.7969
X6.6894Y-4.8469
X6.6894Y-4.8969
X6.6925Y-4.9953
X6.7087Y-3.9654
X6.7157Y-4.6858
X6.7394Y-4.7969
X6.7394Y-4.8469
X6.7394Y-4.8969
X6.7516Y-4.4657
X6.7657Y-4.6858
X6.7709Y-3.9661
X6.7894Y-4.7969
X6.7894Y-4.8469
X6.7894Y-4.8969
X6.7913Y-4.9965
X6.8157Y-4.6858
X6.824Y-4.1563
X6.8394Y-4.7969
X6.8394Y-4.8469
X6.8394Y-4.8969
X6.8614Y-3.6669
X6.8866Y-4.2126
X6.8866Y-4.9976
X6.9213Y-4.1799
X6.9394Y-2.787
X6.9694Y-3.7516
X6.9705Y-4.9965
X6.9783Y-3.6819
X7.026Y-4.7051
X7.0524Y-4.9976
X7.0547Y-4.6492
X7.0929Y-3.5613
X7.1016Y-3.4276
X7.1228Y-2.6843
X7.1571Y-3.1366
X7.2217Y-4.9512
X7.236Y-3.5433
X7.3311Y-3.5787
X7.335Y-3.4173
X7.3445Y-4.8248
X7.478Y-4.6327
X7.4854Y-2.7327
X7.5079Y-4.6768
X7.5449Y-4.6634
X7.5524Y-3.4713
X7.8803Y-2.7224
X7.887Y-2.8323
X8.3492Y-3.1228
T3
; pad hole
X5.5205Y-4.0516
X5.5205Y-4.1303
X5.5598Y-4.0516
X5.5598Y-4.1303
X5.5992Y-4.0516
X5.5992Y-4.1303
X5.7165Y-4.8689
X5.7165Y-4.9043
X5.75Y-4.8689
X5.75Y-4.9043
X5.7835Y-4.8689
X5.7835Y-4.9043
X7.4327Y-5.0807
X7.4327Y-5.1201
X7.4327Y-5.1594
X7.472Y-5.0807
X7.472Y-5.1201
X7.472Y-5.1594
X7.5114Y-5.0807
X7.5114Y-5.1201
X7.5114Y-5.1594
T4
; via hole
X6.1272Y-2.8965
X6.1272Y-2.9323
X6.1272Y-2.9673
X6.1272Y-3.0004
X6.1272Y-3.0343
T5
; pad hole
X6.4084Y-2.7694
X6.4399Y-2.7694
X6.4556Y-2.797
X6.4714Y-2.7694
X6.4871Y-2.797
X6.5185Y-2.797
X6.5342Y-2.7694
X6.55Y-2.797
X6.5657Y-2.7694
X6.5972Y-2.7694
X8.0467Y-2.8473
X8.0467Y-2.8788
X8.0467Y-2.9102
X8.0467Y-2.9417
X8.0743Y-2.8001
X8.0743Y-2.8316
X8.0743Y-2.8631
X8.0743Y-2.9259
X8.0743Y-2.9574
X8.0743Y-2.9889
T7
X7.7551Y-5.0669
X7.7551Y-5.1669
X7.7551Y-5.2668
X7.7551Y-5.3668
X7.8551Y-5.1166
X7.8551Y-5.2166
X7.8551Y-5.3165
X7.8551Y-5.4165
T8
X5.2645Y-3.8254
X5.2645Y-3.9254
X5.2645Y-4.0254
X5.2645Y-4.1254
X5.2645Y-4.2254
X5.2645Y-4.3254
X5.2645Y-4.4254
X5.2645Y-4.5254
X5.2645Y-4.7254
X5.2645Y-4.8254
X5.2645Y-4.9254
X5.2645Y-5.0254
X5.2645Y-5.1254
X5.2645Y-5.2254
X6.1645Y-5.2304
X6.1645Y-5.3304
X6.2645Y-5.2304
X6.2645Y-5.3304
X6.3645Y-5.2304
X6.3645Y-5.3304
X7.1645Y-3.4654
X7.1645Y-3.5654
X7.1645Y-3.6654
X7.1645Y-3.7654
X7.1645Y-3.8654
X7.1645Y-3.9654
X7.1645Y-4.0654
X7.1645Y-4.1654
X7.1645Y-4.2654
X7.1645Y-4.3654
X7.1645Y-4.5254
X7.1645Y-4.6254
X7.1645Y-4.7254
X7.1645Y-4.8254
X7.1645Y-4.9254
X7.1645Y-5.0254
X7.1645Y-5.1254
X7.1645Y-5.2254
T9
X8.2669Y-4.9927
X8.2669Y-5.0927
X8.2669Y-5.3907
X8.2669Y-5.4907
T10
X4.9134Y-2.7126
X4.9134Y-5.3425
T11
X7.9516Y-4.9288
X7.9516Y-5.5546
T12
X5.2626Y-2.8528
X5.7799Y-2.8528
T5
; pad hole
G00X6.3926Y-2.797
M15
G01X6.3729Y-2.797
M16
G05
G00X6.6326Y-2.797
M15
G01X6.6129Y-2.797
M16
G05
G00X8.0467Y-2.7843
M15
G01X8.0467Y-2.7646
M16
G05
G00X8.0467Y-3.0243
M15
G01X8.0467Y-3.0046
M16
G05
T6
G00X6.2637Y-2.5923
M15
G01X6.2637Y-2.6317
M16
G05
G00X6.3257Y-2.8167
M15
G01X6.3257Y-2.8403
M16
G05
G00X6.6799Y-2.8167
M15
G01X6.6799Y-2.8403
M16
G05
G00X6.7419Y-2.5923
M15
G01X6.7419Y-2.6317
M16
G05
G00X8.027Y-2.7174
M15
G01X8.0034Y-2.7174
M16
G05
G00X8.027Y-3.0716
M15
G01X8.0034Y-3.0716
M16
G05
G00X8.2514Y-2.6554
M15
G01X8.212Y-2.6554
M16
G05
G00X8.2514Y-3.1336
M15
G01X8.212Y-3.1336
M16
G05
T0
M30
