G04 #@! TF.GenerationSoftware,KiCad,Pcbnew,5.1.9-73d0e3b20d~88~ubuntu20.04.1*
G04 #@! TF.CreationDate,2021-01-23T10:02:57+01:00*
G04 #@! TF.ProjectId,stm32mp1-custom-devboard,73746d33-326d-4703-912d-637573746f6d,V1.0*
G04 #@! TF.SameCoordinates,Original*
G04 #@! TF.FileFunction,Paste,Bot*
G04 #@! TF.FilePolarity,Positive*
%FSLAX46Y46*%
G04 Gerber Fmt 4.6, Leading zero omitted, Abs format (unit mm)*
G04 Created by KiCad (PCBNEW 5.1.9-73d0e3b20d~88~ubuntu20.04.1) date 2021-01-23 10:02:57*
%MOMM*%
%LPD*%
G01*
G04 APERTURE LIST*
%ADD10C,2.052524*%
%ADD11C,1.284428*%
%ADD12C,1.173480*%
%ADD13O,0.544068X1.090270*%
%ADD14C,0.546000*%
%ADD15O,1.679144X0.838504*%
%ADD16O,1.090270X0.544068*%
%ADD17O,0.838504X1.679144*%
G04 APERTURE END LIST*
D10*
X201971100Y-125192340D03*
X201971100Y-141087660D03*
D11*
X209979720Y-126815400D03*
X209979720Y-129355400D03*
X209979720Y-136924600D03*
X209979720Y-139464600D03*
D12*
X196980000Y-128700080D03*
X199520000Y-129962460D03*
X196980000Y-131240080D03*
X199520000Y-132502460D03*
X196980000Y-133777540D03*
X199520000Y-135039920D03*
X196980000Y-136317540D03*
X199520000Y-137579920D03*
D13*
X204385440Y-70472000D03*
D14*
X205086480Y-71122240D03*
X205086480Y-71922340D03*
X204385440Y-72321120D03*
X205086480Y-72722440D03*
X204385440Y-73121220D03*
X204385440Y-73918780D03*
X205086480Y-74317560D03*
X204385440Y-74718880D03*
X205086480Y-75117660D03*
X205086480Y-75917760D03*
D13*
X204385440Y-76568000D03*
D15*
X203585340Y-78018340D03*
X203585340Y-69021660D03*
X209084440Y-79593140D03*
X209084440Y-67446860D03*
D16*
X162122000Y-75324560D03*
D14*
X162772240Y-74623520D03*
X163572340Y-74623520D03*
X163971120Y-75324560D03*
X164372440Y-74623520D03*
X164771220Y-75324560D03*
X165568780Y-75324560D03*
X165967560Y-74623520D03*
X166368880Y-75324560D03*
X166767660Y-74623520D03*
X167567760Y-74623520D03*
D16*
X168218000Y-75324560D03*
D17*
X169668340Y-76124660D03*
X160671660Y-76124660D03*
X171243140Y-70625560D03*
X159096860Y-70625560D03*
M02*
