M48
; DRILL file {KiCad (5.99.0-10624-g2131a44889)} date Mon May 24 23:42:25 2021
; FORMAT={-:-/ absolute / inch / decimal}
; #@! TF.CreationDate,2021-05-24T23:42:25+02:00
; #@! TF.GenerationSoftware,Kicad,Pcbnew,(5.99.0-10624-g2131a44889)
; #@! TF.FileFunction,Plated,1,4,PTH
FMAT,2
INCH
; #@! TA.AperFunction,Plated,PTH,ViaDrill
T1C0.0079
; #@! TA.AperFunction,Plated,PTH,ViaDrill
T2C0.0118
; #@! TA.AperFunction,Plated,PTH,ComponentDrill
T3C0.0118
; #@! TA.AperFunction,Plated,PTH,ViaDrill
T4C0.0157
; #@! TA.AperFunction,Plated,PTH,ComponentDrill
T5C0.0157
; #@! TA.AperFunction,Plated,PTH,ComponentDrill
T6C0.0236
; #@! TA.AperFunction,Plated,PTH,ComponentDrill
T7C0.0350
; #@! TA.AperFunction,Plated,PTH,ComponentDrill
T8C0.0400
; #@! TA.AperFunction,Plated,PTH,ComponentDrill
T9C0.0401
; #@! TA.AperFunction,Plated,PTH,ComponentDrill
T10C0.0591
; #@! TA.AperFunction,Plated,PTH,ComponentDrill
T11C0.0641
; #@! TA.AperFunction,Plated,PTH,ComponentDrill
T12C0.0906
%
G90
G05
T1
X3.9374Y-2.5087
X3.972Y-5.5311
X4.0906Y-4.2646
X4.1157Y-4.2815
X4.1402Y-3.8315
X4.2161Y-5.1508
X4.2433Y-5.1421
X4.2555Y-5.4677
X4.2854Y-4.2697
X4.2866Y-4.3181
X4.3972Y-4.7776
X4.4268Y-5.1382
X4.4319Y-3.5528
X4.4429Y-3.6669
X4.4701Y-3.6165
X4.4932Y-4.9487
X4.4996Y-5.0301
X4.5089Y-5.0015
X4.5091Y-3.4213
X4.513Y-3.3248
X4.5165Y-4.8543
X4.5193Y-3.4906
X4.5425Y-5.0524
X4.5469Y-4.5559
X4.5476Y-4.4927
X4.5555Y-4.4675
X4.5665Y-3.2258
X4.5689Y-5.0764
X4.5732Y-3.2508
X4.5776Y-2.9126
X4.5784Y-5.3062
X4.5797Y-3.3703
X4.5903Y-3.3914
X4.5957Y-4.7063
X4.5968Y-3.4793
X4.5969Y-3.2354
X4.5994Y-3.3518
X4.6052Y-3.5111
X4.6085Y-4.9837
X4.6109Y-3.5909
X4.6146Y-4.3953
X4.6161Y-4.6815
X4.6189Y-4.9406
X4.6224Y-5.3717
X4.6252Y-4.522
X4.6294Y-4.6259
X4.6394Y-3.4594
X4.6411Y-3.3271
X4.6443Y-5.3321
X4.6477Y-3.5571
X4.6526Y-3.8433
X4.6531Y-4.4299
X4.6573Y-4.7515
X4.6581Y-3.6292
X4.6602Y-4.9909
X4.6652Y-3.7672
X4.6697Y-4.3673
X4.6709Y-3.3717
X4.6748Y-2.8594
X4.6791Y-4.0791
X4.6791Y-4.2622
X4.6794Y-4.2311
X4.6803Y-4.1406
X4.6819Y-3.7894
X4.6831Y-5.0004
X4.6835Y-4.0524
X4.6835Y-4.815
X4.6837Y-4.4572
X4.6858Y-4.1752
X4.6858Y-4.8402
X4.6878Y-4.2957
X4.689Y-4.102
X4.6903Y-3.8548
X4.6903Y-3.8736
X4.6903Y-3.8937
X4.6903Y-3.9122
X4.6903Y-3.9311
X4.6903Y-3.9504
X4.6903Y-3.9689
X4.6903Y-3.9894
X4.6921Y-3.7244
X4.7087Y-5.4831
X4.7124Y-3.4902
X4.7988Y-2.6067
X4.8031Y-3.5423
X4.8032Y-3.6313
X4.8033Y-3.1561
X4.8035Y-2.9945
X4.8035Y-4.2232
X4.8039Y-2.9705
X4.8039Y-4.5531
X4.8042Y-3.5846
X4.8042Y-3.6075
X4.8043Y-3.0409
X4.8043Y-4.4346
X4.8047Y-3.0177
X4.8051Y-3.0654
X4.8053Y-3.4186
X4.8055Y-3.1118
X4.8055Y-4.3169
X4.8059Y-2.7809
X4.8059Y-3.1358
X4.8063Y-3.0886
X4.8126Y-5.0276
X4.8142Y-3.6756
X4.8209Y-5.0476
X4.8213Y-3.7031
X4.8214Y-2.8496
X4.8219Y-2.878
X4.8231Y-3.5607
X4.8232Y-4.1043
X4.824Y-4.3689
X4.8264Y-4.5985
X4.8312Y-2.9211
X4.8314Y-2.9491
X4.8335Y-4.7386
X4.8343Y-3.3484
X4.8358Y-4.2236
X4.8378Y-4.2539
X4.8382Y-3.152
X4.8413Y-4.4224
X4.8446Y-3.1807
X4.8455Y-3.511
X4.8476Y-3.6421
X4.861Y-5.2732
X4.8613Y-3.202
X4.8677Y-5.4626
X4.8692Y-5.2158
X4.8728Y-4.5492
X4.873Y-3.6908
X4.8831Y-3.1386
X4.8965Y-4.6752
X4.898Y-4.9811
X4.8984Y-2.8276
X4.9027Y-3.8113
X4.9028Y-4.6358
X4.9035Y-4.811
X4.9047Y-4.711
X4.9059Y-3.4788
X4.9067Y-2.9059
X4.9079Y-3.1315
X4.9091Y-3.4393
X4.9098Y-5.0043
X4.9106Y-5.1728
X4.9122Y-5.0602
X4.9132Y-4.5673
X4.9138Y-5.0315
X4.9158Y-3.2191
X4.9173Y-3.9705
X4.9185Y-3.365
X4.9225Y-4.8613
X4.9228Y-2.7728
X4.9229Y-3.4951
X4.9303Y-4.5138
X4.9311Y-5.2043
X4.9352Y-3.6524
X4.937Y-4.4835
X4.9382Y-3.3368
X4.9398Y-3.8441
X4.9451Y-3.6916
X4.9492Y-4.4169
X4.9547Y-3.2071
X4.9615Y-5.0583
X4.9656Y-2.5675
X4.9862Y-3.5752
X4.9865Y-4.5438
X4.9878Y-5.1438
X4.989Y-3.0749
X4.9904Y-3.5305
X4.9912Y-3.1465
X4.9913Y-4.5925
X4.9917Y-4.5136
X4.9957Y-4.413
X4.9964Y-5.0626
X4.9967Y-3.6491
X4.9984Y-3.2257
X4.9992Y-4.6504
X4.9992Y-4.3366
X5.0Y-3.3825
X5.0004Y-4.4807
X5.0012Y-4.299
X5.0015Y-3.4138
X5.0118Y-3.5768
X5.015Y-3.7571
X5.0177Y-3.8016
X5.0201Y-2.7937
X5.021Y-3.8845
X5.0212Y-3.6447
X5.0213Y-3.9167
X5.0217Y-3.0598
X5.1181Y-4.0931
X5.1282Y-4.1487
X5.1295Y-2.8656
X5.1321Y-5.0212
X5.1333Y-4.6344
X5.1374Y-3.7689
X5.139Y-3.6008
X5.1402Y-4.0931
X5.1437Y-4.1331
X5.1469Y-2.8386
X5.1504Y-3.4528
X5.1541Y-3.6545
X5.1555Y-3.996
X5.1559Y-4.2764
X5.1587Y-4.4461
X5.1594Y-3.7374
X5.1661Y-4.415
X5.1665Y-3.2559
X5.1768Y-3.7673
X5.1795Y-4.7492
X5.1865Y-5.1646
X5.1881Y-4.4304
X5.1894Y-4.5008
X5.1897Y-3.958
X5.1909Y-4.8032
X5.1965Y-4.0047
X5.1992Y-3.7472
X5.2055Y-3.6311
X5.2063Y-4.2366
X5.2087Y-5.5803
X5.2091Y-3.9382
X5.2268Y-3.8626
X5.2311Y-3.5189
X5.2331Y-3.4736
X5.2508Y-5.4713
X5.2724Y-3.5244
X5.2752Y-3.4559
X5.3113Y-5.1477
X5.3169Y-3.0378
X5.3181Y-4.5882
X5.3248Y-4.4476
X5.327Y-4.3728
X5.3271Y-4.7024
X5.328Y-3.9602
X5.3303Y-5.1236
X5.3307Y-3.4642
X5.3315Y-3.826
X5.3366Y-4.8783
X5.3408Y-4.4706
X5.3428Y-3.4968
X5.3449Y-5.4705
X5.3484Y-3.2945
X5.3509Y-3.2499
X5.3539Y-4.2661
X5.3618Y-4.9969
X5.3671Y-4.3018
X5.3693Y-5.0268
X5.3759Y-5.4904
X5.3823Y-4.2681
X5.387Y-4.1197
X5.3949Y-3.2075
X5.3961Y-5.0528
X5.402Y-4.8252
X5.4055Y-3.3303
X5.412Y-3.3082
X5.4138Y-3.4937
X5.4169Y-3.4291
X5.437Y-3.4425
X5.4406Y-3.2059
X5.4551Y-3.4673
X5.4555Y-4.0291
X5.4579Y-4.0571
X5.4602Y-5.2071
X5.4622Y-3.0697
X5.5323Y-3.3094
X5.5354Y-3.9319
X5.5394Y-3.072
X5.5484Y-3.9004
X5.5539Y-4.1701
X5.5733Y-3.3207
X5.5882Y-5.4904
X5.5996Y-5.2744
X5.6016Y-4.6897
X5.6091Y-3.2043
X5.6161Y-3.3244
X5.6201Y-2.8673
X5.637Y-2.8843
X5.6397Y-3.3256
X5.6462Y-4.3051
X5.6551Y-2.9024
X5.6626Y-3.2237
X5.6698Y-3.9143
X5.6736Y-4.209
X5.6941Y-4.209
X5.7201Y-4.5717
X5.7224Y-4.9728
X5.7303Y-5.2788
X5.7406Y-3.1282
X5.75Y-4.9657
X5.765Y-3.0417
X5.7673Y-4.1209
X5.8081Y-3.0347
X5.8303Y-4.5874
X5.8347Y-5.2468
X5.8583Y-3.5354
X5.8661Y-4.5878
X5.8768Y-4.528
X5.8788Y-4.4806
X5.9024Y-3.5366
X5.9268Y-3.5366
X5.9711Y-3.1197
X5.9823Y-4.1224
X5.9933Y-4.2752
X5.9941Y-4.1791
X5.9945Y-4.228
X6.019Y-3.1996
X6.0382Y-3.9578
X6.0429Y-4.5898
X6.0433Y-3.2154
X6.0511Y-4.9502
X6.052Y-3.1602
X6.0696Y-3.7998
X6.077Y-4.5723
X6.0886Y-4.4335
X6.0906Y-3.3461
X6.0981Y-4.9375
X6.1008Y-4.1189
X6.1028Y-4.0795
X6.1043Y-4.2831
X6.1146Y-3.4575
X6.1291Y-3.1642
X6.1331Y-3.3463
X6.1406Y-4.1378
X6.152Y-4.0953
X6.161Y-4.4677
X6.172Y-3.2098
X6.1799Y-4.1736
X6.1846Y-3.5346
X6.1858Y-4.4602
X6.1898Y-3.6846
X6.1906Y-4.1
X6.2126Y-4.1425
X6.2201Y-3.6945
X6.2276Y-4.1909
X6.2295Y-3.2102
X6.2311Y-3.4575
X6.2319Y-3.724
X6.2323Y-3.3354
X6.2413Y-4.5819
X6.2504Y-4.2331
X6.2594Y-3.2102
X6.263Y-4.1547
X6.2651Y-3.9632
X6.2713Y-4.5768
X6.274Y-3.4579
X6.2898Y-4.2894
X6.2933Y-3.7339
X6.2953Y-4.1874
X6.2953Y-4.2358
X6.3079Y-3.5228
X6.3102Y-3.2114
X6.3268Y-3.674
X6.3283Y-3.8059
X6.3287Y-3.3417
X6.3287Y-4.8161
X6.3394Y-4.5531
X6.3413Y-3.4586
X6.3429Y-3.8417
X6.3457Y-3.212
X6.3476Y-4.6736
X6.3557Y-3.3214
X6.3639Y-3.5378
X6.3705Y-4.6929
X6.3736Y-4.298
X6.3776Y-4.6677
X6.3843Y-3.2159
X6.385Y-2.9878
X6.3854Y-4.2614
X6.3866Y-4.7571
X6.387Y-3.3303
X6.3996Y-4.5756
X6.4051Y-4.6823
X6.4161Y-4.2992
X6.4205Y-4.7697
X6.4335Y-3.6583
X6.4402Y-4.6925
X6.4441Y-4.5811
X6.4472Y-4.6646
X6.4506Y-3.7233
X6.4566Y-2.9529
X6.4681Y-3.9697
X6.4775Y-3.3343
X6.478Y-5.3732
X6.4791Y-4.6846
X6.4799Y-4.7768
X6.4949Y-4.8079
X6.495Y-3.3906
X6.4996Y-4.5563
X6.5142Y-3.9724
X6.5197Y-4.7752
X6.5217Y-2.9988
X6.5244Y-3.4354
X6.5319Y-3.3328
X6.5339Y-4.8398
X6.5425Y-4.0343
X6.5524Y-3.4028
X6.565Y-3.6587
X6.5665Y-4.7728
X6.5693Y-4.8094
X6.5713Y-4.8819
X6.5783Y-4.0583
X6.5866Y-4.5594
X6.5898Y-3.5268
X6.5903Y-3.245
X6.5945Y-4.0819
X6.6047Y-3.2638
X6.6091Y-4.8492
X6.611Y-4.8921
X6.6122Y-4.5894
X6.6256Y-4.0906
X6.626Y-4.2591
X6.6291Y-4.5709
X6.6331Y-4.126
X6.6417Y-4.1807
X6.648Y-5.2854
X6.6492Y-3.5783
X6.6504Y-4.9205
X6.6531Y-4.8665
X6.6531Y-5.3295
X6.6575Y-3.5291
X6.6669Y-4.5732
X6.6717Y-5.3043
X6.6839Y-4.8949
X6.6846Y-5.276
X6.6854Y-4.1189
X6.6913Y-4.9941
X6.7012Y-5.4126
X6.7031Y-3.3286
X6.7055Y-4.6642
X6.7059Y-4.2079
X6.7071Y-4.928
X6.7106Y-4.6898
X6.7291Y-5.3945
X6.7311Y-4.9925
X6.737Y-4.9016
X6.7449Y-4.6709
X6.7551Y-4.6937
X6.7697Y-4.113
X6.7701Y-4.9945
X6.778Y-5.3555
X6.7902Y-4.9197
X6.7917Y-4.0331
X6.7917Y-4.6937
X6.7969Y-3.6717
X6.7972Y-4.7661
X6.8035Y-3.3233
X6.8055Y-4.0031
X6.8098Y-5.326
X6.8118Y-4.9949
X6.8146Y-5.3697
X6.8181Y-5.4063
X6.8224Y-4.0913
X6.8362Y-4.0354
X6.8402Y-4.1894
X6.8524Y-4.7717
X6.8559Y-4.9945
X6.8622Y-3.3621
X6.8717Y-3.7748
X6.8945Y-4.1161
X6.8992Y-4.9949
X6.9209Y-5.213
X6.9346Y-4.1319
X6.9358Y-4.1858
X6.9358Y-4.5807
X6.9382Y-2.8799
X6.9416Y-3.1014
X6.9425Y-4.9949
X6.9728Y-3.7728
X6.9807Y-4.1917
X6.9827Y-4.2173
X6.9862Y-4.9953
X6.9866Y-3.4787
X6.9957Y-3.0984
X7.0079Y-3.7531
X7.0146Y-4.8118
X7.0208Y-2.8772
X7.0248Y-4.6457
X7.0315Y-4.122
X7.0335Y-4.4811
X7.0335Y-5.4126
X7.0354Y-4.9091
X7.039Y-2.7831
X7.0394Y-4.9941
X7.0484Y-4.7516
X7.0555Y-4.8224
X7.0689Y-3.6921
X7.0701Y-4.9764
X7.074Y-4.8469
X7.0785Y-4.3745
X7.0827Y-4.6441
X7.0878Y-3.6437
X7.0933Y-4.6953
X7.0945Y-3.7933
X7.0957Y-4.8232
X7.0969Y-5.098
X7.0976Y-4.9606
X7.1028Y-4.5504
X7.1031Y-4.9921
X7.1035Y-3.7614
X7.1079Y-5.3894
X7.1102Y-3.6244
X7.113Y-2.8929
X7.1177Y-4.5945
X7.1272Y-4.976
X7.1874Y-4.9776
X7.2008Y-2.9122
X7.2118Y-4.6632
X7.2177Y-3.6307
X7.2232Y-3.2351
X7.2244Y-3.6882
X7.2302Y-5.3369
X7.2303Y-4.4137
X7.2327Y-5.0406
X7.2346Y-4.9055
X7.2398Y-5.3629
X7.2441Y-4.8402
X7.2516Y-4.4319
X7.252Y-5.2402
X7.2524Y-5.1161
X7.2543Y-4.0846
X7.2594Y-3.7197
X7.2678Y-5.3297
X7.2713Y-3.3827
X7.2787Y-4.9228
X7.2791Y-3.8858
X7.2799Y-4.7135
X7.2808Y-3.3098
X7.2835Y-4.1311
X7.2846Y-3.987
X7.2865Y-3.9197
X7.2865Y-3.9472
X7.2878Y-4.0829
X7.2882Y-4.3693
X7.2906Y-3.8614
X7.2912Y-3.8358
X7.2935Y-4.0114
X7.2961Y-4.8382
X7.3069Y-5.2063
X7.3118Y-5.1579
X7.314Y-5.233
X7.3256Y-4.7177
X7.328Y-5.3074
X7.3308Y-5.0894
X7.3394Y-3.1744
X7.3409Y-4.6567
X7.3427Y-5.1735
X7.3525Y-5.3335
X7.3575Y-4.435
X7.3709Y-5.0114
X7.3751Y-4.3777
X7.3754Y-5.3169
X7.3756Y-3.963
X7.3768Y-3.9043
X7.383Y-4.0217
X7.383Y-4.0831
X7.4028Y-4.9827
X7.4059Y-3.9173
X7.4098Y-3.2059
X7.412Y-4.9566
X7.4122Y-3.9728
X7.4169Y-4.8386
X7.424Y-4.2496
X7.4256Y-4.0669
X7.4283Y-3.2978
X7.4315Y-3.3236
X7.4392Y-5.3882
X7.4395Y-4.9531
X7.4437Y-3.085
X7.4449Y-4.0236
X7.4467Y-4.6401
X7.4512Y-4.8455
X7.4524Y-3.1283
X7.4555Y-3.9248
X7.4567Y-2.8736
X7.461Y-5.4291
X7.4614Y-4.935
X7.4626Y-3.3454
X7.4685Y-4.076
X7.477Y-2.9409
X7.4841Y-3.464
X7.4878Y-5.4252
X7.49Y-4.9465
X7.4925Y-5.2634
X7.4954Y-4.9825
X7.5043Y-4.8299
X7.5142Y-3.3634
X7.5169Y-5.2646
X7.523Y-4.9813
X7.5283Y-2.8571
X7.5436Y-3.2234
X7.5472Y-3.263
X7.5571Y-3.1835
X7.5578Y-3.1039
X7.5597Y-4.8741
X7.5777Y-5.3095
X7.5815Y-4.8343
X7.5927Y-5.022
X7.5941Y-4.9709
X7.5941Y-2.665
X7.5985Y-5.1772
X7.6024Y-5.1307
X7.6051Y-3.5111
X7.6075Y-2.8409
X7.61Y-5.1038
X7.6244Y-3.4043
X7.6339Y-3.3035
X7.6344Y-5.274
X7.6535Y-2.915
X7.663Y-3.2772
X7.6677Y-5.1969
X7.6697Y-4.9209
X7.6713Y-4.6094
X7.6807Y-2.9335
X7.6878Y-5.0505
X7.6921Y-5.0783
X7.6937Y-2.8508
X7.7091Y-2.7764
X7.7146Y-3.1933
X7.7212Y-4.739
X7.7378Y-4.6075
X7.7428Y-2.6198
X7.7528Y-4.735
X7.7646Y-4.6437
X7.7685Y-3.1354
X7.7696Y-3.1609
X7.7795Y-2.9756
X7.7841Y-2.5611
X7.785Y-2.8988
X7.7988Y-4.6469
X7.8016Y-3.007
X7.8272Y-2.7768
X7.8484Y-4.6894
X7.8567Y-3.0295
X7.8598Y-4.6429
X7.8669Y-3.0705
X7.8799Y-3.2547
X7.8906Y-3.3311
X7.8937Y-3.1539
X7.9012Y-3.2087
X7.927Y-3.1947
X7.9311Y-2.7605
X7.935Y-2.8134
X7.9378Y-4.6846
X7.9421Y-3.0933
X8.0106Y-5.1421
X8.0307Y-3.248
X8.0362Y-4.6276
X8.1004Y-3.2012
X8.1366Y-4.6921
X8.1378Y-3.163
T2
X4.4974Y-3.5845
X4.824Y-5.2083
X4.8363Y-4.6639
X4.9867Y-5.3671
X5.1351Y-5.2713
X5.1441Y-3.8925
X5.1744Y-3.8724
X5.176Y-3.9106
X5.3252Y-3.898
X5.373Y-5.3476
X5.4615Y-3.5314
X5.466Y-3.7969
X5.4879Y-3.5318
X5.4921Y-3.7795
X5.5071Y-3.5087
X5.5106Y-3.7652
X5.5161Y-4.8925
X5.5161Y-4.9319
X5.5461Y-4.9319
X5.5528Y-3.478
X5.5705Y-5.2638
X5.574Y-4.9319
X5.5807Y-3.4749
X5.5815Y-3.4417
X5.6106Y-3.4846
X5.6222Y-5.297
X5.6299Y-4.4693
X5.826Y-4.463
X5.8689Y-3.0414
X5.8823Y-3.5012
X5.9161Y-3.4496
X6.4636Y-4.4689
X6.8614Y-3.6669
X6.9394Y-2.787
X6.9783Y-3.6819
X7.0929Y-3.5613
X7.1016Y-3.4276
X7.1228Y-2.6843
X7.1571Y-3.1366
X7.236Y-3.5433
X7.3311Y-3.5787
X7.335Y-3.4173
X7.4854Y-2.7327
X7.5524Y-3.4713
T3
X5.5205Y-4.0516
X5.5205Y-4.1303
X5.5598Y-4.0516
X5.5598Y-4.1303
X5.5992Y-4.0516
X5.5992Y-4.1303
X5.7165Y-4.8689
X5.7165Y-4.9043
X5.75Y-4.8689
X5.75Y-4.9043
X5.7835Y-4.8689
X5.7835Y-4.9043
X7.4327Y-5.0807
X7.4327Y-5.1201
X7.4327Y-5.1594
X7.472Y-5.0807
X7.472Y-5.1201
X7.472Y-5.1594
X7.5114Y-5.0807
X7.5114Y-5.1201
X7.5114Y-5.1594
T4
X5.4657Y-4.2685
X5.6654Y-4.6705
X5.7094Y-4.6705
X5.7476Y-4.6791
X5.8101Y-3.0651
X5.9575Y-4.776
X5.9736Y-4.7039
X5.9736Y-4.7429
X6.128Y-2.7429
X6.128Y-2.7787
X6.128Y-2.8138
X6.128Y-2.8469
X6.128Y-2.8807
T5
X6.3374Y-2.815
X6.3531Y-2.7874
X6.3689Y-2.815
X6.3846Y-2.7874
X6.4004Y-2.815
X6.4161Y-2.7874
X6.4319Y-2.815
X6.4634Y-2.815
X6.4791Y-2.7874
X6.4949Y-2.815
X6.5106Y-2.7874
X6.5264Y-2.815
X6.5421Y-2.7874
X6.5579Y-2.815
X8.0232Y-2.713
X8.0232Y-2.7445
X8.0232Y-2.776
X8.0232Y-2.8075
X8.0232Y-2.839
X8.0232Y-2.8705
X8.0232Y-2.902
X8.0232Y-2.9335
X8.0508Y-2.7287
X8.0508Y-2.7602
X8.0508Y-2.7917
X8.0508Y-2.8547
X8.0508Y-2.8862
X8.0508Y-2.9177
T6
X6.2795Y-2.5835
X6.2795Y-2.7697
X6.6157Y-2.5835
X6.6157Y-2.7697
X8.0685Y-2.6551
X8.0685Y-2.9913
X8.2547Y-2.6551
X8.2547Y-2.9913
T7
X7.7551Y-5.0669
X7.7551Y-5.1669
X7.7551Y-5.2668
X7.7551Y-5.3668
X7.8551Y-5.1166
X7.8551Y-5.2166
X7.8551Y-5.3165
X7.8551Y-5.4165
T8
X5.2645Y-3.8254
X5.2645Y-3.9254
X5.2645Y-4.0254
X5.2645Y-4.1254
X5.2645Y-4.2254
X5.2645Y-4.3254
X5.2645Y-4.4254
X5.2645Y-4.5254
X5.2645Y-4.7254
X5.2645Y-4.8254
X5.2645Y-4.9254
X5.2645Y-5.0254
X5.2645Y-5.1254
X5.2645Y-5.2254
X6.1645Y-5.2304
X6.1645Y-5.3304
X6.2645Y-5.2304
X6.2645Y-5.3304
X6.3645Y-5.2304
X6.3645Y-5.3304
X7.1645Y-3.4654
X7.1645Y-3.5654
X7.1645Y-3.6654
X7.1645Y-3.7654
X7.1645Y-3.8654
X7.1645Y-3.9654
X7.1645Y-4.0654
X7.1645Y-4.1654
X7.1645Y-4.2654
X7.1645Y-4.3654
X7.1645Y-4.5254
X7.1645Y-4.6254
X7.1645Y-4.7254
X7.1645Y-4.8254
X7.1645Y-4.9254
X7.1645Y-5.0254
X7.1645Y-5.1254
X7.1645Y-5.2254
T9
X8.2669Y-4.9927
X8.2669Y-5.0927
X8.2669Y-5.3907
X8.2669Y-5.4907
T10
X4.9134Y-2.7126
X4.9134Y-5.3425
T11
X7.9516Y-4.9288
X7.9516Y-5.5546
T12
X5.2622Y-2.813
X5.7795Y-2.813
T0
M30
