%TF.GenerationSoftware,KiCad,Pcbnew,6.0.4-6f826c9f35~116~ubuntu20.04.1*%
%TF.CreationDate,2022-04-07T12:40:15+02:00*%
%TF.ProjectId,stm32mp1-custom-devboard,73746d33-326d-4703-912d-637573746f6d,V4.0*%
%TF.SameCoordinates,Original*%
%TF.FileFunction,Soldermask,Bot*%
%TF.FilePolarity,Negative*%
%FSLAX46Y46*%
G04 Gerber Fmt 4.6, Leading zero omitted, Abs format (unit mm)*
G04 Created by KiCad (PCBNEW 6.0.4-6f826c9f35~116~ubuntu20.04.1) date 2022-04-07 12:40:15*
%MOMM*%
%LPD*%
G01*
G04 APERTURE LIST*
G04 Aperture macros list*
%AMRoundRect*
0 Rectangle with rounded corners*
0 $1 Rounding radius*
0 $2 $3 $4 $5 $6 $7 $8 $9 X,Y pos of 4 corners*
0 Add a 4 corners polygon primitive as box body*
4,1,4,$2,$3,$4,$5,$6,$7,$8,$9,$2,$3,0*
0 Add four circle primitives for the rounded corners*
1,1,$1+$1,$2,$3*
1,1,$1+$1,$4,$5*
1,1,$1+$1,$6,$7*
1,1,$1+$1,$8,$9*
0 Add four rect primitives between the rounded corners*
20,1,$1+$1,$2,$3,$4,$5,0*
20,1,$1+$1,$4,$5,$6,$7,0*
20,1,$1+$1,$6,$7,$8,$9,0*
20,1,$1+$1,$8,$9,$2,$3,0*%
G04 Aperture macros list end*
%ADD10C,1.200000*%
%ADD11C,1.700000*%
%ADD12C,1.550000*%
%ADD13C,0.900000*%
%ADD14C,0.770000*%
%ADD15RoundRect,0.050000X-0.500000X0.500000X-0.500000X-0.500000X0.500000X-0.500000X0.500000X0.500000X0*%
%ADD16C,3.297860*%
%ADD17C,1.497000*%
%ADD18C,1.629080*%
%ADD19C,2.543480*%
%ADD20C,3.519200*%
%ADD21C,3.300000*%
%ADD22O,1.827200X1.827200*%
%ADD23C,1.330000*%
%ADD24C,0.750000*%
%ADD25O,1.203200X2.203200*%
%ADD26O,2.203200X1.203200*%
%ADD27C,1.190600*%
G04 APERTURE END LIST*
D10*
%TO.C,CON3*%
X164950000Y-116882500D03*
D11*
X139950000Y-116882500D03*
D12*
X164550000Y-66832500D03*
D13*
X138300000Y-69832500D03*
X162500000Y-69832500D03*
D12*
X140350000Y-66832500D03*
%TD*%
D11*
%TO.C,SOM1*%
X124800000Y-68900000D03*
X124800000Y-135700000D03*
%TD*%
D14*
%TO.C,U3*%
X172820000Y-90090000D03*
X174820000Y-90090000D03*
X172820000Y-92090000D03*
X173820000Y-90090000D03*
X174820000Y-92090000D03*
X173820000Y-92090000D03*
%TD*%
D15*
%TO.C,U7*%
X145660000Y-93600000D03*
X144660000Y-94600000D03*
X143660000Y-94600000D03*
X143660000Y-95600000D03*
X143660000Y-93600000D03*
X144660000Y-95600000D03*
X145660000Y-95600000D03*
X144660000Y-93600000D03*
X145660000Y-94600000D03*
%TD*%
D16*
%TO.C,T2*%
X156705000Y-135230000D03*
X168135000Y-135230000D03*
D17*
X157980080Y-128880000D03*
X159242460Y-126340000D03*
X160520080Y-128880000D03*
X161782460Y-126340000D03*
X163057540Y-128880000D03*
X164319920Y-126340000D03*
X165597540Y-128880000D03*
X166859920Y-126340000D03*
D18*
X156095400Y-139339720D03*
X158635400Y-139339720D03*
X166204600Y-139339720D03*
X168744600Y-139339720D03*
D19*
X154472340Y-131331100D03*
X170367660Y-131331100D03*
%TD*%
D20*
%TO.C,USB1*%
X183980000Y-132140000D03*
X197120000Y-132140000D03*
%TD*%
D21*
%TO.C,XA1*%
X177372500Y-66665000D03*
X149432500Y-66665000D03*
X134192500Y-117465000D03*
X182452500Y-118735000D03*
D22*
X182452500Y-97145000D03*
X182452500Y-94605000D03*
X154512500Y-66538000D03*
X182452500Y-81905000D03*
X182452500Y-79365000D03*
X182452500Y-76825000D03*
X182452500Y-74285000D03*
X182452500Y-71745000D03*
X182452500Y-69205000D03*
X134192500Y-108829000D03*
X182452500Y-104765000D03*
X134192500Y-69205000D03*
X134192500Y-71745000D03*
X134192500Y-74285000D03*
X134192500Y-76825000D03*
X134192500Y-79365000D03*
X134192500Y-81905000D03*
X134192500Y-84445000D03*
X134192500Y-86985000D03*
X134192500Y-91049000D03*
X134192500Y-93589000D03*
X134192500Y-96129000D03*
X134192500Y-98669000D03*
X134192500Y-101209000D03*
X134192500Y-103749000D03*
X134192500Y-106289000D03*
X182452500Y-92065000D03*
X182452500Y-89525000D03*
X159592500Y-66538000D03*
X182452500Y-102225000D03*
X154512500Y-69078000D03*
X157052500Y-66538000D03*
X182452500Y-99685000D03*
X159592500Y-69078000D03*
X157052500Y-69078000D03*
X134192500Y-113909000D03*
X134192500Y-111369000D03*
X182452500Y-86985000D03*
%TD*%
D23*
%TO.C,TP10*%
X190160000Y-104530000D03*
%TD*%
D24*
%TO.C,CON5*%
X138565000Y-132315000D03*
X138165000Y-133015000D03*
X137365000Y-133015000D03*
X136965000Y-132315000D03*
X136565000Y-133015000D03*
X136165000Y-132315000D03*
X135365000Y-132315000D03*
X134965000Y-133015000D03*
X134565000Y-132315000D03*
X134165000Y-133015000D03*
X133365000Y-133015000D03*
X132965000Y-132315000D03*
D25*
X131495000Y-133465000D03*
X140035000Y-133465000D03*
X140035000Y-138195000D03*
X131495000Y-138195000D03*
D24*
X133765000Y-132315000D03*
X137765000Y-132315000D03*
%TD*%
D23*
%TO.C,TP5*%
X188300000Y-98500000D03*
%TD*%
%TO.C,TP7*%
X189240000Y-100860000D03*
%TD*%
%TO.C,TP8*%
X190100000Y-102200000D03*
%TD*%
%TO.C,TP6*%
X189970000Y-98910000D03*
%TD*%
D24*
%TO.C,CON4*%
X203789992Y-68909991D03*
X204489992Y-69309991D03*
X204489992Y-70109991D03*
X203789992Y-70509991D03*
X204489992Y-70909991D03*
X203789992Y-71309991D03*
X203789992Y-72109991D03*
X204489992Y-72509991D03*
X203789992Y-72909991D03*
X204489992Y-73309991D03*
X204489992Y-74109991D03*
X203789992Y-74509991D03*
D26*
X204939992Y-75979991D03*
X204939992Y-67439991D03*
X209669992Y-67439991D03*
X209669992Y-75979991D03*
D24*
X203789992Y-73709991D03*
X203789992Y-69709991D03*
%TD*%
D27*
%TO.C,CON6*%
X210670000Y-87020000D03*
X203050000Y-86005000D03*
X203050000Y-88034999D03*
%TD*%
D23*
%TO.C,TP11*%
X188440000Y-104330000D03*
%TD*%
M02*
