M48
; DRILL file {KiCad (6.0.0)} date Sat Jan 15 23:49:16 2022
; FORMAT={-:-/ absolute / inch / decimal}
; #@! TF.CreationDate,2022-01-15T23:49:16+01:00
; #@! TF.GenerationSoftware,Kicad,Pcbnew,(6.0.0)
; #@! TF.FileFunction,Plated,1,4,PTH
FMAT,2
INCH
; #@! TA.AperFunction,Plated,PTH,ViaDrill
T1C0.0079
; #@! TA.AperFunction,Plated,PTH,ComponentDrill
T2C0.0118
; #@! TA.AperFunction,Plated,PTH,ComponentDrill
T3C0.0157
; #@! TA.AperFunction,Plated,PTH,ComponentDrill
T4C0.0236
; #@! TA.AperFunction,Plated,PTH,ComponentDrill
T5C0.0350
; #@! TA.AperFunction,Plated,PTH,ComponentDrill
T6C0.0400
; #@! TA.AperFunction,Plated,PTH,ComponentDrill
T7C0.0401
; #@! TA.AperFunction,Plated,PTH,ComponentDrill
T8C0.0591
; #@! TA.AperFunction,Plated,PTH,ComponentDrill
T9C0.0641
; #@! TA.AperFunction,Plated,PTH,ComponentDrill
T10C0.0906
%
G90
G05
T1
X3.7134Y-2.5083
X3.7142Y-5.5579
X4.0524Y-3.2437
X4.0884Y-3.0286
X4.1354Y-3.6323
X4.3189Y-2.5079
X4.3213Y-5.5559
X4.3307Y-4.8906
X4.3439Y-4.2311
X4.3571Y-4.913
X4.3645Y-4.2679
X4.3657Y-3.5795
X4.3717Y-4.8669
X4.3789Y-4.9364
X4.3845Y-3.6222
X4.4047Y-3.6886
X4.4339Y-3.7634
X4.4508Y-5.1705
X4.4559Y-3.3988
X4.4653Y-5.1517
X4.4724Y-3.3732
X4.4817Y-5.1336
X4.4904Y-5.1117
X4.4972Y-4.3783
X4.4976Y-4.4516
X4.5059Y-4.9268
X4.5114Y-4.8075
X4.5138Y-2.9071
X4.5236Y-4.6098
X4.5276Y-3.6634
X4.535Y-4.2445
X4.5425Y-4.5366
X4.5445Y-3.8213
X4.5457Y-2.9512
X4.55Y-4.4378
X4.5504Y-4.3079
X4.5542Y-3.1939
X4.5543Y-4.7378
X4.5606Y-4.8642
X4.5618Y-4.6646
X4.5736Y-3.211
X4.5807Y-4.5772
X4.5815Y-4.0488
X4.5843Y-3.2661
X4.5866Y-3.328
X4.587Y-4.337
X4.5913Y-4.5165
X4.5917Y-3.8933
X4.5937Y-4.9067
X4.5957Y-4.278
X4.5961Y-3.3953
X4.6Y-4.0894
X4.606Y-4.2048
X4.6078Y-3.2675
X4.6079Y-3.4331
X4.611Y-3.6606
X4.613Y-4.8004
X4.6241Y-4.2394
X4.6248Y-4.352
X4.626Y-4.1516
X4.6282Y-3.3071
X4.6354Y-4.787
X4.637Y-4.4854
X4.6421Y-3.2181
X4.6449Y-3.5941
X4.6472Y-3.4382
X4.6488Y-4.1705
X4.6516Y-3.7295
X4.6606Y-3.7811
X4.6673Y-4.4358
X4.6682Y-4.2537
X4.6724Y-4.8563
X4.6752Y-4.9299
X4.6787Y-3.2299
X4.6795Y-3.602
X4.6807Y-4.6587
X4.6807Y-4.7091
X4.6815Y-3.1598
X4.6819Y-4.5559
X4.6827Y-3.5606
X4.6831Y-3.8299
X4.6831Y-3.8549
X4.6831Y-3.8799
X4.6831Y-3.9049
X4.6831Y-3.9299
X4.6831Y-3.9549
X4.6831Y-3.9799
X4.6831Y-4.0049
X4.686Y-4.3215
X4.6862Y-4.0591
X4.6862Y-4.0819
X4.6862Y-4.1035
X4.6875Y-3.7874
X4.689Y-3.4181
X4.7118Y-4.7539
X4.7185Y-5.5673
X4.7665Y-4.752
X4.7709Y-4.7067
X4.8134Y-4.3394
X4.8194Y-3.7432
X4.8201Y-2.9232
X4.8201Y-2.9469
X4.8201Y-5.2386
X4.8236Y-5.5673
X4.824Y-5.5106
X4.8248Y-2.8524
X4.8248Y-2.876
X4.8252Y-5.4559
X4.8331Y-3.261
X4.8331Y-4.9232
X4.8472Y-4.8618
X4.848Y-3.2042
X4.8484Y-3.7813
X4.8626Y-5.5358
X4.8681Y-4.6256
X4.8688Y-3.6652
X4.8709Y-4.7728
X4.8723Y-4.8456
X4.8748Y-4.9311
X4.8776Y-4.7283
X4.8781Y-3.1182
X4.8815Y-3.5457
X4.8823Y-3.4874
X4.8827Y-3.6035
X4.8846Y-3.4453
X4.8882Y-3.4146
X4.9028Y-5.2205
X4.9118Y-3.4528
X4.9134Y-3.4028
X4.9184Y-4.6831
X4.9185Y-4.8807
X4.9205Y-5.4654
X4.9228Y-4.776
X4.9484Y-4.9028
X4.9588Y-3.3565
X4.9607Y-2.8669
X4.9701Y-4.687
X4.9773Y-2.7509
X4.9807Y-2.847
X4.9866Y-5.0813
X4.9894Y-2.8031
X4.9933Y-3.0594
X4.9942Y-3.2487
X5.0024Y-4.7272
X5.0047Y-3.2799
X5.0051Y-2.8791
X5.0063Y-3.1654
X5.0071Y-2.9256
X5.0079Y-3.1394
X5.0087Y-3.1114
X5.0091Y-2.8209
X5.0091Y-3.0835
X5.0197Y-5.4374
X5.0327Y-2.7606
X5.085Y-2.7382
X5.1197Y-5.4819
X5.1339Y-2.7161
X5.136Y-4.1816
X5.139Y-3.6165
X5.139Y-4.0996
X5.139Y-4.1217
X5.139Y-4.6161
X5.1394Y-4.078
X5.1402Y-4.3047
X5.1421Y-4.0248
X5.1429Y-3.7626
X5.1432Y-4.5429
X5.1437Y-3.361
X5.1442Y-3.6395
X5.1453Y-3.8055
X5.1453Y-3.067
X5.1472Y-4.2633
X5.1476Y-3.5491
X5.1484Y-2.8402
X5.1484Y-2.8638
X5.1496Y-2.9217
X5.1508Y-3.4063
X5.1516Y-4.2339
X5.152Y-3.9122
X5.1538Y-3.0903
X5.1544Y-4.4363
X5.1545Y-3.9482
X5.1555Y-3.7055
X5.1606Y-5.0374
X5.1606Y-5.061
X5.1609Y-3.7839
X5.165Y-3.6429
X5.1657Y-3.8657
X5.1667Y-4.789
X5.1673Y-3.1307
X5.1686Y-3.7353
X5.172Y-2.7181
X5.1732Y-3.2902
X5.1811Y-4.4165
X5.1858Y-2.8858
X5.1925Y-4.4669
X5.1984Y-3.1673
X5.2022Y-3.2299
X5.2071Y-2.7902
X5.2088Y-2.9483
X5.2102Y-3.7571
X5.2131Y-4.8268
X5.2142Y-3.3732
X5.2169Y-3.8511
X5.2173Y-2.7177
X5.2217Y-3.5996
X5.2232Y-3.1429
X5.2256Y-3.6878
X5.2295Y-4.0575
X5.2303Y-4.0043
X5.2496Y-4.9091
X5.2937Y-5.1058
X5.3398Y-3.7925
X5.3425Y-3.6976
X5.3429Y-4.5476
X5.3441Y-3.2366
X5.3445Y-5.1058
X5.3453Y-3.4531
X5.3469Y-3.3472
X5.3472Y-2.824
X5.3563Y-3.578
X5.3575Y-3.8579
X5.358Y-3.1537
X5.363Y-3.6665
X5.3701Y-3.2488
X5.372Y-3.2114
X5.3732Y-3.3752
X5.3748Y-4.5386
X5.3764Y-4.8614
X5.3776Y-3.7138
X5.3819Y-3.3331
X5.3913Y-3.6642
X5.3945Y-3.1858
X5.3969Y-4.5992
X5.3976Y-4.5213
X5.4008Y-4.4083
X5.4031Y-3.2213
X5.4126Y-3.2504
X5.4134Y-3.4409
X5.4137Y-3.7701
X5.4154Y-3.3445
X5.4161Y-3.5307
X5.4187Y-3.0484
X5.4193Y-3.9693
X5.4201Y-4.0102
X5.4201Y-4.5768
X5.4211Y-4.0832
X5.4224Y-3.3807
X5.4248Y-3.1673
X5.4272Y-3.1992
X5.4283Y-4.0421
X5.4319Y-3.7851
X5.433Y-3.6949
X5.4366Y-3.8661
X5.4406Y-4.5362
X5.4409Y-3.9854
X5.4433Y-3.9543
X5.4434Y-4.5069
X5.4476Y-3.9091
X5.4484Y-4.0303
X5.4492Y-3.9307
X5.4516Y-4.0657
X5.452Y-3.2134
X5.4547Y-3.2496
X5.4583Y-3.6551
X5.4591Y-3.539
X5.4594Y-3.1673
X5.4594Y-4.0047
X5.4594Y-4.3827
X5.4636Y-3.7526
X5.4689Y-4.102
X5.4705Y-4.4126
X5.4803Y-3.1909
X5.485Y-3.5972
X5.4858Y-3.5449
X5.4894Y-3.2201
X5.4894Y-4.3626
X5.498Y-3.4929
X5.498Y-2.8909
X5.5004Y-3.1575
X5.502Y-4.8457
X5.5047Y-5.022
X5.511Y-4.2591
X5.5126Y-3.1945
X5.5134Y-2.9291
X5.5299Y-3.3098
X5.5343Y-3.174
X5.537Y-3.2787
X5.537Y-3.6055
X5.539Y-4.8492
X5.544Y-3.5628
X5.5535Y-4.1067
X5.5551Y-3.6919
X5.5555Y-4.3374
X5.5563Y-4.0028
X5.5579Y-3.1445
X5.5636Y-3.5464
X5.5654Y-3.789
X5.5681Y-3.2811
X5.5689Y-3.1701
X5.585Y-3.8807
X5.5866Y-3.6307
X5.5925Y-3.2398
X5.5941Y-3.3768
X5.5949Y-3.9906
X5.5957Y-3.9606
X5.5969Y-3.1406
X5.6012Y-3.0288
X5.6061Y-4.2543
X5.609Y-3.5136
X5.6102Y-3.5411
X5.6244Y-3.1717
X5.6299Y-3.492
X5.6394Y-4.2083
X5.6488Y-4.65
X5.652Y-3.1602
X5.6567Y-4.8071
X5.6579Y-3.1953
X5.6618Y-4.1764
X5.6646Y-2.7236
X5.6646Y-4.6134
X5.6886Y-3.1547
X5.6898Y-3.226
X5.6917Y-4.539
X5.6949Y-3.189
X5.6976Y-4.6142
X5.7003Y-4.4895
X5.7037Y-4.0337
X5.7043Y-3.8594
X5.7047Y-4.1476
X5.7177Y-2.7224
X5.7197Y-4.2087
X5.7213Y-3.2563
X5.728Y-4.5425
X5.7303Y-3.4403
X5.7331Y-3.2193
X5.7374Y-4.0929
X5.7374Y-4.6469
X5.7382Y-3.1803
X5.7382Y-4.1319
X5.739Y-3.8823
X5.7524Y-4.7992
X5.7528Y-3.2697
X5.7539Y-4.1992
X5.7559Y-4.5278
X5.7567Y-4.8311
X5.7591Y-3.9831
X5.7598Y-3.2417
X5.763Y-4.4665
X5.7642Y-3.2059
X5.7713Y-4.1091
X5.7736Y-4.9126
X5.7748Y-4.6181
X5.7768Y-4.0697
X5.787Y-3.2283
X5.789Y-3.2724
X5.7894Y-4.1665
X5.7894Y-4.6772
X5.7921Y-4.5535
X5.7937Y-3.9831
X5.8035Y-2.7283
X5.8091Y-4.0394
X5.8177Y-3.2606
X5.8189Y-3.8413
X5.8205Y-4.1303
X5.8228Y-3.8945
X5.8264Y-4.624
X5.8272Y-4.6909
X5.8287Y-3.7921
X5.8311Y-5.5063
X5.8366Y-5.0268
X5.8386Y-4.3154
X5.8476Y-3.7169
X5.8492Y-4.4817
X5.85Y-3.9484
X5.8512Y-3.9059
X5.8512Y-4.0366
X5.852Y-3.9949
X5.852Y-4.5083
X5.8524Y-4.0913
X5.8528Y-3.8142
X5.8567Y-4.4154
X5.8583Y-4.4437
X5.8594Y-4.2961
X5.8594Y-4.3764
X5.8614Y-3.5272
X5.8637Y-4.5287
X5.8638Y-3.6972
X5.8654Y-4.6953
X5.8685Y-4.665
X5.8713Y-2.7264
X5.8762Y-4.8852
X5.8776Y-4.5622
X5.8811Y-4.624
X5.9144Y-4.5919
X5.9169Y-4.9169
X5.9311Y-5.0287
X5.935Y-2.7252
X5.9402Y-3.029
X5.9411Y-4.9357
X5.9644Y-3.0048
X5.9686Y-3.6302
X5.9858Y-4.8402
X5.9959Y-4.4608
X5.9969Y-4.8012
X6.0189Y-2.9732
X6.0283Y-4.4639
X6.0323Y-4.3283
X6.0386Y-4.2563
X6.039Y-4.2917
X6.0402Y-3.8713
X6.0472Y-5.289
X6.0516Y-5.1075
X6.0602Y-5.324
X6.0724Y-4.3315
X6.0783Y-5.3626
X6.0843Y-4.7945
X6.089Y-4.9138
X6.1209Y-4.7984
X6.122Y-4.3264
X6.1224Y-4.528
X6.1287Y-2.9374
X6.1295Y-3.3176
X6.135Y-4.874
X6.1386Y-4.1791
X6.1461Y-4.5094
X6.1466Y-4.3169
X6.15Y-4.7972
X6.1669Y-4.9106
X6.1772Y-3.3035
X6.1819Y-5.0295
X6.1925Y-4.3295
X6.1993Y-4.9061
X6.2028Y-4.3004
X6.211Y-4.2642
X6.2276Y-2.9169
X6.2547Y-4.2626
X6.2575Y-5.1224
X6.2614Y-2.8448
X6.2642Y-4.6539
X6.2728Y-5.3433
X6.2735Y-4.2203
X6.2757Y-2.8636
X6.2768Y-4.8573
X6.2811Y-5.2988
X6.287Y-5.0276
X6.2917Y-4.1209
X6.2933Y-4.1504
X6.2949Y-4.6539
X6.3252Y-5.3118
X6.3509Y-4.2643
X6.3512Y-3.8091
X6.3535Y-5.3508
X6.357Y-4.6552
X6.3598Y-4.8768
X6.3713Y-5.0291
X6.3898Y-4.6559
X6.3949Y-5.2945
X6.4012Y-3.8091
X6.4154Y-5.3461
X6.4161Y-5.0083
X6.4189Y-4.9654
X6.4209Y-4.6579
X6.424Y-4.2252
X6.4425Y-3.8083
X6.4449Y-5.3083
X6.4492Y-4.6567
X6.4677Y-4.3362
X6.4677Y-4.4713
X6.4724Y-5.0795
X6.4772Y-5.3449
X6.4819Y-3.8059
X6.4917Y-5.3
X6.5358Y-5.0197
X6.537Y-5.3791
X6.6024Y-4.811
X6.6323Y-4.9638
X6.6354Y-5.0673
X6.6449Y-3.9657
X6.6636Y-4.87
X6.6699Y-3.9657
X6.6895Y-4.7991
X6.6941Y-3.0531
X6.6949Y-3.9657
X6.7106Y-4.8097
X6.7171Y-5.31
X6.7199Y-3.9657
X6.731Y-4.8215
X6.7358Y-3.0555
X6.7446Y-4.8689
X6.7449Y-3.9657
X6.7503Y-4.8351
X6.7677Y-5.0862
X6.7699Y-3.9657
X6.7713Y-3.0512
X6.7732Y-5.1283
X6.7744Y-5.0378
X6.7949Y-3.9657
X6.8394Y-3.7394
X6.8759Y-3.3569
X6.8917Y-5.0169
X6.9012Y-3.8783
X6.9114Y-2.8524
X6.9275Y-5.0996
X6.9354Y-2.8685
X6.9409Y-5.0571
X6.9508Y-3.1571
X6.9508Y-3.1835
X6.9508Y-3.2094
X6.952Y-3.4661
X6.965Y-2.8697
X6.9709Y-3.7783
X6.9789Y-3.6382
X6.9813Y-3.5994
X6.9913Y-4.8933
X6.9969Y-2.8701
X7.0012Y-3.7783
X7.0303Y-3.7783
X7.1362Y-4.2016
X7.1409Y-2.5563
X7.1528Y-4.5249
X7.1594Y-2.6374
X7.1622Y-4.2567
X7.1654Y-4.2291
X7.187Y-4.3866
X7.1929Y-2.5128
X7.1945Y-2.5665
X7.1976Y-4.3583
X7.2138Y-4.3815
X7.2228Y-2.5909
X7.2417Y-2.4941
X7.2453Y-2.6579
X7.2555Y-4.5232
X7.2587Y-3.6874
X7.2626Y-4.3717
X7.2657Y-3.722
X7.2704Y-4.056
X7.2753Y-3.9308
X7.2756Y-3.9626
X7.2756Y-3.9862
X7.2871Y-4.0393
X7.2872Y-3.4026
X7.2894Y-3.8437
X7.2898Y-2.4933
X7.292Y-3.9141
X7.3004Y-2.5406
X7.3232Y-2.4772
X7.3539Y-2.5504
X7.3541Y-4.701
X7.3641Y-4.7384
X7.3748Y-3.9634
X7.376Y-3.9035
X7.3776Y-3.1744
X7.378Y-3.8319
X7.3795Y-3.774
X7.3795Y-3.8043
X7.3807Y-3.7457
X7.3811Y-3.7181
X7.3815Y-3.6906
X7.3815Y-4.0787
X7.4Y-3.9246
X7.4024Y-3.9756
X7.4031Y-4.6701
X7.4087Y-4.0283
X7.4319Y-3.039
X7.4335Y-2.8626
X7.4335Y-3.3091
X7.4339Y-4.0461
X7.4386Y-4.0173
X7.4413Y-3.922
X7.4425Y-3.0835
X7.4614Y-4.0764
X7.4697Y-2.9512
X7.4721Y-4.785
X7.4728Y-2.8272
X7.4768Y-2.8705
X7.4776Y-3.4689
X7.4807Y-3.3362
X7.5092Y-4.785
X7.5205Y-3.0327
X7.5272Y-2.7091
X7.5319Y-3.4693
X7.5323Y-4.4402
X7.537Y-4.6283
X7.541Y-4.3937
X7.5429Y-2.6476
X7.5445Y-3.124
X7.5465Y-3.2606
X7.5472Y-3.2224
X7.5587Y-3.1047
X7.5594Y-4.7335
X7.5637Y-4.5758
X7.5736Y-4.5091
X7.5744Y-4.9551
X7.5748Y-4.5382
X7.5798Y-3.463
X7.5906Y-2.974
X7.6307Y-4.4712
X7.6319Y-2.6114
X7.6354Y-3.5346
X7.6398Y-3.263
X7.6449Y-3.4131
X7.6516Y-3.5622
X7.6532Y-2.672
X7.6611Y-4.4292
X7.6646Y-2.8839
X7.6693Y-2.7807
X7.6709Y-4.3941
X7.6803Y-3.589
X7.6976Y-3.4067
X7.698Y-3.2823
X7.6989Y-3.1567
X7.7146Y-2.7803
X7.7201Y-3.2031
X7.7234Y-3.1607
X7.726Y-3.2717
X7.7421Y-3.1406
X7.7498Y-3.2917
X7.7685Y-3.261
X7.7736Y-3.1232
X7.7851Y-2.9726
X7.7925Y-2.8421
X7.7937Y-2.8091
X7.7941Y-2.7287
X7.7949Y-2.8768
X7.7957Y-3.3555
X7.7972Y-2.7819
X7.8083Y-2.9913
X7.8366Y-2.5913
X7.8382Y-2.5594
X7.8579Y-2.7421
X7.865Y-2.6984
X7.8713Y-2.5488
X7.9031Y-2.7457
X7.9091Y-2.5563
X7.926Y-2.5854
X7.928Y-2.8339
X7.9402Y-2.5437
X7.9453Y-3.061
X7.9583Y-2.5142
X7.9988Y-3.0583
X8.0205Y-2.5484
X8.0248Y-3.2339
X8.0272Y-3.2941
X8.0425Y-2.4795
X8.0906Y-3.4846
X8.0953Y-2.4823
X8.1027Y-3.142
X8.1311Y-3.5047
X8.1449Y-3.0835
X8.1453Y-3.3575
X8.1457Y-5.213
X8.1457Y-5.2449
X8.1457Y-5.2752
X8.1457Y-5.3091
X8.1862Y-3.1244
X8.1867Y-3.2636
X8.1945Y-2.4803
X8.2449Y-2.578
X8.2449Y-3.489
X8.2461Y-3.3035
X8.3382Y-2.5386
X8.3524Y-2.4988
T2
X5.6559Y-3.685
X5.6559Y-3.7244
X5.6559Y-3.7638
X5.6953Y-3.685
X5.6953Y-3.7244
X5.6953Y-3.7638
X5.7346Y-3.685
X5.7346Y-3.7244
X5.7346Y-3.7638
X6.8039Y-3.5469
X6.8039Y-3.6256
X6.8433Y-3.5469
X6.8433Y-3.6256
X6.8827Y-3.5469
X6.8827Y-3.6256
X7.0Y-4.3642
X7.0Y-4.3996
X7.0335Y-4.3642
X7.0335Y-4.3996
X7.0669Y-4.3642
X7.0669Y-4.3996
T3
X5.2348Y-5.2093
X5.2506Y-5.2368
X5.2663Y-5.2093
X5.2821Y-5.2368
X5.2978Y-5.2093
X5.3136Y-5.2368
X5.3293Y-5.2093
X5.3608Y-5.2093
X5.3766Y-5.2368
X5.3923Y-5.2093
X5.4081Y-5.2368
X5.4238Y-5.2093
X5.4396Y-5.2368
X5.4553Y-5.2093
X8.0232Y-2.713
X8.0232Y-2.7445
X8.0232Y-2.776
X8.0232Y-2.8075
X8.0232Y-2.839
X8.0232Y-2.8705
X8.0232Y-2.902
X8.0232Y-2.9335
X8.0508Y-2.7287
X8.0508Y-2.7602
X8.0508Y-2.7917
X8.0508Y-2.8547
X8.0508Y-2.8862
X8.0508Y-2.9177
T4
X5.177Y-5.2545
X5.177Y-5.4407
X5.5132Y-5.2545
X5.5132Y-5.4407
X8.0685Y-2.6551
X8.0685Y-2.9913
X8.2547Y-2.6551
X8.2547Y-2.9913
T5
X6.2197Y-5.074
X6.2694Y-4.974
X6.3197Y-5.074
X6.3694Y-4.974
X6.4196Y-5.074
X6.4693Y-4.974
X6.5196Y-5.074
X6.5693Y-4.974
T6
X5.2832Y-2.7246
X5.2832Y-2.8246
X5.2832Y-2.9246
X5.2832Y-3.0246
X5.2832Y-3.1246
X5.2832Y-3.2246
X5.2832Y-3.3246
X5.2832Y-3.4246
X5.2832Y-3.5846
X5.2832Y-3.6846
X5.2832Y-3.7846
X5.2832Y-3.8846
X5.2832Y-3.9846
X5.2832Y-4.0846
X5.2832Y-4.1846
X5.2832Y-4.2846
X5.2832Y-4.3846
X5.2832Y-4.4846
X6.0832Y-2.6196
X6.0832Y-2.7196
X6.1832Y-2.6196
X6.1832Y-2.7196
X6.2832Y-2.6196
X6.2832Y-2.7196
X7.1832Y-2.7246
X7.1832Y-2.8246
X7.1832Y-2.9246
X7.1832Y-3.0246
X7.1832Y-3.1246
X7.1832Y-3.2246
X7.1832Y-3.4246
X7.1832Y-3.5246
X7.1832Y-3.6246
X7.1832Y-3.7246
X7.1832Y-3.8246
X7.1832Y-3.9246
X7.1832Y-4.0246
X7.1832Y-4.1246
T7
X6.1455Y-5.4858
X6.2455Y-5.4858
X6.5435Y-5.4858
X6.6435Y-5.4858
T8
X4.9134Y-2.7126
X4.9134Y-5.3425
T9
X6.0816Y-5.1705
X6.7074Y-5.1705
T10
X7.2433Y-5.2024
X7.7606Y-5.2024
T0
M30
