%TF.GenerationSoftware,KiCad,Pcbnew,6.0.4-6f826c9f35~116~ubuntu20.04.1*%
%TF.CreationDate,2022-04-07T12:40:15+02:00*%
%TF.ProjectId,stm32mp1-custom-devboard,73746d33-326d-4703-912d-637573746f6d,V4.0*%
%TF.SameCoordinates,Original*%
%TF.FileFunction,Paste,Top*%
%TF.FilePolarity,Positive*%
%FSLAX46Y46*%
G04 Gerber Fmt 4.6, Leading zero omitted, Abs format (unit mm)*
G04 Created by KiCad (PCBNEW 6.0.4-6f826c9f35~116~ubuntu20.04.1) date 2022-04-07 12:40:15*
%MOMM*%
%LPD*%
G01*
G04 APERTURE LIST*
G04 Aperture macros list*
%AMRoundRect*
0 Rectangle with rounded corners*
0 $1 Rounding radius*
0 $2 $3 $4 $5 $6 $7 $8 $9 X,Y pos of 4 corners*
0 Add a 4 corners polygon primitive as box body*
4,1,4,$2,$3,$4,$5,$6,$7,$8,$9,$2,$3,0*
0 Add four circle primitives for the rounded corners*
1,1,$1+$1,$2,$3*
1,1,$1+$1,$4,$5*
1,1,$1+$1,$6,$7*
1,1,$1+$1,$8,$9*
0 Add four rect primitives between the rounded corners*
20,1,$1+$1,$2,$3,$4,$5,0*
20,1,$1+$1,$4,$5,$6,$7,0*
20,1,$1+$1,$6,$7,$8,$9,0*
20,1,$1+$1,$8,$9,$2,$3,0*%
%AMFreePoly0*
4,1,17,0.568121,0.530998,0.602938,0.497662,1.202938,-0.352338,1.225881,-0.419525,1.208858,-0.488451,1.157273,-0.537231,1.100000,-0.551000,-1.100000,-0.551000,-1.168121,-0.530998,-1.214614,-0.477342,-1.224718,-0.407068,-1.202938,-0.352338,-0.602938,0.497662,-0.547313,0.541780,-0.500000,0.551000,0.500000,0.551000,0.568121,0.530998,0.568121,0.530998,$1*%
%AMFreePoly1*
4,1,5,0.888727,-0.390000,-0.888727,-0.390000,-0.342727,0.390000,0.342727,0.390000,0.888727,-0.390000,0.888727,-0.390000,$1*%
G04 Aperture macros list end*
%ADD10RoundRect,0.038000X-1.150000X-1.654000X1.150000X-1.654000X1.150000X1.654000X-1.150000X1.654000X0*%
%ADD11R,0.453600X2.100000*%
%ADD12RoundRect,0.150000X-1.784000X1.000000X-1.784000X-1.000000X1.784000X-1.000000X1.784000X1.000000X0*%
%ADD13RoundRect,0.150000X1.000000X1.784000X-1.000000X1.784000X-1.000000X-1.784000X1.000000X-1.784000X0*%
%ADD14RoundRect,0.124500X-0.237500X-0.097500X0.237500X-0.097500X0.237500X0.097500X-0.237500X0.097500X0*%
%ADD15RoundRect,0.124500X-0.097500X0.237500X-0.097500X-0.237500X0.097500X-0.237500X0.097500X0.237500X0*%
%ADD16RoundRect,0.124500X0.097500X-0.237500X0.097500X0.237500X-0.097500X0.237500X-0.097500X-0.237500X0*%
%ADD17R,0.572000X0.572000*%
%ADD18R,0.592000X0.368000*%
%ADD19RoundRect,0.066000X0.524000X-0.300000X0.524000X0.300000X-0.524000X0.300000X-0.524000X-0.300000X0*%
%ADD20R,0.552000X1.000000*%
%ADD21RoundRect,0.066000X0.216000X-0.300000X0.216000X0.300000X-0.216000X0.300000X-0.216000X-0.300000X0*%
%ADD22O,0.452000X1.012000*%
%ADD23R,0.612000X0.388000*%
%ADD24RoundRect,0.370000X-0.500000X0.500000X-0.500000X-0.500000X0.500000X-0.500000X0.500000X0.500000X0*%
%ADD25RoundRect,0.081000X-0.369000X0.075000X-0.369000X-0.075000X0.369000X-0.075000X0.369000X0.075000X0*%
%ADD26RoundRect,0.306000X2.300000X2.244000X-2.300000X2.244000X-2.300000X-2.244000X2.300000X-2.244000X0*%
%ADD27RoundRect,0.150000X1.000000X0.076000X-1.000000X0.076000X-1.000000X-0.076000X1.000000X-0.076000X0*%
%ADD28RoundRect,0.017000X0.975000X0.807000X-0.975000X0.807000X-0.975000X-0.807000X0.975000X-0.807000X0*%
%ADD29O,0.731372X1.516000*%
%ADD30R,1.256000X0.752000*%
%ADD31R,0.424000X0.592000*%
%ADD32RoundRect,0.404500X1.053500X-0.787500X1.053500X0.787500X-1.053500X0.787500X-1.053500X-0.787500X0*%
%ADD33R,0.368000X0.592000*%
%ADD34RoundRect,0.183010X1.246632X-1.275080X1.246632X1.275080X-1.246632X1.275080X-1.246632X-1.275080X0*%
%ADD35RoundRect,0.183010X-1.246632X1.275080X-1.246632X-1.275080X1.246632X-1.275080X1.246632X1.275080X0*%
%ADD36R,1.000000X0.552000*%
%ADD37RoundRect,0.404500X-1.053500X0.787500X-1.053500X-0.787500X1.053500X-0.787500X1.053500X0.787500X0*%
%ADD38RoundRect,0.495000X-0.375000X-1.215000X0.375000X-1.215000X0.375000X1.215000X-0.375000X1.215000X0*%
%ADD39RoundRect,0.000000X-0.649500X-0.156000X0.649500X-0.156000X0.649500X0.156000X-0.649500X0.156000X0*%
%ADD40RoundRect,0.081000X-0.075000X-0.568500X0.075000X-0.568500X0.075000X0.568500X-0.075000X0.568500X0*%
%ADD41R,2.075840X1.506880*%
%ADD42R,1.032000X0.584000*%
%ADD43R,0.664000X0.888000*%
%ADD44R,0.920000X1.480000*%
%ADD45FreePoly0,0.000000*%
%ADD46FreePoly1,180.000000*%
%ADD47R,2.064000X1.660800*%
%ADD48R,0.920000X1.816000*%
%ADD49RoundRect,0.014000X-1.230000X0.950000X-1.230000X-0.950000X1.230000X-0.950000X1.230000X0.950000X0*%
%ADD50RoundRect,0.740000X0.410000X-1.250000X0.410000X1.250000X-0.410000X1.250000X-0.410000X-1.250000X0*%
%ADD51RoundRect,0.390000X0.760000X-3.000000X0.760000X3.000000X-0.760000X3.000000X-0.760000X-3.000000X0*%
%ADD52RoundRect,0.890000X0.260000X-2.500000X0.260000X2.500000X-0.260000X2.500000X-0.260000X-2.500000X0*%
%ADD53RoundRect,0.121440X-0.762000X-1.046480X0.762000X-1.046480X0.762000X1.046480X-0.762000X1.046480X0*%
%ADD54RoundRect,0.121440X-1.046480X0.762000X-1.046480X-0.762000X1.046480X-0.762000X1.046480X0.762000X0*%
%ADD55RoundRect,0.068100X-0.317500X-0.601980X0.317500X-0.601980X0.317500X0.601980X-0.317500X0.601980X0*%
%ADD56RoundRect,0.069000X-0.101000X0.325000X-0.101000X-0.325000X0.101000X-0.325000X0.101000X0.325000X0*%
%ADD57RoundRect,0.069000X-0.325000X-0.101000X0.325000X-0.101000X0.325000X0.101000X-0.325000X0.101000X0*%
%ADD58C,1.624640*%
%ADD59C,1.772570*%
%ADD60C,2.796698*%
%ADD61RoundRect,0.097200X-0.560000X-1.545600X0.560000X-1.545600X0.560000X1.545600X-0.560000X1.545600X0*%
%ADD62R,1.506880X2.075840*%
%ADD63O,1.180852X0.620000*%
%ADD64O,0.620000X1.180852*%
%ADD65RoundRect,0.072000X0.350000X0.462000X-0.350000X0.462000X-0.350000X-0.462000X0.350000X-0.462000X0*%
%ADD66R,0.572000X1.020000*%
%ADD67RoundRect,0.121000X1.207000X-0.325000X1.207000X0.325000X-1.207000X0.325000X-1.207000X-0.325000X0*%
%ADD68RoundRect,0.303000X1.501000X-0.325000X1.501000X0.325000X-1.501000X0.325000X-1.501000X-0.325000X0*%
%ADD69RoundRect,0.006000X-0.300000X0.300000X-0.300000X-0.300000X0.300000X-0.300000X0.300000X0.300000X0*%
%ADD70RoundRect,0.066000X-0.524000X0.300000X-0.524000X-0.300000X0.524000X-0.300000X0.524000X0.300000X0*%
%ADD71R,1.148000X1.036000*%
%ADD72RoundRect,0.102000X0.096000X-0.600000X0.096000X0.600000X-0.096000X0.600000X-0.096000X-0.600000X0*%
%ADD73RoundRect,0.084864X-0.457200X-0.457200X0.457200X-0.457200X0.457200X0.457200X-0.457200X0.457200X0*%
%ADD74R,1.132000X0.796000*%
%ADD75RoundRect,0.102000X0.600000X0.096000X-0.600000X0.096000X-0.600000X-0.096000X0.600000X-0.096000X0*%
%ADD76R,2.304000X1.072000*%
%ADD77R,3.256000X1.296000*%
%ADD78R,0.816000X0.256000*%
G04 APERTURE END LIST*
D10*
%TO.C,CON3*%
X167100000Y-120382500D03*
X137800000Y-120382500D03*
D11*
X140650000Y-120982500D03*
X141050000Y-112782500D03*
X141450000Y-120982500D03*
X141850000Y-112782500D03*
X142250000Y-120982500D03*
X142650000Y-112782500D03*
X143050000Y-120982500D03*
X143450000Y-112782500D03*
X143850000Y-120982500D03*
X144250000Y-112782500D03*
X144650000Y-120982500D03*
X145050000Y-112782500D03*
X145450000Y-120982500D03*
X145850000Y-112782500D03*
X146250000Y-120982500D03*
X146650000Y-112782500D03*
X150250000Y-120982500D03*
X150650000Y-112782500D03*
X151050000Y-120982500D03*
X151450000Y-112782500D03*
X151850000Y-120982500D03*
X152250000Y-112782500D03*
X152650000Y-120982500D03*
X153050000Y-112782500D03*
X153450000Y-120982500D03*
X153850000Y-112782500D03*
X154250000Y-120982500D03*
X154650000Y-112782500D03*
X155050000Y-120982500D03*
X155450000Y-112782500D03*
X155850000Y-120982500D03*
X156250000Y-112782500D03*
X156650000Y-120982500D03*
X157050000Y-112782500D03*
X157450000Y-120982500D03*
X157850000Y-112782500D03*
X158250000Y-120982500D03*
X158650000Y-112782500D03*
X159050000Y-120982500D03*
X159450000Y-112782500D03*
X159850000Y-120982500D03*
X160250000Y-112782500D03*
X160650000Y-120982500D03*
X161050000Y-112782500D03*
X161450000Y-120982500D03*
X161850000Y-112782500D03*
X162250000Y-120982500D03*
X162650000Y-112782500D03*
X163050000Y-120982500D03*
X163450000Y-112782500D03*
X163850000Y-120982500D03*
X164250000Y-112782500D03*
%TD*%
D12*
%TO.C,L1*%
X171450000Y-97540000D03*
X171450000Y-102240000D03*
%TD*%
D13*
%TO.C,L2*%
X178910000Y-117080000D03*
X174210000Y-117080000D03*
%TD*%
D14*
%TO.C,U11*%
X204820000Y-81800000D03*
X204820000Y-82750000D03*
X204820000Y-83700000D03*
X207220000Y-83700000D03*
X207220000Y-82750000D03*
X207220000Y-81800000D03*
%TD*%
%TO.C,U18*%
X159860000Y-106360000D03*
X159860000Y-107310000D03*
X159860000Y-108260000D03*
X162260000Y-108260000D03*
X162260000Y-107310000D03*
X162260000Y-106360000D03*
%TD*%
D15*
%TO.C,U16*%
X140920000Y-106610000D03*
X139970000Y-106610000D03*
X139020000Y-106610000D03*
X139020000Y-109010000D03*
X139970000Y-109010000D03*
X140920000Y-109010000D03*
%TD*%
D14*
%TO.C,U19*%
X138630000Y-73050000D03*
X138630000Y-74000000D03*
X138630000Y-74950000D03*
X141030000Y-74950000D03*
X141030000Y-74000000D03*
X141030000Y-73050000D03*
%TD*%
D16*
%TO.C,U12*%
X133510000Y-123540000D03*
X134460000Y-123540000D03*
X135410000Y-123540000D03*
X135410000Y-121140000D03*
X134460000Y-121140000D03*
X133510000Y-121140000D03*
%TD*%
D14*
%TO.C,U13*%
X138640000Y-76610000D03*
X138640000Y-77560000D03*
X138640000Y-78510000D03*
X141040000Y-78510000D03*
X141040000Y-77560000D03*
X141040000Y-76610000D03*
%TD*%
%TO.C,U17*%
X149870000Y-107120000D03*
X149870000Y-108070000D03*
X149870000Y-109020000D03*
X152270000Y-109020000D03*
X152270000Y-108070000D03*
X152270000Y-107120000D03*
%TD*%
%TO.C,U14*%
X138740000Y-84810000D03*
X138740000Y-85760000D03*
X138740000Y-86710000D03*
X141140000Y-86710000D03*
X141140000Y-85760000D03*
X141140000Y-84810000D03*
%TD*%
%TO.C,U15*%
X155790000Y-71470000D03*
X155790000Y-72420000D03*
X155790000Y-73370000D03*
X158190000Y-73370000D03*
X158190000Y-72420000D03*
X158190000Y-71470000D03*
%TD*%
D17*
%TO.C,D12*%
X192000000Y-71350000D03*
X192000000Y-69150000D03*
%TD*%
%TO.C,D2*%
X194050000Y-69470000D03*
X194050000Y-71670000D03*
%TD*%
D18*
%TO.C,R80*%
X112910000Y-140580000D03*
X112910000Y-139680000D03*
%TD*%
%TO.C,R79*%
X113900000Y-140580000D03*
X113900000Y-139680000D03*
%TD*%
D19*
%TO.C,C1*%
X193830000Y-65410000D03*
X193830000Y-64010000D03*
%TD*%
D20*
%TO.C,C2*%
X199700000Y-67240000D03*
X201100000Y-67240000D03*
%TD*%
D21*
%TO.C,D1*%
X200210000Y-65890000D03*
X200210000Y-63790000D03*
%TD*%
D22*
%TO.C,U1*%
X192558250Y-63630000D03*
X191908250Y-63630000D03*
X191258250Y-63630000D03*
X191258250Y-65830000D03*
X192558250Y-65830000D03*
%TD*%
D18*
%TO.C,C6*%
X184230000Y-96460000D03*
X184230000Y-95560000D03*
%TD*%
D23*
%TO.C,L4*%
X184470000Y-109280000D03*
X184470000Y-110180000D03*
%TD*%
D24*
%TO.C,CON2*%
X188840000Y-90600000D03*
X188840000Y-106200000D03*
D25*
X186180000Y-92660000D03*
X186180000Y-93160000D03*
X186180000Y-93660000D03*
X186180000Y-94160000D03*
X186180000Y-94660000D03*
X186180000Y-95160000D03*
X186180000Y-95660000D03*
X186180000Y-96160000D03*
X186180000Y-96660000D03*
X186180000Y-97160000D03*
X186180000Y-97660000D03*
X186180000Y-98160000D03*
X186180000Y-98660000D03*
X186180000Y-99160000D03*
X186180000Y-99660000D03*
X186180000Y-100160000D03*
X186180000Y-100660000D03*
X186180000Y-101160000D03*
X186180000Y-101660000D03*
X186180000Y-102160000D03*
X186180000Y-102660000D03*
X186180000Y-103160000D03*
X186180000Y-103660000D03*
X186180000Y-104160000D03*
%TD*%
D26*
%TO.C,SOM1*%
X112800000Y-134850000D03*
X112800000Y-69740000D03*
D27*
X128900000Y-133950000D03*
X120700000Y-133650000D03*
X128900000Y-133350000D03*
X120700000Y-133050000D03*
X128900000Y-132750000D03*
X120700000Y-132450000D03*
X128900000Y-132150000D03*
X120700000Y-131850000D03*
X128900000Y-131550000D03*
X120700000Y-131250000D03*
X128900000Y-130950000D03*
X120700000Y-130650000D03*
X128900000Y-130350000D03*
X120700000Y-130050000D03*
X128900000Y-129750000D03*
X120700000Y-129450000D03*
X128900000Y-129150000D03*
X120700000Y-128850000D03*
X128900000Y-128550000D03*
X120700000Y-128250000D03*
X128900000Y-127950000D03*
X120700000Y-127650000D03*
X128900000Y-127350000D03*
X120700000Y-127050000D03*
X128900000Y-126750000D03*
X120700000Y-126450000D03*
X128900000Y-126150000D03*
X120700000Y-125850000D03*
X128900000Y-125550000D03*
X120700000Y-125250000D03*
X128900000Y-124950000D03*
X120700000Y-124650000D03*
X128900000Y-124350000D03*
X120700000Y-124050000D03*
X128900000Y-123750000D03*
X120700000Y-123450000D03*
X128900000Y-123150000D03*
X120700000Y-122850000D03*
X128900000Y-122550000D03*
X120700000Y-122250000D03*
X128900000Y-118350000D03*
X120700000Y-118050000D03*
X128900000Y-117750000D03*
X120700000Y-117450000D03*
X128900000Y-117150000D03*
X120700000Y-116850000D03*
X128900000Y-116550000D03*
X120700000Y-116250000D03*
X128900000Y-115950000D03*
X120700000Y-115650000D03*
X128900000Y-115350000D03*
X120700000Y-115050000D03*
X128900000Y-114750000D03*
X120700000Y-114450000D03*
X128900000Y-114150000D03*
X120700000Y-113850000D03*
X128900000Y-113550000D03*
X120700000Y-113250000D03*
X128900000Y-112950000D03*
X120700000Y-112650000D03*
X128900000Y-112350000D03*
X120700000Y-112050000D03*
X128900000Y-111750000D03*
X120700000Y-111450000D03*
X128900000Y-111150000D03*
X120700000Y-110850000D03*
X128900000Y-110550000D03*
X120700000Y-110250000D03*
X128900000Y-109950000D03*
X120700000Y-109650000D03*
X128900000Y-109350000D03*
X120700000Y-109050000D03*
X128900000Y-108750000D03*
X120700000Y-108450000D03*
X128900000Y-108150000D03*
X120700000Y-107850000D03*
X128900000Y-107550000D03*
X120700000Y-107250000D03*
X128900000Y-106950000D03*
X120700000Y-106650000D03*
X128900000Y-106350000D03*
X120700000Y-106050000D03*
X128900000Y-105750000D03*
X120700000Y-105450000D03*
X128900000Y-105150000D03*
X120700000Y-104850000D03*
X128900000Y-104550000D03*
X120700000Y-104250000D03*
X128900000Y-103950000D03*
X120700000Y-103650000D03*
X128900000Y-103350000D03*
X120700000Y-103050000D03*
X128900000Y-102750000D03*
X120700000Y-102450000D03*
X128900000Y-102150000D03*
X120700000Y-101850000D03*
X128900000Y-101550000D03*
X120700000Y-101250000D03*
X128900000Y-100950000D03*
X120700000Y-100650000D03*
X128900000Y-100350000D03*
X120700000Y-100050000D03*
X128900000Y-99750000D03*
X120700000Y-99450000D03*
X128900000Y-99150000D03*
X120700000Y-98850000D03*
X128900000Y-98550000D03*
X120700000Y-98250000D03*
X128900000Y-97950000D03*
X120700000Y-97650000D03*
X128900000Y-97350000D03*
X120700000Y-97050000D03*
X128900000Y-96750000D03*
X120700000Y-96450000D03*
X128900000Y-96150000D03*
X120700000Y-95850000D03*
X128900000Y-95550000D03*
X120700000Y-95250000D03*
X128900000Y-94950000D03*
X120700000Y-94650000D03*
X128900000Y-94350000D03*
X120700000Y-94050000D03*
X128900000Y-93750000D03*
X120700000Y-93450000D03*
X128900000Y-93150000D03*
X120700000Y-92850000D03*
X128900000Y-92550000D03*
X120700000Y-92250000D03*
X128900000Y-91950000D03*
X120700000Y-91650000D03*
X128900000Y-91350000D03*
X120700000Y-91050000D03*
X128900000Y-90750000D03*
X120700000Y-90450000D03*
X128900000Y-90150000D03*
X120700000Y-89850000D03*
X128900000Y-89550000D03*
X120700000Y-89250000D03*
X128900000Y-88950000D03*
X120700000Y-88650000D03*
X128900000Y-88350000D03*
X120700000Y-88050000D03*
X128900000Y-87750000D03*
X120700000Y-87450000D03*
X128900000Y-87150000D03*
X120700000Y-86850000D03*
X128900000Y-86550000D03*
X120700000Y-86250000D03*
X128900000Y-85950000D03*
X120700000Y-85650000D03*
X128900000Y-85350000D03*
X120700000Y-85050000D03*
X128900000Y-84750000D03*
X120700000Y-84450000D03*
X128900000Y-84150000D03*
X120700000Y-83850000D03*
X128900000Y-83550000D03*
X120700000Y-83250000D03*
X128900000Y-82950000D03*
X120700000Y-82650000D03*
X128900000Y-82350000D03*
X120700000Y-82050000D03*
X128900000Y-81750000D03*
X120700000Y-81450000D03*
X128900000Y-81150000D03*
X120700000Y-80850000D03*
X128900000Y-80550000D03*
X120700000Y-80250000D03*
X128900000Y-79950000D03*
X120700000Y-79650000D03*
X128900000Y-79350000D03*
X120700000Y-79050000D03*
X128900000Y-78750000D03*
X120700000Y-78450000D03*
X128900000Y-78150000D03*
X120700000Y-77850000D03*
X128900000Y-77550000D03*
X120700000Y-77250000D03*
X128900000Y-76950000D03*
X120700000Y-76650000D03*
X128900000Y-76350000D03*
X120700000Y-76050000D03*
X128900000Y-75750000D03*
X120700000Y-75450000D03*
X128900000Y-75150000D03*
X120700000Y-74850000D03*
X128900000Y-74550000D03*
X120700000Y-74250000D03*
X128900000Y-73950000D03*
X120700000Y-73650000D03*
X128900000Y-73350000D03*
X120700000Y-73050000D03*
X128900000Y-72750000D03*
X120700000Y-72450000D03*
X128900000Y-72150000D03*
X120700000Y-71850000D03*
X128900000Y-71550000D03*
X120700000Y-71250000D03*
X128900000Y-70950000D03*
X120700000Y-70650000D03*
%TD*%
D28*
%TO.C,U3*%
X172860000Y-91850000D03*
X174720000Y-91850000D03*
X174720000Y-90340000D03*
X172860000Y-90340000D03*
D29*
X175725000Y-88090260D03*
X174455000Y-88090260D03*
X173185000Y-88090260D03*
X171915000Y-88090260D03*
X171915000Y-94089740D03*
X173185000Y-94089740D03*
X174455000Y-94089740D03*
X175725000Y-94089740D03*
%TD*%
D30*
%TO.C,U4*%
X178000000Y-111725000D03*
X178000000Y-110875000D03*
X179300000Y-111725000D03*
X179300000Y-110875000D03*
D31*
X177700000Y-112680000D03*
X178650000Y-112680000D03*
X179600000Y-112680000D03*
X179600000Y-109920000D03*
X178650000Y-109920000D03*
X177700000Y-109920000D03*
%TD*%
D32*
%TO.C,C8*%
X171090000Y-72630000D03*
X171090000Y-66405000D03*
%TD*%
D33*
%TO.C,C9*%
X172380000Y-85820000D03*
X171480000Y-85820000D03*
%TD*%
%TO.C,C10*%
X169710000Y-85820000D03*
X168810000Y-85820000D03*
%TD*%
D34*
%TO.C,C11*%
X179090000Y-84635240D03*
X179090000Y-89684760D03*
%TD*%
D35*
%TO.C,C12*%
X179090000Y-98284760D03*
X179090000Y-93235240D03*
%TD*%
D33*
%TO.C,C13*%
X176000000Y-109640000D03*
X175100000Y-109640000D03*
%TD*%
D32*
%TO.C,C14*%
X177660000Y-107452500D03*
X177660000Y-101227500D03*
%TD*%
D36*
%TO.C,C15*%
X166500000Y-94460000D03*
X166500000Y-93060000D03*
%TD*%
D32*
%TO.C,C16*%
X170940000Y-112082500D03*
X170940000Y-105857500D03*
%TD*%
D37*
%TO.C,C17*%
X177240000Y-71317500D03*
X177240000Y-77542500D03*
%TD*%
D32*
%TO.C,C18*%
X171090000Y-82152500D03*
X171090000Y-75927500D03*
%TD*%
D33*
%TO.C,C19*%
X169020000Y-87560000D03*
X169920000Y-87560000D03*
%TD*%
%TO.C,C20*%
X169020000Y-89010000D03*
X169920000Y-89010000D03*
%TD*%
D38*
%TO.C,L5*%
X174980000Y-81030000D03*
X179980000Y-81030000D03*
%TD*%
D20*
%TO.C,R2*%
X175880000Y-86400000D03*
X174480000Y-86400000D03*
%TD*%
%TO.C,R3*%
X174860000Y-112450000D03*
X176260000Y-112450000D03*
%TD*%
%TO.C,R4*%
X176250000Y-111050000D03*
X174850000Y-111050000D03*
%TD*%
D36*
%TO.C,R5*%
X168640000Y-91810000D03*
X168640000Y-90410000D03*
%TD*%
%TO.C,R6*%
X168630000Y-92960000D03*
X168630000Y-94360000D03*
%TD*%
%TO.C,R7*%
X189540000Y-120180000D03*
X189540000Y-118780000D03*
%TD*%
%TO.C,R8*%
X190930000Y-120180000D03*
X190930000Y-118780000D03*
%TD*%
%TO.C,C21*%
X200410000Y-86870000D03*
X200410000Y-85470000D03*
%TD*%
D33*
%TO.C,C22*%
X198240000Y-87080000D03*
X197340000Y-87080000D03*
%TD*%
%TO.C,C23*%
X189940000Y-76330000D03*
X189040000Y-76330000D03*
%TD*%
D18*
%TO.C,C24*%
X190850000Y-74700000D03*
X190850000Y-73800000D03*
%TD*%
%TO.C,C25*%
X200690000Y-77990000D03*
X200690000Y-78890000D03*
%TD*%
D23*
%TO.C,L6*%
X188820000Y-82340000D03*
X188820000Y-83240000D03*
%TD*%
D39*
%TO.C,U5*%
X190407500Y-78340000D03*
X190407500Y-78840000D03*
X190407500Y-79340000D03*
X190407500Y-79840000D03*
X190407500Y-80340000D03*
X190407500Y-80840000D03*
X190407500Y-81340000D03*
X190407500Y-81840000D03*
X190407500Y-82340000D03*
X190407500Y-82840000D03*
X190407500Y-83340000D03*
X190407500Y-83840000D03*
D40*
X191820000Y-85252500D03*
X192320000Y-85252500D03*
X192820000Y-85252500D03*
X193320000Y-85252500D03*
X193820000Y-85252500D03*
X194320000Y-85252500D03*
X194820000Y-85252500D03*
X195320000Y-85252500D03*
X195820000Y-85252500D03*
X196320000Y-85252500D03*
X196820000Y-85252500D03*
X197320000Y-85252500D03*
D39*
X198732500Y-83840000D03*
X198732500Y-83340000D03*
X198732500Y-82840000D03*
X198732500Y-82340000D03*
X198732500Y-81840000D03*
X198732500Y-81340000D03*
X198732500Y-80840000D03*
X198732500Y-80340000D03*
X198732500Y-79840000D03*
X198732500Y-79340000D03*
X198732500Y-78840000D03*
X198732500Y-78340000D03*
D40*
X197320000Y-76927500D03*
X196820000Y-76927500D03*
X196320000Y-76927500D03*
X195820000Y-76927500D03*
X195320000Y-76927500D03*
X194820000Y-76927500D03*
X194320000Y-76927500D03*
X193820000Y-76927500D03*
X193320000Y-76927500D03*
X192820000Y-76927500D03*
X192320000Y-76927500D03*
X191820000Y-76927500D03*
%TD*%
D41*
%TO.C,C26*%
X209660000Y-81441000D03*
X209660000Y-78139000D03*
%TD*%
D18*
%TO.C,C27*%
X187300000Y-74700000D03*
X187300000Y-73800000D03*
%TD*%
D33*
%TO.C,C29*%
X192450000Y-73440000D03*
X193350000Y-73440000D03*
%TD*%
D36*
%TO.C,C30*%
X195960000Y-73000000D03*
X195960000Y-71600000D03*
%TD*%
D20*
%TO.C,C31*%
X185940000Y-76290000D03*
X187340000Y-76290000D03*
%TD*%
%TO.C,C32*%
X187140000Y-84890000D03*
X185740000Y-84890000D03*
%TD*%
D42*
%TO.C,D3*%
X205510000Y-80360000D03*
X205510000Y-77460000D03*
X206910000Y-80360000D03*
X206910000Y-77460000D03*
%TD*%
D43*
%TO.C,Q1*%
X200540000Y-68540000D03*
X198640000Y-68540000D03*
X199590000Y-70540000D03*
%TD*%
D36*
%TO.C,R9*%
X188740000Y-73550000D03*
X188740000Y-74950000D03*
%TD*%
D20*
%TO.C,R10*%
X203710000Y-65750000D03*
X202310000Y-65750000D03*
%TD*%
D36*
%TO.C,R11*%
X195810000Y-69890000D03*
X195810000Y-68490000D03*
%TD*%
D20*
%TO.C,R12*%
X198940000Y-74120000D03*
X200340000Y-74120000D03*
%TD*%
%TO.C,R13*%
X200350000Y-72720000D03*
X198950000Y-72720000D03*
%TD*%
D36*
%TO.C,R14*%
X197220000Y-68490000D03*
X197220000Y-69890000D03*
%TD*%
D20*
%TO.C,R15*%
X199580000Y-75690000D03*
X200980000Y-75690000D03*
%TD*%
%TO.C,R16*%
X203460000Y-79710000D03*
X202060000Y-79710000D03*
%TD*%
%TO.C,R17*%
X203450000Y-81100000D03*
X202050000Y-81100000D03*
%TD*%
%TO.C,R18*%
X190000000Y-85660000D03*
X188600000Y-85660000D03*
%TD*%
D36*
%TO.C,R19*%
X187260000Y-86160000D03*
X187260000Y-87560000D03*
%TD*%
D20*
%TO.C,R20*%
X189990000Y-87060000D03*
X188590000Y-87060000D03*
%TD*%
%TO.C,R21*%
X192210000Y-74860000D03*
X193610000Y-74860000D03*
%TD*%
%TO.C,R22*%
X192680000Y-87060000D03*
X191280000Y-87060000D03*
%TD*%
D36*
%TO.C,R23*%
X201450000Y-82550000D03*
X201450000Y-83950000D03*
%TD*%
D20*
%TO.C,R24*%
X197720000Y-74590000D03*
X196320000Y-74590000D03*
%TD*%
D44*
%TO.C,U6*%
X186790000Y-70495000D03*
D45*
X188290000Y-66348000D03*
D46*
X188290000Y-69091200D03*
D47*
X188290000Y-67681500D03*
D48*
X188290000Y-70348500D03*
D44*
X189790000Y-70495000D03*
%TD*%
D49*
%TO.C,X1*%
X186470000Y-78490000D03*
X186470000Y-82589999D03*
%TD*%
D50*
%TO.C,P1*%
X202900000Y-129990000D03*
D51*
X202900000Y-139240000D03*
D50*
X206900000Y-129990000D03*
D52*
X206900000Y-139240000D03*
%TD*%
D53*
%TO.C,C33*%
X147149000Y-89320000D03*
X150451000Y-89320000D03*
%TD*%
D33*
%TO.C,C34*%
X146550000Y-91040000D03*
X147450000Y-91040000D03*
%TD*%
D18*
%TO.C,C35*%
X141870000Y-99020000D03*
X141870000Y-99920000D03*
%TD*%
D33*
%TO.C,C37*%
X145372560Y-89870440D03*
X144472560Y-89870440D03*
%TD*%
D54*
%TO.C,C38*%
X140100000Y-99609000D03*
X140100000Y-102911000D03*
%TD*%
D18*
%TO.C,C40*%
X162930000Y-123810000D03*
X162930000Y-122910000D03*
%TD*%
D33*
%TO.C,C41*%
X154620000Y-122910000D03*
X153720000Y-122910000D03*
%TD*%
D18*
%TO.C,C42*%
X161540000Y-122920000D03*
X161540000Y-123820000D03*
%TD*%
%TO.C,C43*%
X166240000Y-122920000D03*
X166240000Y-123820000D03*
%TD*%
D55*
%TO.C,L7*%
X143888000Y-88620000D03*
X145412000Y-88620000D03*
%TD*%
D20*
%TO.C,R25*%
X145050000Y-103990000D03*
X143650000Y-103990000D03*
%TD*%
D36*
%TO.C,R26*%
X142140000Y-104650000D03*
X142140000Y-103250000D03*
%TD*%
%TO.C,R27*%
X145010000Y-101820000D03*
X145010000Y-100420000D03*
%TD*%
%TO.C,R28*%
X139080000Y-97820000D03*
X139080000Y-96420000D03*
%TD*%
%TO.C,R29*%
X140470000Y-97820000D03*
X140470000Y-96420000D03*
%TD*%
D18*
%TO.C,R30*%
X143860000Y-99620000D03*
X143860000Y-100520000D03*
%TD*%
D36*
%TO.C,R31*%
X136310000Y-95710000D03*
X136310000Y-97110000D03*
%TD*%
%TO.C,R32*%
X136310000Y-103780000D03*
X136310000Y-102380000D03*
%TD*%
D18*
%TO.C,R33*%
X142920000Y-99620000D03*
X142920000Y-100520000D03*
%TD*%
%TO.C,R34*%
X147160000Y-99630000D03*
X147160000Y-100530000D03*
%TD*%
D36*
%TO.C,R35*%
X138630000Y-90680000D03*
X138630000Y-92080000D03*
%TD*%
D20*
%TO.C,R36*%
X138630000Y-94090000D03*
X140030000Y-94090000D03*
%TD*%
%TO.C,R40*%
X150280000Y-92850000D03*
X148880000Y-92850000D03*
%TD*%
D33*
%TO.C,R41*%
X140740000Y-92520000D03*
X139840000Y-92520000D03*
%TD*%
D36*
%TO.C,R42*%
X147230000Y-139970000D03*
X147230000Y-141370000D03*
%TD*%
%TO.C,R43*%
X149000000Y-139860000D03*
X149000000Y-138460000D03*
%TD*%
D20*
%TO.C,R44*%
X144130000Y-139940000D03*
X145530000Y-139940000D03*
%TD*%
%TO.C,R45*%
X145520000Y-141380000D03*
X144120000Y-141380000D03*
%TD*%
%TO.C,R46*%
X152200000Y-139940000D03*
X150800000Y-139940000D03*
%TD*%
%TO.C,R47*%
X152200000Y-141380000D03*
X150800000Y-141380000D03*
%TD*%
D18*
%TO.C,R48*%
X160520000Y-123820000D03*
X160520000Y-122920000D03*
%TD*%
%TO.C,R49*%
X156880000Y-123820000D03*
X156880000Y-122920000D03*
%TD*%
%TO.C,R94*%
X164430000Y-123820000D03*
X164430000Y-122920000D03*
%TD*%
%TO.C,R96*%
X158760000Y-123820000D03*
X158760000Y-122920000D03*
%TD*%
D56*
%TO.C,U7*%
X146410000Y-92100000D03*
X145910000Y-92100000D03*
X145410000Y-92100000D03*
X144910000Y-92100000D03*
X144410000Y-92100000D03*
X143910000Y-92100000D03*
X143410000Y-92100000D03*
X142910000Y-92100000D03*
D57*
X142160000Y-92850000D03*
X142160000Y-93350000D03*
X142160000Y-93850000D03*
X142160000Y-94350000D03*
X142160000Y-94850000D03*
X142160000Y-95350000D03*
X142160000Y-95850000D03*
X142160000Y-96350000D03*
D56*
X142910000Y-97100000D03*
X143410000Y-97100000D03*
X143910000Y-97100000D03*
X144410000Y-97100000D03*
X144910000Y-97100000D03*
X145410000Y-97100000D03*
X145910000Y-97100000D03*
X146410000Y-97100000D03*
D57*
X147160000Y-96360000D03*
X147160000Y-95850000D03*
X147160000Y-95350000D03*
X147160000Y-94850000D03*
X147160000Y-94350000D03*
X147160000Y-93850000D03*
X147160000Y-93350000D03*
X147160000Y-92850000D03*
%TD*%
D58*
%TO.C,T2*%
X157980080Y-128880000D03*
X159242460Y-126340000D03*
X160520080Y-128880000D03*
X161782460Y-126340000D03*
X163057540Y-128880000D03*
X164319920Y-126340000D03*
X165597540Y-128880000D03*
X166859920Y-126340000D03*
D59*
X156095400Y-139339720D03*
X158635400Y-139339720D03*
X166204600Y-139339720D03*
X168744600Y-139339720D03*
D60*
X154472340Y-131331100D03*
X170367660Y-131331100D03*
%TD*%
D61*
%TO.C,USB1*%
X187050000Y-128470000D03*
X189550000Y-128470000D03*
X191550000Y-128470000D03*
X194050000Y-128470000D03*
%TD*%
D18*
%TO.C,C5*%
X183100000Y-113670000D03*
X183100000Y-114570000D03*
%TD*%
D33*
%TO.C,C28*%
X193460000Y-68350000D03*
X194360000Y-68350000D03*
%TD*%
D20*
%TO.C,C44*%
X137230000Y-127110000D03*
X138630000Y-127110000D03*
%TD*%
D62*
%TO.C,C45*%
X176679000Y-138310000D03*
X179981000Y-138310000D03*
%TD*%
D33*
%TO.C,C46*%
X137480000Y-128530000D03*
X138380000Y-128530000D03*
%TD*%
D36*
%TO.C,C47*%
X192410000Y-123630000D03*
X192410000Y-125030000D03*
%TD*%
D18*
%TO.C,C48*%
X187920000Y-123850000D03*
X187920000Y-124750000D03*
%TD*%
D62*
%TO.C,C49*%
X145861000Y-134810000D03*
X142559000Y-134810000D03*
%TD*%
D36*
%TO.C,C50*%
X181760000Y-110410000D03*
X181760000Y-111810000D03*
%TD*%
D20*
%TO.C,C51*%
X143440000Y-108070000D03*
X144840000Y-108070000D03*
%TD*%
D18*
%TO.C,C52*%
X170280000Y-95130000D03*
X170280000Y-94230000D03*
%TD*%
D33*
%TO.C,C53*%
X142680000Y-109490000D03*
X143580000Y-109490000D03*
%TD*%
D63*
%TO.C,U8*%
X132820000Y-125495000D03*
X132820000Y-126445000D03*
X132820000Y-127395000D03*
X135220000Y-127395000D03*
X135220000Y-126445000D03*
X135220000Y-125495000D03*
%TD*%
D64*
%TO.C,U9*%
X191140000Y-123110000D03*
X190190000Y-123110000D03*
X189240000Y-123110000D03*
X189240000Y-125510000D03*
X190190000Y-125510000D03*
X191140000Y-125510000D03*
%TD*%
D33*
%TO.C,C7*%
X205180000Y-126690000D03*
X204280000Y-126690000D03*
%TD*%
D20*
%TO.C,R50*%
X133080000Y-128690000D03*
X134480000Y-128690000D03*
%TD*%
D18*
%TO.C,C55*%
X118200000Y-133390000D03*
X118200000Y-134290000D03*
%TD*%
%TO.C,C56*%
X116560000Y-132730000D03*
X116560000Y-133630000D03*
%TD*%
D20*
%TO.C,R51*%
X121750000Y-141410000D03*
X120350000Y-141410000D03*
%TD*%
%TO.C,R52*%
X119240000Y-141400000D03*
X117840000Y-141400000D03*
%TD*%
%TO.C,R53*%
X121750000Y-139990000D03*
X120350000Y-139990000D03*
%TD*%
%TO.C,R54*%
X119240000Y-139990000D03*
X117840000Y-139990000D03*
%TD*%
%TO.C,R55*%
X121770000Y-138580000D03*
X120370000Y-138580000D03*
%TD*%
%TO.C,R56*%
X119220000Y-138580000D03*
X117820000Y-138580000D03*
%TD*%
D65*
%TO.C,U10*%
X126540000Y-140970000D03*
X128440000Y-140970000D03*
X127490000Y-138970000D03*
%TD*%
D18*
%TO.C,C54*%
X130030000Y-140300000D03*
X130030000Y-141200000D03*
%TD*%
D20*
%TO.C,R57*%
X99140000Y-63720000D03*
X97740000Y-63720000D03*
%TD*%
D36*
%TO.C,R60*%
X136280000Y-112550000D03*
X136280000Y-113950000D03*
%TD*%
%TO.C,R61*%
X136280000Y-111380000D03*
X136280000Y-109980000D03*
%TD*%
D66*
%TO.C,D5*%
X95140000Y-141155001D03*
X96540000Y-141155001D03*
%TD*%
D20*
%TO.C,R62*%
X99990000Y-141155001D03*
X98590000Y-141155001D03*
%TD*%
D66*
%TO.C,D4*%
X95090000Y-63720000D03*
X96490000Y-63720000D03*
%TD*%
D67*
%TO.C,L3*%
X196780000Y-65990000D03*
D68*
X196780000Y-63890000D03*
%TD*%
D36*
%TO.C,R63*%
X124950000Y-139560000D03*
X124950000Y-140960000D03*
%TD*%
%TO.C,R74*%
X156620000Y-107000000D03*
X156620000Y-108400000D03*
%TD*%
D33*
%TO.C,R70*%
X136620000Y-100280000D03*
X135720000Y-100280000D03*
%TD*%
D69*
%TO.C,D11*%
X142280000Y-125990000D03*
X142280000Y-127090000D03*
%TD*%
D70*
%TO.C,C4*%
X205350000Y-64210000D03*
X205350000Y-65610000D03*
%TD*%
D20*
%TO.C,R37*%
X149600000Y-95500000D03*
X151000000Y-95500000D03*
%TD*%
D71*
%TO.C,Sw1*%
X148070000Y-128580000D03*
X148070000Y-130030000D03*
X151420000Y-128580000D03*
X151420000Y-130030000D03*
%TD*%
D36*
%TO.C,R73*%
X155230000Y-107000000D03*
X155230000Y-108400000D03*
%TD*%
D66*
%TO.C,D7*%
X108920000Y-63720000D03*
X107520000Y-63720000D03*
%TD*%
D72*
%TO.C,CON5*%
X133015000Y-131065000D03*
X133515000Y-131065000D03*
X134015000Y-131065000D03*
X134515000Y-131065000D03*
X135015000Y-131065000D03*
X135515000Y-131065000D03*
X136015000Y-131065000D03*
X136515000Y-131065000D03*
X137015000Y-131065000D03*
X137515000Y-131065000D03*
X138015000Y-131065000D03*
X138515000Y-131065000D03*
%TD*%
D73*
%TO.C,U2*%
X208929000Y-63804000D03*
X207151000Y-63804000D03*
X208040000Y-65836000D03*
%TD*%
D36*
%TO.C,R58*%
X194120000Y-88700000D03*
X194120000Y-87300000D03*
%TD*%
D20*
%TO.C,R78*%
X178580000Y-123920000D03*
X179980000Y-123920000D03*
%TD*%
D36*
%TO.C,R1*%
X189940000Y-63610000D03*
X189940000Y-65010000D03*
%TD*%
D69*
%TO.C,D10*%
X148910000Y-125990000D03*
X148910000Y-127090000D03*
%TD*%
D66*
%TO.C,D9*%
X178580000Y-126270000D03*
X179980000Y-126270000D03*
%TD*%
D20*
%TO.C,R77*%
X175130000Y-126270000D03*
X176530000Y-126270000D03*
%TD*%
D36*
%TO.C,R59*%
X195520000Y-88700000D03*
X195520000Y-87300000D03*
%TD*%
D66*
%TO.C,D6*%
X176530000Y-123920000D03*
X175130000Y-123920000D03*
%TD*%
D20*
%TO.C,R39*%
X149600000Y-96930000D03*
X151000000Y-96930000D03*
%TD*%
%TO.C,R65*%
X104320000Y-63720000D03*
X105720000Y-63720000D03*
%TD*%
D36*
%TO.C,R75*%
X138640000Y-123090000D03*
X138640000Y-124490000D03*
%TD*%
D71*
%TO.C,Sw2*%
X142280000Y-128580000D03*
X142280000Y-130030000D03*
X145630000Y-128580000D03*
X145630000Y-130030000D03*
%TD*%
D33*
%TO.C,R67*%
X136620000Y-99330000D03*
X135720000Y-99330000D03*
%TD*%
D20*
%TO.C,R69*%
X147815000Y-126915000D03*
X146415000Y-126915000D03*
%TD*%
D74*
%TO.C,F1*%
X131690000Y-102550000D03*
X131690000Y-104250000D03*
%TD*%
D18*
%TO.C,R71*%
X168090000Y-122930000D03*
X168090000Y-123830000D03*
%TD*%
D75*
%TO.C,CON4*%
X202539992Y-74459991D03*
X202539992Y-73959991D03*
X202539992Y-73459991D03*
X202539992Y-72959991D03*
X202539992Y-72459991D03*
X202539992Y-71959991D03*
X202539992Y-71459991D03*
X202539992Y-70959991D03*
X202539992Y-70459991D03*
X202539992Y-69959991D03*
X202539992Y-69459991D03*
X202539992Y-68959991D03*
%TD*%
D20*
%TO.C,R38*%
X152610000Y-98340000D03*
X151210000Y-98340000D03*
%TD*%
D19*
%TO.C,C3*%
X210730000Y-65130000D03*
X210730000Y-63730000D03*
%TD*%
D36*
%TO.C,R76*%
X140110000Y-123090000D03*
X140110000Y-124490000D03*
%TD*%
D66*
%TO.C,D8*%
X108920000Y-141155001D03*
X107520000Y-141155001D03*
%TD*%
D18*
%TO.C,R72*%
X169180000Y-122930000D03*
X169180000Y-123830000D03*
%TD*%
D20*
%TO.C,R68*%
X150035000Y-126915000D03*
X151435000Y-126915000D03*
%TD*%
%TO.C,R66*%
X104320000Y-141155001D03*
X105720000Y-141155001D03*
%TD*%
D18*
%TO.C,R64*%
X146230000Y-99620000D03*
X146230000Y-100520000D03*
%TD*%
D76*
%TO.C,CON1*%
X186797500Y-117250000D03*
D77*
X187222500Y-109750000D03*
X187222500Y-116050000D03*
D76*
X186797500Y-108550000D03*
D78*
X185297500Y-114150000D03*
X185297500Y-113650000D03*
X185297500Y-113150000D03*
X185297500Y-112650000D03*
X185297500Y-112150000D03*
X185297500Y-111650000D03*
%TD*%
M02*
