G04 #@! TF.GenerationSoftware,KiCad,Pcbnew,5.1.9-73d0e3b20d~88~ubuntu20.04.1*
G04 #@! TF.CreationDate,2021-01-23T10:02:57+01:00*
G04 #@! TF.ProjectId,stm32mp1-custom-devboard,73746d33-326d-4703-912d-637573746f6d,V1.0*
G04 #@! TF.SameCoordinates,Original*
G04 #@! TF.FileFunction,Soldermask,Bot*
G04 #@! TF.FilePolarity,Negative*
%FSLAX46Y46*%
G04 Gerber Fmt 4.6, Leading zero omitted, Abs format (unit mm)*
G04 Created by KiCad (PCBNEW 5.1.9-73d0e3b20d~88~ubuntu20.04.1) date 2021-01-23 10:02:57*
%MOMM*%
%LPD*%
G01*
G04 APERTURE LIST*
%ADD10C,3.519200*%
%ADD11C,3.337860*%
%ADD12C,2.583480*%
%ADD13C,1.669080*%
%ADD14C,1.537000*%
%ADD15C,1.740000*%
%ADD16O,1.867200X1.867200*%
%ADD17C,3.340000*%
%ADD18C,0.770000*%
%ADD19C,2.740000*%
%ADD20C,1.240000*%
%ADD21O,0.747700X1.397940*%
%ADD22C,0.750000*%
%ADD23O,2.138980X1.138220*%
%ADD24O,1.397940X0.747700*%
%ADD25O,1.138220X2.138980*%
G04 APERTURE END LIST*
D10*
X133680000Y-77090000D03*
X146820000Y-77090000D03*
D11*
X205870000Y-127425000D03*
X205870000Y-138855000D03*
D12*
X201971100Y-125192340D03*
X201971100Y-141087660D03*
D13*
X209979720Y-126815400D03*
X209979720Y-129355400D03*
X209979720Y-136924600D03*
X209979720Y-139464600D03*
D14*
X196980000Y-128700080D03*
X199520000Y-129962460D03*
X196980000Y-131240080D03*
X199520000Y-132502460D03*
X196980000Y-133777540D03*
X199520000Y-135039920D03*
X196980000Y-136317540D03*
X199520000Y-137579920D03*
D15*
X124800000Y-68900000D03*
X124800000Y-135700000D03*
D16*
X156600000Y-132827000D03*
X156600000Y-135367000D03*
X159140000Y-135367000D03*
X159140000Y-132827000D03*
X161680000Y-135367000D03*
X133740000Y-120000000D03*
X133740000Y-114920000D03*
X133740000Y-112380000D03*
X133740000Y-109840000D03*
X133740000Y-107300000D03*
X133740000Y-104760000D03*
X133740000Y-102220000D03*
X133740000Y-99680000D03*
X182000000Y-132700000D03*
X182000000Y-130160000D03*
X182000000Y-127620000D03*
X182000000Y-125080000D03*
X182000000Y-122540000D03*
X182000000Y-120000000D03*
X182000000Y-117460000D03*
X182000000Y-114920000D03*
X182000000Y-95616000D03*
X182000000Y-110856000D03*
X182000000Y-108316000D03*
X182000000Y-105776000D03*
D17*
X138820000Y-135240000D03*
X166760000Y-135240000D03*
X182000000Y-84440000D03*
X133740000Y-83170000D03*
D16*
X182000000Y-87996000D03*
X182000000Y-90536000D03*
X182000000Y-93076000D03*
X182000000Y-98156000D03*
X182000000Y-100696000D03*
X182000000Y-103236000D03*
X133740000Y-97140000D03*
X133740000Y-122540000D03*
X133740000Y-125080000D03*
X133740000Y-127620000D03*
X133740000Y-130160000D03*
X133740000Y-132700000D03*
X161680000Y-132827000D03*
D18*
X142220000Y-104910000D03*
X141220000Y-104910000D03*
X140220000Y-104910000D03*
X140220000Y-102910000D03*
X141220000Y-102910000D03*
X142220000Y-102910000D03*
D19*
X151930000Y-135260000D03*
X176130000Y-135260000D03*
D20*
X151530000Y-87210000D03*
D15*
X176530000Y-87210000D03*
D21*
X204385440Y-70472000D03*
D22*
X205086480Y-71122240D03*
X205086480Y-71922340D03*
X204385440Y-72321120D03*
X205086480Y-72722440D03*
X204385440Y-73121220D03*
X204385440Y-73918780D03*
X205086480Y-74317560D03*
X204385440Y-74718880D03*
X205086480Y-75117660D03*
X205086480Y-75917760D03*
D21*
X204385440Y-76568000D03*
D23*
X203585340Y-78018340D03*
X203585340Y-69021660D03*
X209084440Y-79593140D03*
X209084440Y-67446860D03*
D22*
X205086480Y-77243640D03*
X205086480Y-69796360D03*
G36*
G01*
X190340000Y-129550000D02*
X190340000Y-130550000D01*
G75*
G02*
X190290000Y-130600000I-50000J0D01*
G01*
X189290000Y-130600000D01*
G75*
G02*
X189240000Y-130550000I0J50000D01*
G01*
X189240000Y-129550000D01*
G75*
G02*
X189290000Y-129500000I50000J0D01*
G01*
X190290000Y-129500000D01*
G75*
G02*
X190340000Y-129550000I0J-50000D01*
G01*
G37*
G36*
G01*
X191340000Y-129550000D02*
X191340000Y-130550000D01*
G75*
G02*
X191290000Y-130600000I-50000J0D01*
G01*
X190290000Y-130600000D01*
G75*
G02*
X190240000Y-130550000I0J50000D01*
G01*
X190240000Y-129550000D01*
G75*
G02*
X190290000Y-129500000I50000J0D01*
G01*
X191290000Y-129500000D01*
G75*
G02*
X191340000Y-129550000I0J-50000D01*
G01*
G37*
G36*
G01*
X191340000Y-128550000D02*
X191340000Y-129550000D01*
G75*
G02*
X191290000Y-129600000I-50000J0D01*
G01*
X190290000Y-129600000D01*
G75*
G02*
X190240000Y-129550000I0J50000D01*
G01*
X190240000Y-128550000D01*
G75*
G02*
X190290000Y-128500000I50000J0D01*
G01*
X191290000Y-128500000D01*
G75*
G02*
X191340000Y-128550000I0J-50000D01*
G01*
G37*
G36*
G01*
X190340000Y-128550000D02*
X190340000Y-129550000D01*
G75*
G02*
X190290000Y-129600000I-50000J0D01*
G01*
X189290000Y-129600000D01*
G75*
G02*
X189240000Y-129550000I0J50000D01*
G01*
X189240000Y-128550000D01*
G75*
G02*
X189290000Y-128500000I50000J0D01*
G01*
X190290000Y-128500000D01*
G75*
G02*
X190340000Y-128550000I0J-50000D01*
G01*
G37*
G36*
G01*
X189340000Y-128550000D02*
X189340000Y-129550000D01*
G75*
G02*
X189290000Y-129600000I-50000J0D01*
G01*
X188290000Y-129600000D01*
G75*
G02*
X188240000Y-129550000I0J50000D01*
G01*
X188240000Y-128550000D01*
G75*
G02*
X188290000Y-128500000I50000J0D01*
G01*
X189290000Y-128500000D01*
G75*
G02*
X189340000Y-128550000I0J-50000D01*
G01*
G37*
G36*
G01*
X189340000Y-129550000D02*
X189340000Y-130550000D01*
G75*
G02*
X189290000Y-130600000I-50000J0D01*
G01*
X188290000Y-130600000D01*
G75*
G02*
X188240000Y-130550000I0J50000D01*
G01*
X188240000Y-129550000D01*
G75*
G02*
X188290000Y-129500000I50000J0D01*
G01*
X189290000Y-129500000D01*
G75*
G02*
X189340000Y-129550000I0J-50000D01*
G01*
G37*
G36*
G01*
X189340000Y-130550000D02*
X189340000Y-131550000D01*
G75*
G02*
X189290000Y-131600000I-50000J0D01*
G01*
X188290000Y-131600000D01*
G75*
G02*
X188240000Y-131550000I0J50000D01*
G01*
X188240000Y-130550000D01*
G75*
G02*
X188290000Y-130500000I50000J0D01*
G01*
X189290000Y-130500000D01*
G75*
G02*
X189340000Y-130550000I0J-50000D01*
G01*
G37*
G36*
G01*
X190340000Y-130550000D02*
X190340000Y-131550000D01*
G75*
G02*
X190290000Y-131600000I-50000J0D01*
G01*
X189290000Y-131600000D01*
G75*
G02*
X189240000Y-131550000I0J50000D01*
G01*
X189240000Y-130550000D01*
G75*
G02*
X189290000Y-130500000I50000J0D01*
G01*
X190290000Y-130500000D01*
G75*
G02*
X190340000Y-130550000I0J-50000D01*
G01*
G37*
G36*
G01*
X191340000Y-130550000D02*
X191340000Y-131550000D01*
G75*
G02*
X191290000Y-131600000I-50000J0D01*
G01*
X190290000Y-131600000D01*
G75*
G02*
X190240000Y-131550000I0J50000D01*
G01*
X190240000Y-130550000D01*
G75*
G02*
X190290000Y-130500000I50000J0D01*
G01*
X191290000Y-130500000D01*
G75*
G02*
X191340000Y-130550000I0J-50000D01*
G01*
G37*
D24*
X162122000Y-75324560D03*
D22*
X162772240Y-74623520D03*
X163572340Y-74623520D03*
X163971120Y-75324560D03*
X164372440Y-74623520D03*
X164771220Y-75324560D03*
X165568780Y-75324560D03*
X165967560Y-74623520D03*
X166368880Y-75324560D03*
X166767660Y-74623520D03*
X167567760Y-74623520D03*
D24*
X168218000Y-75324560D03*
D25*
X169668340Y-76124660D03*
X160671660Y-76124660D03*
X171243140Y-70625560D03*
X159096860Y-70625560D03*
D22*
X168893640Y-74623520D03*
X161446360Y-74623520D03*
M02*
